<?xml version="1.0" encoding="utf-8"?>
<!-- Generator: Adobe Illustrator 15.1.0, SVG Export Plug-In . SVG Version: 6.00 Build 0)  -->
<!DOCTYPE svg PUBLIC "-//W3C//DTD SVG 1.1//EN" "http://www.w3.org/Graphics/SVG/1.1/DTD/svg11.dtd">
<svg version="1.1" id="Calque_1" xmlns="http://www.w3.org/2000/svg" xmlns:xlink="http://www.w3.org/1999/xlink" x="0px" y="0px"
	 width="1430px" height="1160px" viewBox="-165 0 1430 1160" enable-background="new -165 0 1430 1160" xml:space="preserve">
<rect x="-165" fill="#FFFFFF" width="1430" height="1160"/>
<g>
	<g>
		<line fill="none" stroke="#825A46" stroke-width="0.285" stroke-miterlimit="10" x1="-100" y1="80" x2="-100" y2="1080"/>
		<line fill="none" stroke="#825A46" stroke-width="0.285" stroke-miterlimit="10" x1="-87" y1="80" x2="-87" y2="1080"/>
		<line fill="none" stroke="#825A46" stroke-width="0.285" stroke-miterlimit="10" x1="-74" y1="80" x2="-74" y2="1080"/>
		<line fill="none" stroke="#825A46" stroke-width="0.285" stroke-miterlimit="10" x1="-61" y1="80" x2="-61" y2="1080"/>
		<line fill="none" stroke="#825A46" stroke-width="0.285" stroke-miterlimit="10" x1="-48" y1="80" x2="-48" y2="1080"/>
		<line fill="none" stroke="#825A46" stroke-width="0.285" stroke-miterlimit="10" x1="-35" y1="80" x2="-35" y2="1080"/>
		<line fill="none" stroke="#825A46" stroke-width="0.285" stroke-miterlimit="10" x1="-22" y1="80" x2="-22" y2="1080"/>
		<line fill="none" stroke="#825A46" stroke-width="0.285" stroke-miterlimit="10" x1="-9" y1="80" x2="-9" y2="1080"/>
		<line fill="none" stroke="#825A46" stroke-width="0.285" stroke-miterlimit="10" x1="4" y1="80" x2="4" y2="1080"/>
		<line fill="none" stroke="#825A46" stroke-width="0.285" stroke-miterlimit="10" x1="17" y1="80" x2="17" y2="1080"/>
		<line fill="none" stroke="#825A46" stroke-width="0.285" stroke-miterlimit="10" x1="30" y1="80" x2="30" y2="1080"/>
		<line fill="none" stroke="#825A46" stroke-width="0.285" stroke-miterlimit="10" x1="43" y1="80" x2="43" y2="1080"/>
		<line fill="none" stroke="#825A46" stroke-width="0.285" stroke-miterlimit="10" x1="56" y1="80" x2="56" y2="1080"/>
		<line fill="none" stroke="#825A46" stroke-width="0.285" stroke-miterlimit="10" x1="69" y1="80" x2="69" y2="1080"/>
		<line fill="none" stroke="#825A46" stroke-width="0.285" stroke-miterlimit="10" x1="82" y1="80" x2="82" y2="1080"/>
		<line fill="none" stroke="#825A46" stroke-width="0.285" stroke-miterlimit="10" x1="95" y1="80" x2="95" y2="1080"/>
		<line fill="none" stroke="#825A46" stroke-width="0.285" stroke-miterlimit="10" x1="108" y1="80" x2="108" y2="1080"/>
		<line fill="none" stroke="#825A46" stroke-width="0.285" stroke-miterlimit="10" x1="121" y1="80" x2="121" y2="1080"/>
		<line fill="none" stroke="#825A46" stroke-width="0.285" stroke-miterlimit="10" x1="134" y1="80" x2="134" y2="1080"/>
		<line fill="none" stroke="#825A46" stroke-width="0.285" stroke-miterlimit="10" x1="147" y1="80" x2="147" y2="1080"/>
		<line fill="none" stroke="#825A46" stroke-width="0.285" stroke-miterlimit="10" x1="160" y1="80" x2="160" y2="1080"/>
		<line fill="none" stroke="#825A46" stroke-width="0.285" stroke-miterlimit="10" x1="173" y1="80" x2="173" y2="1080"/>
		<line fill="none" stroke="#825A46" stroke-width="0.285" stroke-miterlimit="10" x1="186" y1="80" x2="186" y2="1080"/>
		<line fill="none" stroke="#825A46" stroke-width="0.285" stroke-miterlimit="10" x1="199" y1="80" x2="199" y2="1080"/>
		<line fill="none" stroke="#825A46" stroke-width="0.285" stroke-miterlimit="10" x1="212" y1="80" x2="212" y2="1080"/>
		<line fill="none" stroke="#825A46" stroke-width="0.285" stroke-miterlimit="10" x1="225" y1="80" x2="225" y2="1080"/>
		<line fill="none" stroke="#825A46" stroke-width="0.285" stroke-miterlimit="10" x1="238" y1="80" x2="238" y2="1080"/>
		<line fill="none" stroke="#825A46" stroke-width="0.285" stroke-miterlimit="10" x1="251" y1="80" x2="251" y2="1080"/>
		<line fill="none" stroke="#825A46" stroke-width="0.285" stroke-miterlimit="10" x1="264" y1="80" x2="264" y2="1080"/>
		<line fill="none" stroke="#825A46" stroke-width="0.285" stroke-miterlimit="10" x1="277" y1="80" x2="277" y2="1080"/>
		<line fill="none" stroke="#825A46" stroke-width="0.285" stroke-miterlimit="10" x1="290" y1="80" x2="290" y2="1080"/>
		<line fill="none" stroke="#825A46" stroke-width="0.285" stroke-miterlimit="10" x1="303" y1="80" x2="303" y2="1080"/>
		<line fill="none" stroke="#825A46" stroke-width="0.285" stroke-miterlimit="10" x1="316" y1="80" x2="316" y2="1080"/>
		<line fill="none" stroke="#825A46" stroke-width="0.285" stroke-miterlimit="10" x1="329" y1="80" x2="329" y2="1080"/>
		<line fill="none" stroke="#825A46" stroke-width="0.285" stroke-miterlimit="10" x1="342" y1="80" x2="342" y2="1080"/>
		<line fill="none" stroke="#825A46" stroke-width="0.285" stroke-miterlimit="10" x1="355" y1="80" x2="355" y2="1080"/>
		<line fill="none" stroke="#825A46" stroke-width="0.285" stroke-miterlimit="10" x1="368" y1="80" x2="368" y2="1080"/>
		<line fill="none" stroke="#825A46" stroke-width="0.285" stroke-miterlimit="10" x1="381" y1="80" x2="381" y2="1080"/>
		<line fill="none" stroke="#825A46" stroke-width="0.285" stroke-miterlimit="10" x1="394" y1="80" x2="394" y2="1080"/>
		<line fill="none" stroke="#825A46" stroke-width="0.285" stroke-miterlimit="10" x1="407" y1="80" x2="407" y2="1080"/>
		<line fill="none" stroke="#825A46" stroke-width="0.285" stroke-miterlimit="10" x1="420" y1="80" x2="420" y2="1080"/>
		<line fill="none" stroke="#825A46" stroke-width="0.285" stroke-miterlimit="10" x1="433" y1="80" x2="433" y2="1080"/>
		<line fill="none" stroke="#825A46" stroke-width="0.285" stroke-miterlimit="10" x1="446" y1="80" x2="446" y2="1080"/>
		<line fill="none" stroke="#825A46" stroke-width="0.285" stroke-miterlimit="10" x1="459" y1="80" x2="459" y2="1080"/>
		<line fill="none" stroke="#825A46" stroke-width="0.285" stroke-miterlimit="10" x1="472" y1="80" x2="472" y2="1080"/>
		<line fill="none" stroke="#825A46" stroke-width="0.285" stroke-miterlimit="10" x1="485" y1="80" x2="485" y2="1080"/>
		<line fill="none" stroke="#825A46" stroke-width="0.285" stroke-miterlimit="10" x1="498" y1="80" x2="498" y2="1080"/>
		<line fill="none" stroke="#825A46" stroke-width="0.285" stroke-miterlimit="10" x1="511" y1="80" x2="511" y2="1080"/>
		<line fill="none" stroke="#825A46" stroke-width="0.285" stroke-miterlimit="10" x1="524" y1="80" x2="524" y2="1080"/>
		<line fill="none" stroke="#825A46" stroke-width="0.285" stroke-miterlimit="10" x1="537" y1="80" x2="537" y2="1080"/>
		<line fill="none" stroke="#825A46" stroke-width="0.285" stroke-miterlimit="10" x1="550" y1="80" x2="550" y2="1080"/>
		<line fill="none" stroke="#825A46" stroke-width="0.285" stroke-miterlimit="10" x1="563" y1="80" x2="563" y2="1080"/>
		<line fill="none" stroke="#825A46" stroke-width="0.285" stroke-miterlimit="10" x1="576" y1="80" x2="576" y2="1080"/>
		<line fill="none" stroke="#825A46" stroke-width="0.285" stroke-miterlimit="10" x1="589" y1="80" x2="589" y2="1080"/>
		<line fill="none" stroke="#825A46" stroke-width="0.285" stroke-miterlimit="10" x1="602" y1="80" x2="602" y2="1080"/>
		<line fill="none" stroke="#825A46" stroke-width="0.285" stroke-miterlimit="10" x1="615" y1="80" x2="615" y2="1080"/>
		<line fill="none" stroke="#825A46" stroke-width="0.285" stroke-miterlimit="10" x1="628" y1="80" x2="628" y2="1080"/>
		<line fill="none" stroke="#825A46" stroke-width="0.285" stroke-miterlimit="10" x1="641" y1="80" x2="641" y2="1080"/>
		<line fill="none" stroke="#825A46" stroke-width="0.285" stroke-miterlimit="10" x1="654" y1="80" x2="654" y2="1080"/>
		<line fill="none" stroke="#825A46" stroke-width="0.285" stroke-miterlimit="10" x1="667" y1="80" x2="667" y2="1080"/>
		<line fill="none" stroke="#825A46" stroke-width="0.285" stroke-miterlimit="10" x1="680" y1="80" x2="680" y2="1080"/>
		<line fill="none" stroke="#825A46" stroke-width="0.285" stroke-miterlimit="10" x1="693" y1="80" x2="693" y2="1080"/>
		<line fill="none" stroke="#825A46" stroke-width="0.285" stroke-miterlimit="10" x1="706" y1="80" x2="706" y2="1080"/>
		<line fill="none" stroke="#825A46" stroke-width="0.285" stroke-miterlimit="10" x1="719" y1="80" x2="719" y2="1080"/>
		<line fill="none" stroke="#825A46" stroke-width="0.285" stroke-miterlimit="10" x1="732" y1="80" x2="732" y2="1080"/>
		<line fill="none" stroke="#825A46" stroke-width="0.285" stroke-miterlimit="10" x1="745" y1="80" x2="745" y2="1080"/>
		<line fill="none" stroke="#825A46" stroke-width="0.285" stroke-miterlimit="10" x1="758" y1="80" x2="758" y2="1080"/>
		<line fill="none" stroke="#825A46" stroke-width="0.285" stroke-miterlimit="10" x1="771" y1="80" x2="771" y2="1080"/>
		<line fill="none" stroke="#825A46" stroke-width="0.285" stroke-miterlimit="10" x1="784" y1="80" x2="784" y2="1080"/>
		<line fill="none" stroke="#825A46" stroke-width="0.285" stroke-miterlimit="10" x1="797" y1="80" x2="797" y2="1080"/>
		<line fill="none" stroke="#825A46" stroke-width="0.285" stroke-miterlimit="10" x1="810" y1="80" x2="810" y2="1080"/>
		<line fill="none" stroke="#825A46" stroke-width="0.285" stroke-miterlimit="10" x1="823" y1="80" x2="823" y2="1080"/>
		<line fill="none" stroke="#825A46" stroke-width="0.285" stroke-miterlimit="10" x1="836" y1="80" x2="836" y2="1080"/>
		<line fill="none" stroke="#825A46" stroke-width="0.285" stroke-miterlimit="10" x1="849" y1="80" x2="849" y2="1080"/>
		<line fill="none" stroke="#825A46" stroke-width="0.285" stroke-miterlimit="10" x1="862" y1="80" x2="862" y2="1080"/>
		<line fill="none" stroke="#825A46" stroke-width="0.285" stroke-miterlimit="10" x1="875" y1="80" x2="875" y2="1080"/>
		<line fill="none" stroke="#825A46" stroke-width="0.285" stroke-miterlimit="10" x1="888" y1="80" x2="888" y2="1080"/>
		<line fill="none" stroke="#825A46" stroke-width="0.285" stroke-miterlimit="10" x1="901" y1="80" x2="901" y2="1080"/>
		<line fill="none" stroke="#825A46" stroke-width="0.285" stroke-miterlimit="10" x1="914" y1="80" x2="914" y2="1080"/>
		<line fill="none" stroke="#825A46" stroke-width="0.285" stroke-miterlimit="10" x1="927" y1="80" x2="927" y2="1080"/>
		<line fill="none" stroke="#825A46" stroke-width="0.285" stroke-miterlimit="10" x1="940" y1="80" x2="940" y2="1080"/>
		<line fill="none" stroke="#825A46" stroke-width="0.285" stroke-miterlimit="10" x1="953" y1="80" x2="953" y2="1080"/>
		<line fill="none" stroke="#825A46" stroke-width="0.285" stroke-miterlimit="10" x1="966" y1="80" x2="966" y2="1080"/>
		<line fill="none" stroke="#825A46" stroke-width="0.285" stroke-miterlimit="10" x1="979" y1="80" x2="979" y2="1080"/>
		<line fill="none" stroke="#825A46" stroke-width="0.285" stroke-miterlimit="10" x1="992" y1="80" x2="992" y2="1080"/>
		<line fill="none" stroke="#825A46" stroke-width="0.285" stroke-miterlimit="10" x1="1005" y1="80" x2="1005" y2="1080"/>
		<line fill="none" stroke="#825A46" stroke-width="0.285" stroke-miterlimit="10" x1="1018" y1="80" x2="1018" y2="1080"/>
		<line fill="none" stroke="#825A46" stroke-width="0.285" stroke-miterlimit="10" x1="1031" y1="80" x2="1031" y2="1080"/>
		<line fill="none" stroke="#825A46" stroke-width="0.285" stroke-miterlimit="10" x1="1044" y1="80" x2="1044" y2="1080"/>
		<line fill="none" stroke="#825A46" stroke-width="0.285" stroke-miterlimit="10" x1="1057" y1="80" x2="1057" y2="1080"/>
		<line fill="none" stroke="#825A46" stroke-width="0.285" stroke-miterlimit="10" x1="1070" y1="80" x2="1070" y2="1080"/>
		<line fill="none" stroke="#825A46" stroke-width="0.285" stroke-miterlimit="10" x1="1083" y1="80" x2="1083" y2="1080"/>
		<line fill="none" stroke="#825A46" stroke-width="0.285" stroke-miterlimit="10" x1="1096" y1="80" x2="1096" y2="1080"/>
		<line fill="none" stroke="#825A46" stroke-width="0.285" stroke-miterlimit="10" x1="1109" y1="80" x2="1109" y2="1080"/>
		<line fill="none" stroke="#825A46" stroke-width="0.285" stroke-miterlimit="10" x1="1122" y1="80" x2="1122" y2="1080"/>
		<line fill="none" stroke="#825A46" stroke-width="0.285" stroke-miterlimit="10" x1="1135" y1="80" x2="1135" y2="1080"/>
		<line fill="none" stroke="#825A46" stroke-width="0.285" stroke-miterlimit="10" x1="1148" y1="80" x2="1148" y2="1080"/>
		<line fill="none" stroke="#825A46" stroke-width="0.285" stroke-miterlimit="10" x1="1161" y1="80" x2="1161" y2="1080"/>
		<line fill="none" stroke="#825A46" stroke-width="0.285" stroke-miterlimit="10" x1="1174" y1="80" x2="1174" y2="1080"/>
		<line fill="none" stroke="#825A46" stroke-width="0.285" stroke-miterlimit="10" x1="1187" y1="80" x2="1187" y2="1080"/>
		<line fill="none" stroke="#825A46" stroke-width="0.285" stroke-miterlimit="10" x1="1200" y1="80" x2="1200" y2="1080"/>
	</g>
	<g>
		<line fill="none" stroke="#825A46" stroke-width="0.285" stroke-miterlimit="10" x1="1200" y1="80" x2="-100" y2="80"/>
		<line fill="none" stroke="#825A46" stroke-width="0.285" stroke-miterlimit="10" x1="1200" y1="90" x2="-100" y2="90"/>
		<line fill="none" stroke="#825A46" stroke-width="0.285" stroke-miterlimit="10" x1="1200" y1="100" x2="-100" y2="100"/>
		<line fill="none" stroke="#825A46" stroke-width="0.285" stroke-miterlimit="10" x1="1200" y1="110" x2="-100" y2="110"/>
		<line fill="none" stroke="#825A46" stroke-width="0.285" stroke-miterlimit="10" x1="1200" y1="120" x2="-100" y2="120"/>
		<line fill="none" stroke="#825A46" stroke-width="0.285" stroke-miterlimit="10" x1="1200" y1="130" x2="-100" y2="130"/>
		<line fill="none" stroke="#825A46" stroke-width="0.285" stroke-miterlimit="10" x1="1200" y1="140" x2="-100" y2="140"/>
		<line fill="none" stroke="#825A46" stroke-width="0.285" stroke-miterlimit="10" x1="1200" y1="150" x2="-100" y2="150"/>
		<line fill="none" stroke="#825A46" stroke-width="0.285" stroke-miterlimit="10" x1="1200" y1="160" x2="-100" y2="160"/>
		<line fill="none" stroke="#825A46" stroke-width="0.285" stroke-miterlimit="10" x1="1200" y1="170" x2="-100" y2="170"/>
		<line fill="none" stroke="#825A46" stroke-width="0.285" stroke-miterlimit="10" x1="1200" y1="180" x2="-100" y2="180"/>
		<line fill="none" stroke="#825A46" stroke-width="0.285" stroke-miterlimit="10" x1="1200" y1="190" x2="-100" y2="190"/>
		<line fill="none" stroke="#825A46" stroke-width="0.285" stroke-miterlimit="10" x1="1200" y1="200" x2="-100" y2="200"/>
		<line fill="none" stroke="#825A46" stroke-width="0.285" stroke-miterlimit="10" x1="1200" y1="210" x2="-100" y2="210"/>
		<line fill="none" stroke="#825A46" stroke-width="0.285" stroke-miterlimit="10" x1="1200" y1="220" x2="-100" y2="220"/>
		<line fill="none" stroke="#825A46" stroke-width="0.285" stroke-miterlimit="10" x1="1200" y1="230" x2="-100" y2="230"/>
		<line fill="none" stroke="#825A46" stroke-width="0.285" stroke-miterlimit="10" x1="1200" y1="240" x2="-100" y2="240"/>
		<line fill="none" stroke="#825A46" stroke-width="0.285" stroke-miterlimit="10" x1="1200" y1="250" x2="-100" y2="250"/>
		<line fill="none" stroke="#825A46" stroke-width="0.285" stroke-miterlimit="10" x1="1200" y1="260" x2="-100" y2="260"/>
		<line fill="none" stroke="#825A46" stroke-width="0.285" stroke-miterlimit="10" x1="1200" y1="270" x2="-100" y2="270"/>
		<line fill="none" stroke="#825A46" stroke-width="0.285" stroke-miterlimit="10" x1="1200" y1="280" x2="-100" y2="280"/>
		<line fill="none" stroke="#825A46" stroke-width="0.285" stroke-miterlimit="10" x1="1200" y1="290" x2="-100" y2="290"/>
		<line fill="none" stroke="#825A46" stroke-width="0.285" stroke-miterlimit="10" x1="1200" y1="300" x2="-100" y2="300"/>
		<line fill="none" stroke="#825A46" stroke-width="0.285" stroke-miterlimit="10" x1="1200" y1="310" x2="-100" y2="310"/>
		<line fill="none" stroke="#825A46" stroke-width="0.285" stroke-miterlimit="10" x1="1200" y1="320" x2="-100" y2="320"/>
		<line fill="none" stroke="#825A46" stroke-width="0.285" stroke-miterlimit="10" x1="1200" y1="330" x2="-100" y2="330"/>
		<line fill="none" stroke="#825A46" stroke-width="0.285" stroke-miterlimit="10" x1="1200" y1="340" x2="-100" y2="340"/>
		<line fill="none" stroke="#825A46" stroke-width="0.285" stroke-miterlimit="10" x1="1200" y1="350" x2="-100" y2="350"/>
		<line fill="none" stroke="#825A46" stroke-width="0.285" stroke-miterlimit="10" x1="1200" y1="360" x2="-100" y2="360"/>
		<line fill="none" stroke="#825A46" stroke-width="0.285" stroke-miterlimit="10" x1="1200" y1="370" x2="-100" y2="370"/>
		<line fill="none" stroke="#825A46" stroke-width="0.285" stroke-miterlimit="10" x1="1200" y1="380" x2="-100" y2="380"/>
		<line fill="none" stroke="#825A46" stroke-width="0.285" stroke-miterlimit="10" x1="1200" y1="390" x2="-100" y2="390"/>
		<line fill="none" stroke="#825A46" stroke-width="0.285" stroke-miterlimit="10" x1="1200" y1="400" x2="-100" y2="400"/>
		<line fill="none" stroke="#825A46" stroke-width="0.285" stroke-miterlimit="10" x1="1200" y1="410" x2="-100" y2="410"/>
		<line fill="none" stroke="#825A46" stroke-width="0.285" stroke-miterlimit="10" x1="1200" y1="420" x2="-100" y2="420"/>
		<line fill="none" stroke="#825A46" stroke-width="0.285" stroke-miterlimit="10" x1="1200" y1="430" x2="-100" y2="430"/>
		<line fill="none" stroke="#825A46" stroke-width="0.285" stroke-miterlimit="10" x1="1200" y1="440" x2="-100" y2="440"/>
		<line fill="none" stroke="#825A46" stroke-width="0.285" stroke-miterlimit="10" x1="1200" y1="450" x2="-100" y2="450"/>
		<line fill="none" stroke="#825A46" stroke-width="0.285" stroke-miterlimit="10" x1="1200" y1="460" x2="-100" y2="460"/>
		<line fill="none" stroke="#825A46" stroke-width="0.285" stroke-miterlimit="10" x1="1200" y1="470" x2="-100" y2="470"/>
		<line fill="none" stroke="#825A46" stroke-width="0.285" stroke-miterlimit="10" x1="1200" y1="480" x2="-100" y2="480"/>
		<line fill="none" stroke="#825A46" stroke-width="0.285" stroke-miterlimit="10" x1="1200" y1="490" x2="-100" y2="490"/>
		<line fill="none" stroke="#825A46" stroke-width="0.285" stroke-miterlimit="10" x1="1200" y1="500" x2="-100" y2="500"/>
		<line fill="none" stroke="#825A46" stroke-width="0.285" stroke-miterlimit="10" x1="1200" y1="510" x2="-100" y2="510"/>
		<line fill="none" stroke="#825A46" stroke-width="0.285" stroke-miterlimit="10" x1="1200" y1="520" x2="-100" y2="520"/>
		<line fill="none" stroke="#825A46" stroke-width="0.285" stroke-miterlimit="10" x1="1200" y1="530" x2="-100" y2="530"/>
		<line fill="none" stroke="#825A46" stroke-width="0.285" stroke-miterlimit="10" x1="1200" y1="540" x2="-100" y2="540"/>
		<line fill="none" stroke="#825A46" stroke-width="0.285" stroke-miterlimit="10" x1="1200" y1="550" x2="-100" y2="550"/>
		<line fill="none" stroke="#825A46" stroke-width="0.285" stroke-miterlimit="10" x1="1200" y1="560" x2="-100" y2="560"/>
		<line fill="none" stroke="#825A46" stroke-width="0.285" stroke-miterlimit="10" x1="1200" y1="570" x2="-100" y2="570"/>
		<line fill="none" stroke="#825A46" stroke-width="0.285" stroke-miterlimit="10" x1="1200" y1="580" x2="-100" y2="580"/>
		<line fill="none" stroke="#825A46" stroke-width="0.285" stroke-miterlimit="10" x1="1200" y1="590" x2="-100" y2="590"/>
		<line fill="none" stroke="#825A46" stroke-width="0.285" stroke-miterlimit="10" x1="1200" y1="600" x2="-100" y2="600"/>
		<line fill="none" stroke="#825A46" stroke-width="0.285" stroke-miterlimit="10" x1="1200" y1="610" x2="-100" y2="610"/>
		<line fill="none" stroke="#825A46" stroke-width="0.285" stroke-miterlimit="10" x1="1200" y1="620" x2="-100" y2="620"/>
		<line fill="none" stroke="#825A46" stroke-width="0.285" stroke-miterlimit="10" x1="1200" y1="630" x2="-100" y2="630"/>
		<line fill="none" stroke="#825A46" stroke-width="0.285" stroke-miterlimit="10" x1="1200" y1="640" x2="-100" y2="640"/>
		<line fill="none" stroke="#825A46" stroke-width="0.285" stroke-miterlimit="10" x1="1200" y1="650" x2="-100" y2="650"/>
		<line fill="none" stroke="#825A46" stroke-width="0.285" stroke-miterlimit="10" x1="1200" y1="660" x2="-100" y2="660"/>
		<line fill="none" stroke="#825A46" stroke-width="0.285" stroke-miterlimit="10" x1="1200" y1="670" x2="-100" y2="670"/>
		<line fill="none" stroke="#825A46" stroke-width="0.285" stroke-miterlimit="10" x1="1200" y1="680" x2="-100" y2="680"/>
		<line fill="none" stroke="#825A46" stroke-width="0.285" stroke-miterlimit="10" x1="1200" y1="690" x2="-100" y2="690"/>
		<line fill="none" stroke="#825A46" stroke-width="0.285" stroke-miterlimit="10" x1="1200" y1="700" x2="-100" y2="700"/>
		<line fill="none" stroke="#825A46" stroke-width="0.285" stroke-miterlimit="10" x1="1200" y1="710" x2="-100" y2="710"/>
		<line fill="none" stroke="#825A46" stroke-width="0.285" stroke-miterlimit="10" x1="1200" y1="720" x2="-100" y2="720"/>
		<line fill="none" stroke="#825A46" stroke-width="0.285" stroke-miterlimit="10" x1="1200" y1="730" x2="-100" y2="730"/>
		<line fill="none" stroke="#825A46" stroke-width="0.285" stroke-miterlimit="10" x1="1200" y1="740" x2="-100" y2="740"/>
		<line fill="none" stroke="#825A46" stroke-width="0.285" stroke-miterlimit="10" x1="1200" y1="750" x2="-100" y2="750"/>
		<line fill="none" stroke="#825A46" stroke-width="0.285" stroke-miterlimit="10" x1="1200" y1="760" x2="-100" y2="760"/>
		<line fill="none" stroke="#825A46" stroke-width="0.285" stroke-miterlimit="10" x1="1200" y1="770" x2="-100" y2="770"/>
		<line fill="none" stroke="#825A46" stroke-width="0.285" stroke-miterlimit="10" x1="1200" y1="780" x2="-100" y2="780"/>
		<line fill="none" stroke="#825A46" stroke-width="0.285" stroke-miterlimit="10" x1="1200" y1="790" x2="-100" y2="790"/>
		<line fill="none" stroke="#825A46" stroke-width="0.285" stroke-miterlimit="10" x1="1200" y1="800" x2="-100" y2="800"/>
		<line fill="none" stroke="#825A46" stroke-width="0.285" stroke-miterlimit="10" x1="1200" y1="810" x2="-100" y2="810"/>
		<line fill="none" stroke="#825A46" stroke-width="0.285" stroke-miterlimit="10" x1="1200" y1="820" x2="-100" y2="820"/>
		<line fill="none" stroke="#825A46" stroke-width="0.285" stroke-miterlimit="10" x1="1200" y1="830" x2="-100" y2="830"/>
		<line fill="none" stroke="#825A46" stroke-width="0.285" stroke-miterlimit="10" x1="1200" y1="840" x2="-100" y2="840"/>
		<line fill="none" stroke="#825A46" stroke-width="0.285" stroke-miterlimit="10" x1="1200" y1="850" x2="-100" y2="850"/>
		<line fill="none" stroke="#825A46" stroke-width="0.285" stroke-miterlimit="10" x1="1200" y1="860" x2="-100" y2="860"/>
		<line fill="none" stroke="#825A46" stroke-width="0.285" stroke-miterlimit="10" x1="1200" y1="870" x2="-100" y2="870"/>
		<line fill="none" stroke="#825A46" stroke-width="0.285" stroke-miterlimit="10" x1="1200" y1="880" x2="-100" y2="880"/>
		<line fill="none" stroke="#825A46" stroke-width="0.285" stroke-miterlimit="10" x1="1200" y1="890" x2="-100" y2="890"/>
		<line fill="none" stroke="#825A46" stroke-width="0.285" stroke-miterlimit="10" x1="1200" y1="900" x2="-100" y2="900"/>
		<line fill="none" stroke="#825A46" stroke-width="0.285" stroke-miterlimit="10" x1="1200" y1="910" x2="-100" y2="910"/>
		<line fill="none" stroke="#825A46" stroke-width="0.285" stroke-miterlimit="10" x1="1200" y1="920" x2="-100" y2="920"/>
		<line fill="none" stroke="#825A46" stroke-width="0.285" stroke-miterlimit="10" x1="1200" y1="930" x2="-100" y2="930"/>
		<line fill="none" stroke="#825A46" stroke-width="0.285" stroke-miterlimit="10" x1="1200" y1="940" x2="-100" y2="940"/>
		<line fill="none" stroke="#825A46" stroke-width="0.285" stroke-miterlimit="10" x1="1200" y1="950" x2="-100" y2="950"/>
		<line fill="none" stroke="#825A46" stroke-width="0.285" stroke-miterlimit="10" x1="1200" y1="960" x2="-100" y2="960"/>
		<line fill="none" stroke="#825A46" stroke-width="0.285" stroke-miterlimit="10" x1="1200" y1="970" x2="-100" y2="970"/>
		<line fill="none" stroke="#825A46" stroke-width="0.285" stroke-miterlimit="10" x1="1200" y1="980" x2="-100" y2="980"/>
		<line fill="none" stroke="#825A46" stroke-width="0.285" stroke-miterlimit="10" x1="1200" y1="990" x2="-100" y2="990"/>
		<line fill="none" stroke="#825A46" stroke-width="0.285" stroke-miterlimit="10" x1="1200" y1="1000" x2="-100" y2="1000"/>
		<line fill="none" stroke="#825A46" stroke-width="0.285" stroke-miterlimit="10" x1="1200" y1="1010" x2="-100" y2="1010"/>
		<line fill="none" stroke="#825A46" stroke-width="0.285" stroke-miterlimit="10" x1="1200" y1="1020" x2="-100" y2="1020"/>
		<line fill="none" stroke="#825A46" stroke-width="0.285" stroke-miterlimit="10" x1="1200" y1="1030" x2="-100" y2="1030"/>
		<line fill="none" stroke="#825A46" stroke-width="0.285" stroke-miterlimit="10" x1="1200" y1="1040" x2="-100" y2="1040"/>
		<line fill="none" stroke="#825A46" stroke-width="0.285" stroke-miterlimit="10" x1="1200" y1="1050" x2="-100" y2="1050"/>
		<line fill="none" stroke="#825A46" stroke-width="0.285" stroke-miterlimit="10" x1="1200" y1="1060" x2="-100" y2="1060"/>
		<line fill="none" stroke="#825A46" stroke-width="0.285" stroke-miterlimit="10" x1="1200" y1="1070" x2="-100" y2="1070"/>
		<line fill="none" stroke="#825A46" stroke-width="0.285" stroke-miterlimit="10" x1="1200" y1="1080" x2="-100" y2="1080"/>
	</g>
</g>
<g>
	<rect x="1252" y="70" fill="#825A46" width="13" height="210"/>
	<rect x="1252" y="475.1" fill="#825A46" width="13" height="210"/>
	<rect x="1252" y="880" fill="#825A46" width="13" height="210"/>
</g>
<g>
	<rect x="940" fill="#825A46" width="273" height="10"/>
	<rect x="413.5" fill="#825A46" width="273" height="10"/>
	<rect x="-113" fill="#825A46" width="273" height="10"/>
</g>
<g>
	<rect x="940" y="1150" fill="#825A46" width="273" height="10"/>
	<rect x="413.5" y="1150" fill="#825A46" width="273" height="10"/>
	<rect x="-113" y="1150" fill="#825A46" width="273" height="10"/>
</g>
<polygon fill="#825A46" points="537,40 550,20 563,40 "/>
<polygon fill="#825A46" points="563,1120 550,1140 537,1120 "/>
<polygon fill="#825A46" points="1213,567.05 1239,579.994 1213,593.05 "/>
<g>
	<rect x="-165" y="70" fill="#825A46" width="13" height="210"/>
	<rect x="-165" y="475" fill="#825A46" width="13" height="210"/>
	<rect x="-165" y="880" fill="#825A46" width="13" height="210"/>
	<polygon fill="#825A46" points="-113,593.05 -139,579.994 -113,567.05 	"/>
</g>
<line fill="none" stroke="#825A46" stroke-width="3.1385" stroke-miterlimit="10" x1="550" y1="50" x2="550" y2="70"/>
<line fill="none" stroke="#825A46" stroke-width="3.1384" stroke-miterlimit="10" x1="561.305" y1="60" x2="538.696" y2="60"/>
<g>
	<line fill="none" stroke="#825A46" stroke-width="3.1384" stroke-miterlimit="10" x1="561.305" y1="1100" x2="538.696" y2="1100"/>
</g>
</svg>
