<?xml version="1.0" encoding="utf-8"?>
<!-- Generator: Adobe Illustrator 15.1.0, SVG Export Plug-In . SVG Version: 6.00 Build 0)  -->
<!DOCTYPE svg PUBLIC "-//W3C//DTD SVG 1.1//EN" "http://www.w3.org/Graphics/SVG/1.1/DTD/svg11.dtd">
<svg version="1.1" id="Calque_1" xmlns="http://www.w3.org/2000/svg" xmlns:xlink="http://www.w3.org/1999/xlink" x="0px" y="0px"
	 width="1330px" height="1330px" viewBox="0 0 1330 1330" enable-background="new 0 0 1330 1330" xml:space="preserve">
<rect fill="#FFFFFF" width="1330" height="1330"/>
<g>
	<g>
		<line fill="none" stroke="#162228" stroke-miterlimit="10" x1="65" y1="65" x2="65" y2="1265"/>
		<line fill="none" stroke="#162228" stroke-width="0.2739" stroke-miterlimit="10" x1="75" y1="65" x2="75" y2="1265"/>
		<line fill="none" stroke="#162228" stroke-width="0.2739" stroke-miterlimit="10" x1="85" y1="65" x2="85" y2="1265"/>
		<line fill="none" stroke="#162228" stroke-width="0.2739" stroke-miterlimit="10" x1="95" y1="65" x2="95" y2="1265"/>
		<line fill="none" stroke="#162228" stroke-width="0.2739" stroke-miterlimit="10" x1="105" y1="65" x2="105" y2="1265"/>
		<line fill="none" stroke="#162228" stroke-width="0.2739" stroke-miterlimit="10" x1="115" y1="65" x2="115" y2="1265"/>
		<line fill="none" stroke="#162228" stroke-width="0.2739" stroke-miterlimit="10" x1="125" y1="65" x2="125" y2="1265"/>
		<line fill="none" stroke="#162228" stroke-width="0.2739" stroke-miterlimit="10" x1="135" y1="65" x2="135" y2="1265"/>
		<line fill="none" stroke="#162228" stroke-width="0.2739" stroke-miterlimit="10" x1="145" y1="65" x2="145" y2="1265"/>
		<line fill="none" stroke="#162228" stroke-width="0.2739" stroke-miterlimit="10" x1="155" y1="65" x2="155" y2="1265"/>
		<line fill="none" stroke="#162228" stroke-width="1.0954" stroke-miterlimit="10" x1="165" y1="65" x2="165" y2="1265"/>
		<line fill="none" stroke="#162228" stroke-width="0.2739" stroke-miterlimit="10" x1="175" y1="65" x2="175" y2="1265"/>
		<line fill="none" stroke="#162228" stroke-width="0.2739" stroke-miterlimit="10" x1="185" y1="65" x2="185" y2="1265"/>
		<line fill="none" stroke="#162228" stroke-width="0.2739" stroke-miterlimit="10" x1="195" y1="65" x2="195" y2="1265"/>
		<line fill="none" stroke="#162228" stroke-width="0.2739" stroke-miterlimit="10" x1="205" y1="65" x2="205" y2="1265"/>
		<line fill="none" stroke="#162228" stroke-width="0.2739" stroke-miterlimit="10" x1="215" y1="65" x2="215" y2="1265"/>
		<line fill="none" stroke="#162228" stroke-width="0.2739" stroke-miterlimit="10" x1="225" y1="65" x2="225" y2="1265"/>
		<line fill="none" stroke="#162228" stroke-width="0.2739" stroke-miterlimit="10" x1="235" y1="65" x2="235" y2="1265"/>
		<line fill="none" stroke="#162228" stroke-width="0.2739" stroke-miterlimit="10" x1="245" y1="65" x2="245" y2="1265"/>
		<line fill="none" stroke="#162228" stroke-width="0.2739" stroke-miterlimit="10" x1="255" y1="65" x2="255" y2="1265"/>
		<line fill="none" stroke="#162228" stroke-width="1.0954" stroke-miterlimit="10" x1="265" y1="65" x2="265" y2="1265"/>
		<line fill="none" stroke="#162228" stroke-width="0.2739" stroke-miterlimit="10" x1="275" y1="65" x2="275" y2="1265"/>
		<line fill="none" stroke="#162228" stroke-width="0.2739" stroke-miterlimit="10" x1="285" y1="65" x2="285" y2="1265"/>
		<line fill="none" stroke="#162228" stroke-width="0.2739" stroke-miterlimit="10" x1="295" y1="65" x2="295" y2="1265"/>
		<line fill="none" stroke="#162228" stroke-width="0.2739" stroke-miterlimit="10" x1="305" y1="65" x2="305" y2="1265"/>
		<line fill="none" stroke="#162228" stroke-width="0.2739" stroke-miterlimit="10" x1="315" y1="65" x2="315" y2="1265"/>
		<line fill="none" stroke="#162228" stroke-width="0.2739" stroke-miterlimit="10" x1="325" y1="65" x2="325" y2="1265"/>
		<line fill="none" stroke="#162228" stroke-width="0.2739" stroke-miterlimit="10" x1="335" y1="65" x2="335" y2="1265"/>
		<line fill="none" stroke="#162228" stroke-width="0.2739" stroke-miterlimit="10" x1="345" y1="65" x2="345" y2="1265"/>
		<line fill="none" stroke="#162228" stroke-width="0.2739" stroke-miterlimit="10" x1="355" y1="65" x2="355" y2="1265"/>
		<line fill="none" stroke="#162228" stroke-width="1.0954" stroke-miterlimit="10" x1="365" y1="65" x2="365" y2="1265"/>
		<line fill="none" stroke="#162228" stroke-width="0.2739" stroke-miterlimit="10" x1="375" y1="65" x2="375" y2="1265"/>
		<line fill="none" stroke="#162228" stroke-width="0.2739" stroke-miterlimit="10" x1="385" y1="65" x2="385" y2="1265"/>
		<line fill="none" stroke="#162228" stroke-width="0.2739" stroke-miterlimit="10" x1="395" y1="65" x2="395" y2="1265"/>
		<line fill="none" stroke="#162228" stroke-width="0.2739" stroke-miterlimit="10" x1="405" y1="65" x2="405" y2="1265"/>
		<line fill="none" stroke="#162228" stroke-width="0.2739" stroke-miterlimit="10" x1="415" y1="65" x2="415" y2="1265"/>
		<line fill="none" stroke="#162228" stroke-width="0.2739" stroke-miterlimit="10" x1="425" y1="65" x2="425" y2="1265"/>
		<line fill="none" stroke="#162228" stroke-width="0.2739" stroke-miterlimit="10" x1="435" y1="65" x2="435" y2="1265"/>
		<line fill="none" stroke="#162228" stroke-width="0.2739" stroke-miterlimit="10" x1="445" y1="65" x2="445" y2="1265"/>
		<line fill="none" stroke="#162228" stroke-width="0.2739" stroke-miterlimit="10" x1="455" y1="65" x2="455" y2="1265"/>
		<line fill="none" stroke="#162228" stroke-width="1.0954" stroke-miterlimit="10" x1="465" y1="65" x2="465" y2="1265"/>
		<line fill="none" stroke="#162228" stroke-width="0.2739" stroke-miterlimit="10" x1="475" y1="65" x2="475" y2="1265"/>
		<line fill="none" stroke="#162228" stroke-width="0.2739" stroke-miterlimit="10" x1="485" y1="65" x2="485" y2="1265"/>
		<line fill="none" stroke="#162228" stroke-width="0.2739" stroke-miterlimit="10" x1="495" y1="65" x2="495" y2="1265"/>
		<line fill="none" stroke="#162228" stroke-width="0.2739" stroke-miterlimit="10" x1="505" y1="65" x2="505" y2="1265"/>
		<line fill="none" stroke="#162228" stroke-width="0.2739" stroke-miterlimit="10" x1="515" y1="65" x2="515" y2="1265"/>
		<line fill="none" stroke="#162228" stroke-width="0.2739" stroke-miterlimit="10" x1="525" y1="65" x2="525" y2="1265"/>
		<line fill="none" stroke="#162228" stroke-width="0.2739" stroke-miterlimit="10" x1="535" y1="65" x2="535" y2="1265"/>
		<line fill="none" stroke="#162228" stroke-width="0.2739" stroke-miterlimit="10" x1="545" y1="65" x2="545" y2="1265"/>
		<line fill="none" stroke="#162228" stroke-width="0.2739" stroke-miterlimit="10" x1="555" y1="65" x2="555" y2="1265"/>
		<line fill="none" stroke="#162228" stroke-width="1.0954" stroke-miterlimit="10" x1="565" y1="65" x2="565" y2="1265"/>
		<line fill="none" stroke="#162228" stroke-width="0.2739" stroke-miterlimit="10" x1="575" y1="65" x2="575" y2="1265"/>
		<line fill="none" stroke="#162228" stroke-width="0.2739" stroke-miterlimit="10" x1="585" y1="65" x2="585" y2="1265"/>
		<line fill="none" stroke="#162228" stroke-width="0.2739" stroke-miterlimit="10" x1="595" y1="65" x2="595" y2="1265"/>
		<line fill="none" stroke="#162228" stroke-width="0.2739" stroke-miterlimit="10" x1="605" y1="65" x2="605" y2="1265"/>
		<line fill="none" stroke="#162228" stroke-width="0.2739" stroke-miterlimit="10" x1="615" y1="65" x2="615" y2="1265"/>
		<line fill="none" stroke="#162228" stroke-width="0.2739" stroke-miterlimit="10" x1="625" y1="65" x2="625" y2="1265"/>
		<line fill="none" stroke="#162228" stroke-width="0.2739" stroke-miterlimit="10" x1="635" y1="65" x2="635" y2="1265"/>
		<line fill="none" stroke="#162228" stroke-width="0.2739" stroke-miterlimit="10" x1="645" y1="65" x2="645" y2="1265"/>
		<line fill="none" stroke="#162228" stroke-width="0.2739" stroke-miterlimit="10" x1="655" y1="65" x2="655" y2="1265"/>
		<line fill="none" stroke="#162228" stroke-width="1.095" stroke-miterlimit="10" x1="665" y1="1165" x2="665" y2="1265"/>
		<line fill="none" stroke="#162228" stroke-width="3" stroke-miterlimit="10" x1="665" y1="165" x2="665" y2="1165"/>
		<line fill="none" stroke="#162228" stroke-width="1.095" stroke-miterlimit="10" x1="665" y1="65" x2="665" y2="165"/>
		<line fill="none" stroke="#162228" stroke-width="0.2739" stroke-miterlimit="10" x1="675" y1="65" x2="675" y2="1265"/>
		<line fill="none" stroke="#162228" stroke-width="0.2739" stroke-miterlimit="10" x1="685" y1="65" x2="685" y2="1265"/>
		<line fill="none" stroke="#162228" stroke-width="0.2739" stroke-miterlimit="10" x1="695" y1="65" x2="695" y2="1265"/>
		<line fill="none" stroke="#162228" stroke-width="0.2739" stroke-miterlimit="10" x1="705" y1="65" x2="705" y2="1265"/>
		<line fill="none" stroke="#162228" stroke-width="0.2739" stroke-miterlimit="10" x1="715" y1="65" x2="715" y2="1265"/>
		<line fill="none" stroke="#162228" stroke-width="0.2739" stroke-miterlimit="10" x1="725" y1="65" x2="725" y2="1265"/>
		<line fill="none" stroke="#162228" stroke-width="0.2739" stroke-miterlimit="10" x1="735" y1="65" x2="735" y2="1265"/>
		<line fill="none" stroke="#162228" stroke-width="0.2739" stroke-miterlimit="10" x1="745" y1="65" x2="745" y2="1265"/>
		<line fill="none" stroke="#162228" stroke-width="0.2739" stroke-miterlimit="10" x1="755" y1="65" x2="755" y2="1265"/>
		<line fill="none" stroke="#162228" stroke-width="1.0954" stroke-miterlimit="10" x1="765" y1="65" x2="765" y2="1265"/>
		<line fill="none" stroke="#162228" stroke-width="0.2739" stroke-miterlimit="10" x1="775" y1="65" x2="775" y2="1265"/>
		<line fill="none" stroke="#162228" stroke-width="0.2739" stroke-miterlimit="10" x1="785" y1="65" x2="785" y2="1265"/>
		<line fill="none" stroke="#162228" stroke-width="0.2739" stroke-miterlimit="10" x1="795" y1="65" x2="795" y2="1265"/>
		<line fill="none" stroke="#162228" stroke-width="0.2739" stroke-miterlimit="10" x1="805" y1="65" x2="805" y2="1265"/>
		<line fill="none" stroke="#162228" stroke-width="0.2739" stroke-miterlimit="10" x1="815" y1="65" x2="815" y2="1265"/>
		<line fill="none" stroke="#162228" stroke-width="0.2739" stroke-miterlimit="10" x1="825" y1="65" x2="825" y2="1265"/>
		<line fill="none" stroke="#162228" stroke-width="0.2739" stroke-miterlimit="10" x1="835" y1="65" x2="835" y2="1265"/>
		<line fill="none" stroke="#162228" stroke-width="0.2739" stroke-miterlimit="10" x1="845" y1="65" x2="845" y2="1265"/>
		<line fill="none" stroke="#162228" stroke-width="0.2739" stroke-miterlimit="10" x1="855" y1="65" x2="855" y2="1265"/>
		<line fill="none" stroke="#162228" stroke-width="1.0954" stroke-miterlimit="10" x1="865" y1="65" x2="865" y2="1265"/>
		<line fill="none" stroke="#162228" stroke-width="0.2739" stroke-miterlimit="10" x1="875" y1="65" x2="875" y2="1265"/>
		<line fill="none" stroke="#162228" stroke-width="0.2739" stroke-miterlimit="10" x1="885" y1="65" x2="885" y2="1265"/>
		<line fill="none" stroke="#162228" stroke-width="0.2739" stroke-miterlimit="10" x1="895" y1="65" x2="895" y2="1265"/>
		<line fill="none" stroke="#162228" stroke-width="0.2739" stroke-miterlimit="10" x1="905" y1="65" x2="905" y2="1265"/>
		<line fill="none" stroke="#162228" stroke-width="0.2739" stroke-miterlimit="10" x1="915" y1="65" x2="915" y2="1265"/>
		<line fill="none" stroke="#162228" stroke-width="0.2739" stroke-miterlimit="10" x1="925" y1="65" x2="925" y2="1265"/>
		<line fill="none" stroke="#162228" stroke-width="0.2739" stroke-miterlimit="10" x1="935" y1="65" x2="935" y2="1265"/>
		<line fill="none" stroke="#162228" stroke-width="0.2739" stroke-miterlimit="10" x1="945" y1="65" x2="945" y2="1265"/>
		<line fill="none" stroke="#162228" stroke-width="0.2739" stroke-miterlimit="10" x1="955" y1="65" x2="955" y2="1265"/>
		<line fill="none" stroke="#162228" stroke-width="1.0954" stroke-miterlimit="10" x1="965" y1="65" x2="965" y2="1265"/>
		<line fill="none" stroke="#162228" stroke-width="0.2739" stroke-miterlimit="10" x1="975" y1="65" x2="975" y2="1265"/>
		<line fill="none" stroke="#162228" stroke-width="0.2739" stroke-miterlimit="10" x1="985" y1="65" x2="985" y2="1265"/>
		<line fill="none" stroke="#162228" stroke-width="0.2739" stroke-miterlimit="10" x1="995" y1="65" x2="995" y2="1265"/>
		<line fill="none" stroke="#162228" stroke-width="0.2739" stroke-miterlimit="10" x1="1005" y1="65" x2="1005" y2="1265"/>
		<line fill="none" stroke="#162228" stroke-width="0.2739" stroke-miterlimit="10" x1="1015" y1="65" x2="1015" y2="1265"/>
		<line fill="none" stroke="#162228" stroke-width="0.2739" stroke-miterlimit="10" x1="1025" y1="65" x2="1025" y2="1265"/>
		<line fill="none" stroke="#162228" stroke-width="0.2739" stroke-miterlimit="10" x1="1035" y1="65" x2="1035" y2="1265"/>
		<line fill="none" stroke="#162228" stroke-width="0.2739" stroke-miterlimit="10" x1="1045" y1="65" x2="1045" y2="1265"/>
		<line fill="none" stroke="#162228" stroke-width="0.2739" stroke-miterlimit="10" x1="1055" y1="65" x2="1055" y2="1265"/>
		<line fill="none" stroke="#162228" stroke-width="1.0954" stroke-miterlimit="10" x1="1065" y1="65" x2="1065" y2="1265"/>
		<line fill="none" stroke="#162228" stroke-width="1.0954" stroke-miterlimit="10" x1="1165" y1="65" x2="1165" y2="1265"/>
		<line fill="none" stroke="#162228" stroke-width="0.2739" stroke-miterlimit="10" x1="1075" y1="65" x2="1075" y2="1265"/>
		<line fill="none" stroke="#162228" stroke-width="0.2739" stroke-miterlimit="10" x1="1085" y1="65" x2="1085" y2="1265"/>
		<line fill="none" stroke="#162228" stroke-width="0.2739" stroke-miterlimit="10" x1="1095" y1="65" x2="1095" y2="1265"/>
		<line fill="none" stroke="#162228" stroke-width="0.2739" stroke-miterlimit="10" x1="1105" y1="65" x2="1105" y2="1265"/>
		<line fill="none" stroke="#162228" stroke-width="0.2739" stroke-miterlimit="10" x1="1115" y1="65" x2="1115" y2="1265"/>
		<line fill="none" stroke="#162228" stroke-width="0.2739" stroke-miterlimit="10" x1="1125" y1="65" x2="1125" y2="1265"/>
		<line fill="none" stroke="#162228" stroke-width="0.2739" stroke-miterlimit="10" x1="1135" y1="65" x2="1135" y2="1265"/>
		<line fill="none" stroke="#162228" stroke-width="0.2739" stroke-miterlimit="10" x1="1145" y1="65" x2="1145" y2="1265"/>
		<line fill="none" stroke="#162228" stroke-width="0.2739" stroke-miterlimit="10" x1="1155" y1="65" x2="1155" y2="1265"/>
		<line fill="none" stroke="#162228" stroke-width="1.0954" stroke-miterlimit="10" x1="1265" y1="65" x2="1265" y2="1265"/>
		<line fill="none" stroke="#162228" stroke-width="0.2739" stroke-miterlimit="10" x1="1175" y1="65" x2="1175" y2="1265"/>
		<line fill="none" stroke="#162228" stroke-width="0.2739" stroke-miterlimit="10" x1="1185" y1="65" x2="1185" y2="1265"/>
		<line fill="none" stroke="#162228" stroke-width="0.2739" stroke-miterlimit="10" x1="1195" y1="65" x2="1195" y2="1265"/>
		<line fill="none" stroke="#162228" stroke-width="0.2739" stroke-miterlimit="10" x1="1205" y1="65" x2="1205" y2="1265"/>
		<line fill="none" stroke="#162228" stroke-width="0.2739" stroke-miterlimit="10" x1="1215" y1="65" x2="1215" y2="1265"/>
		<line fill="none" stroke="#162228" stroke-width="0.2739" stroke-miterlimit="10" x1="1225" y1="65" x2="1225" y2="1265"/>
		<line fill="none" stroke="#162228" stroke-width="0.2739" stroke-miterlimit="10" x1="1235" y1="65" x2="1235" y2="1265"/>
		<line fill="none" stroke="#162228" stroke-width="0.2739" stroke-miterlimit="10" x1="1245" y1="65" x2="1245" y2="1265"/>
		<line fill="none" stroke="#162228" stroke-width="0.2739" stroke-miterlimit="10" x1="1255" y1="65" x2="1255" y2="1265"/>
	</g>
	<g>
		<line fill="none" stroke="#162228" stroke-miterlimit="10" x1="1265" y1="65" x2="65" y2="65"/>
		<line fill="none" stroke="#162228" stroke-width="0.2739" stroke-miterlimit="10" x1="1265" y1="75" x2="65" y2="75"/>
		<line fill="none" stroke="#162228" stroke-width="0.2739" stroke-miterlimit="10" x1="1265" y1="85" x2="65" y2="85"/>
		<line fill="none" stroke="#162228" stroke-width="0.2739" stroke-miterlimit="10" x1="1265" y1="95" x2="65" y2="95"/>
		<line fill="none" stroke="#162228" stroke-width="0.2739" stroke-miterlimit="10" x1="1265" y1="105" x2="65" y2="105"/>
		<line fill="none" stroke="#162228" stroke-width="0.2739" stroke-miterlimit="10" x1="1265" y1="115" x2="65" y2="115"/>
		<line fill="none" stroke="#162228" stroke-width="0.2739" stroke-miterlimit="10" x1="1265" y1="125" x2="65" y2="125"/>
		<line fill="none" stroke="#162228" stroke-width="0.2739" stroke-miterlimit="10" x1="1265" y1="135" x2="65" y2="135"/>
		<line fill="none" stroke="#162228" stroke-width="0.2739" stroke-miterlimit="10" x1="1265" y1="145" x2="65" y2="145"/>
		<line fill="none" stroke="#162228" stroke-width="0.2739" stroke-miterlimit="10" x1="1265" y1="155" x2="65" y2="155"/>
		<line fill="none" stroke="#162228" stroke-miterlimit="10" x1="1265" y1="165" x2="65" y2="165"/>
		<line fill="none" stroke="#162228" stroke-width="0.2739" stroke-miterlimit="10" x1="1265" y1="175" x2="65" y2="175"/>
		<line fill="none" stroke="#162228" stroke-width="0.2739" stroke-miterlimit="10" x1="1265" y1="185" x2="65" y2="185"/>
		<line fill="none" stroke="#162228" stroke-width="0.2739" stroke-miterlimit="10" x1="1265" y1="195" x2="65" y2="195"/>
		<line fill="none" stroke="#162228" stroke-width="0.2739" stroke-miterlimit="10" x1="1265" y1="205" x2="65" y2="205"/>
		<line fill="none" stroke="#162228" stroke-width="0.2739" stroke-miterlimit="10" x1="1265" y1="215" x2="65" y2="215"/>
		<line fill="none" stroke="#162228" stroke-width="0.2739" stroke-miterlimit="10" x1="1265" y1="225" x2="65" y2="225"/>
		<line fill="none" stroke="#162228" stroke-width="0.2739" stroke-miterlimit="10" x1="1265" y1="235" x2="65" y2="235"/>
		<line fill="none" stroke="#162228" stroke-width="0.2739" stroke-miterlimit="10" x1="1265" y1="245" x2="65" y2="245"/>
		<line fill="none" stroke="#162228" stroke-width="0.2739" stroke-miterlimit="10" x1="1265" y1="255" x2="65" y2="255"/>
		<line fill="none" stroke="#162228" stroke-miterlimit="10" x1="1265" y1="265" x2="65" y2="265"/>
		<line fill="none" stroke="#162228" stroke-width="0.2739" stroke-miterlimit="10" x1="1265" y1="275" x2="65" y2="275"/>
		<line fill="none" stroke="#162228" stroke-width="0.2739" stroke-miterlimit="10" x1="1265" y1="285" x2="65" y2="285"/>
		<line fill="none" stroke="#162228" stroke-width="0.2739" stroke-miterlimit="10" x1="1265" y1="295" x2="65" y2="295"/>
		<line fill="none" stroke="#162228" stroke-width="0.2739" stroke-miterlimit="10" x1="1265" y1="305" x2="65" y2="305"/>
		<line fill="none" stroke="#162228" stroke-width="0.2739" stroke-miterlimit="10" x1="1265" y1="315" x2="65" y2="315"/>
		<line fill="none" stroke="#162228" stroke-width="0.2739" stroke-miterlimit="10" x1="1265" y1="325" x2="65" y2="325"/>
		<line fill="none" stroke="#162228" stroke-width="0.2739" stroke-miterlimit="10" x1="1265" y1="335" x2="65" y2="335"/>
		<line fill="none" stroke="#162228" stroke-width="0.2739" stroke-miterlimit="10" x1="1265" y1="345" x2="65" y2="345"/>
		<line fill="none" stroke="#162228" stroke-width="0.2739" stroke-miterlimit="10" x1="1265" y1="355" x2="65" y2="355"/>
		<line fill="none" stroke="#162228" stroke-miterlimit="10" x1="1265" y1="365" x2="65" y2="365"/>
		<line fill="none" stroke="#162228" stroke-width="0.2739" stroke-miterlimit="10" x1="1265" y1="375" x2="65" y2="375"/>
		<line fill="none" stroke="#162228" stroke-width="0.2739" stroke-miterlimit="10" x1="1265" y1="385" x2="65" y2="385"/>
		<line fill="none" stroke="#162228" stroke-width="0.2739" stroke-miterlimit="10" x1="1265" y1="395" x2="65" y2="395"/>
		<line fill="none" stroke="#162228" stroke-width="0.2739" stroke-miterlimit="10" x1="1265" y1="405" x2="65" y2="405"/>
		<line fill="none" stroke="#162228" stroke-width="0.2739" stroke-miterlimit="10" x1="1265" y1="415" x2="65" y2="415"/>
		<line fill="none" stroke="#162228" stroke-width="0.2739" stroke-miterlimit="10" x1="1265" y1="425" x2="65" y2="425"/>
		<line fill="none" stroke="#162228" stroke-width="0.2739" stroke-miterlimit="10" x1="1265" y1="435" x2="65" y2="435"/>
		<line fill="none" stroke="#162228" stroke-width="0.2739" stroke-miterlimit="10" x1="1265" y1="445" x2="65" y2="445"/>
		<line fill="none" stroke="#162228" stroke-width="0.2739" stroke-miterlimit="10" x1="1265" y1="455" x2="65" y2="455"/>
		<line fill="none" stroke="#162228" stroke-miterlimit="10" x1="1265" y1="465" x2="65" y2="465"/>
		<line fill="none" stroke="#162228" stroke-width="0.2739" stroke-miterlimit="10" x1="1265" y1="475" x2="65" y2="475"/>
		<line fill="none" stroke="#162228" stroke-width="0.2739" stroke-miterlimit="10" x1="1265" y1="485" x2="65" y2="485"/>
		<line fill="none" stroke="#162228" stroke-width="0.2739" stroke-miterlimit="10" x1="1265" y1="495" x2="65" y2="495"/>
		<line fill="none" stroke="#162228" stroke-width="0.2739" stroke-miterlimit="10" x1="1265" y1="505" x2="65" y2="505"/>
		<line fill="none" stroke="#162228" stroke-width="0.2739" stroke-miterlimit="10" x1="1265" y1="515" x2="65" y2="515"/>
		<line fill="none" stroke="#162228" stroke-width="0.2739" stroke-miterlimit="10" x1="1265" y1="525" x2="65" y2="525"/>
		<line fill="none" stroke="#162228" stroke-width="0.2739" stroke-miterlimit="10" x1="1265" y1="535" x2="65" y2="535"/>
		<line fill="none" stroke="#162228" stroke-width="0.2739" stroke-miterlimit="10" x1="1265" y1="545" x2="65" y2="545"/>
		<line fill="none" stroke="#162228" stroke-width="0.2739" stroke-miterlimit="10" x1="1265" y1="555" x2="65" y2="555"/>
		<line fill="none" stroke="#162228" stroke-miterlimit="10" x1="1265" y1="565" x2="65" y2="565"/>
		<line fill="none" stroke="#162228" stroke-width="0.2739" stroke-miterlimit="10" x1="1265" y1="575" x2="65" y2="575"/>
		<line fill="none" stroke="#162228" stroke-width="0.2739" stroke-miterlimit="10" x1="1265" y1="585" x2="65" y2="585"/>
		<line fill="none" stroke="#162228" stroke-width="0.2739" stroke-miterlimit="10" x1="1265" y1="595" x2="65" y2="595"/>
		<line fill="none" stroke="#162228" stroke-width="0.2739" stroke-miterlimit="10" x1="1265" y1="605" x2="65" y2="605"/>
		<line fill="none" stroke="#162228" stroke-width="0.2739" stroke-miterlimit="10" x1="1265" y1="615" x2="65" y2="615"/>
		<line fill="none" stroke="#162228" stroke-width="0.2739" stroke-miterlimit="10" x1="1265" y1="625" x2="65" y2="625"/>
		<line fill="none" stroke="#162228" stroke-width="0.2739" stroke-miterlimit="10" x1="1265" y1="635" x2="65" y2="635"/>
		<line fill="none" stroke="#162228" stroke-width="0.2739" stroke-miterlimit="10" x1="1265" y1="645" x2="65" y2="645"/>
		<line fill="none" stroke="#162228" stroke-width="0.2739" stroke-miterlimit="10" x1="1265" y1="655" x2="65" y2="655"/>
		<line fill="none" stroke="#162228" stroke-width="1.095" stroke-miterlimit="10" x1="165" y1="665" x2="65" y2="665"/>
		<line fill="none" stroke="#162228" stroke-width="3" stroke-miterlimit="10" x1="1165" y1="665" x2="165" y2="665"/>
		<line fill="none" stroke="#162228" stroke-width="1.095" stroke-miterlimit="10" x1="1265" y1="665" x2="1165" y2="665"/>
		<line fill="none" stroke="#162228" stroke-width="0.2739" stroke-miterlimit="10" x1="1265" y1="675" x2="65" y2="675"/>
		<line fill="none" stroke="#162228" stroke-width="0.2739" stroke-miterlimit="10" x1="1265" y1="685" x2="65" y2="685"/>
		<line fill="none" stroke="#162228" stroke-width="0.2739" stroke-miterlimit="10" x1="1265" y1="695" x2="65" y2="695"/>
		<line fill="none" stroke="#162228" stroke-width="0.2739" stroke-miterlimit="10" x1="1265" y1="705" x2="65" y2="705"/>
		<line fill="none" stroke="#162228" stroke-width="0.2739" stroke-miterlimit="10" x1="1265" y1="715" x2="65" y2="715"/>
		<line fill="none" stroke="#162228" stroke-width="0.2739" stroke-miterlimit="10" x1="1265" y1="725" x2="65" y2="725"/>
		<line fill="none" stroke="#162228" stroke-width="0.2739" stroke-miterlimit="10" x1="1265" y1="735" x2="65" y2="735"/>
		<line fill="none" stroke="#162228" stroke-width="0.2739" stroke-miterlimit="10" x1="1265" y1="745" x2="65" y2="745"/>
		<line fill="none" stroke="#162228" stroke-width="0.2739" stroke-miterlimit="10" x1="1265" y1="755" x2="65" y2="755"/>
		<line fill="none" stroke="#162228" stroke-miterlimit="10" x1="1265" y1="765" x2="65" y2="765"/>
		<line fill="none" stroke="#162228" stroke-width="0.2739" stroke-miterlimit="10" x1="1265" y1="775" x2="65" y2="775"/>
		<line fill="none" stroke="#162228" stroke-width="0.2739" stroke-miterlimit="10" x1="1265" y1="785" x2="65" y2="785"/>
		<line fill="none" stroke="#162228" stroke-width="0.2739" stroke-miterlimit="10" x1="1265" y1="795" x2="65" y2="795"/>
		<line fill="none" stroke="#162228" stroke-width="0.2739" stroke-miterlimit="10" x1="1265" y1="805" x2="65" y2="805"/>
		<line fill="none" stroke="#162228" stroke-width="0.2739" stroke-miterlimit="10" x1="1265" y1="815" x2="65" y2="815"/>
		<line fill="none" stroke="#162228" stroke-width="0.2739" stroke-miterlimit="10" x1="1265" y1="825" x2="65" y2="825"/>
		<line fill="none" stroke="#162228" stroke-width="0.2739" stroke-miterlimit="10" x1="1265" y1="835" x2="65" y2="835"/>
		<line fill="none" stroke="#162228" stroke-width="0.2739" stroke-miterlimit="10" x1="1265" y1="845" x2="65" y2="845"/>
		<line fill="none" stroke="#162228" stroke-width="0.2739" stroke-miterlimit="10" x1="1265" y1="855" x2="65" y2="855"/>
		<line fill="none" stroke="#162228" stroke-miterlimit="10" x1="1265" y1="865" x2="65" y2="865"/>
		<line fill="none" stroke="#162228" stroke-width="0.2739" stroke-miterlimit="10" x1="1265" y1="875" x2="65" y2="875"/>
		<line fill="none" stroke="#162228" stroke-width="0.2739" stroke-miterlimit="10" x1="1265" y1="885" x2="65" y2="885"/>
		<line fill="none" stroke="#162228" stroke-width="0.2739" stroke-miterlimit="10" x1="1265" y1="895" x2="65" y2="895"/>
		<line fill="none" stroke="#162228" stroke-width="0.2739" stroke-miterlimit="10" x1="1265" y1="905" x2="65" y2="905"/>
		<line fill="none" stroke="#162228" stroke-width="0.2739" stroke-miterlimit="10" x1="1265" y1="915" x2="65" y2="915"/>
		<line fill="none" stroke="#162228" stroke-width="0.2739" stroke-miterlimit="10" x1="1265" y1="925" x2="65" y2="925"/>
		<line fill="none" stroke="#162228" stroke-width="0.2739" stroke-miterlimit="10" x1="1265" y1="935" x2="65" y2="935"/>
		<line fill="none" stroke="#162228" stroke-width="0.2739" stroke-miterlimit="10" x1="1265" y1="945" x2="65" y2="945"/>
		<line fill="none" stroke="#162228" stroke-width="0.2739" stroke-miterlimit="10" x1="1265" y1="955" x2="65" y2="955"/>
		<line fill="none" stroke="#162228" stroke-miterlimit="10" x1="1265" y1="965" x2="65" y2="965"/>
		<line fill="none" stroke="#162228" stroke-width="0.2739" stroke-miterlimit="10" x1="1265" y1="975" x2="65" y2="975"/>
		<line fill="none" stroke="#162228" stroke-width="0.2739" stroke-miterlimit="10" x1="1265" y1="985" x2="65" y2="985"/>
		<line fill="none" stroke="#162228" stroke-width="0.2739" stroke-miterlimit="10" x1="1265" y1="995" x2="65" y2="995"/>
		<line fill="none" stroke="#162228" stroke-width="0.2739" stroke-miterlimit="10" x1="1265" y1="1005" x2="65" y2="1005"/>
		<line fill="none" stroke="#162228" stroke-width="0.2739" stroke-miterlimit="10" x1="1265" y1="1015" x2="65" y2="1015"/>
		<line fill="none" stroke="#162228" stroke-width="0.2739" stroke-miterlimit="10" x1="1265" y1="1025" x2="65" y2="1025"/>
		<line fill="none" stroke="#162228" stroke-width="0.2739" stroke-miterlimit="10" x1="1265" y1="1035" x2="65" y2="1035"/>
		<line fill="none" stroke="#162228" stroke-width="0.2739" stroke-miterlimit="10" x1="1265" y1="1045" x2="65" y2="1045"/>
		<line fill="none" stroke="#162228" stroke-width="0.2739" stroke-miterlimit="10" x1="1265" y1="1055" x2="65" y2="1055"/>
		<line fill="none" stroke="#162228" stroke-miterlimit="10" x1="1265" y1="1065" x2="65" y2="1065"/>
		<line fill="none" stroke="#162228" stroke-width="0.2739" stroke-miterlimit="10" x1="1265" y1="1075" x2="65" y2="1075"/>
		<line fill="none" stroke="#162228" stroke-width="0.2739" stroke-miterlimit="10" x1="1265" y1="1085" x2="65" y2="1085"/>
		<line fill="none" stroke="#162228" stroke-width="0.2739" stroke-miterlimit="10" x1="1265" y1="1095" x2="65" y2="1095"/>
		<line fill="none" stroke="#162228" stroke-width="0.2739" stroke-miterlimit="10" x1="1265" y1="1105" x2="65" y2="1105"/>
		<line fill="none" stroke="#162228" stroke-width="0.2739" stroke-miterlimit="10" x1="1265" y1="1115" x2="65" y2="1115"/>
		<line fill="none" stroke="#162228" stroke-width="0.2739" stroke-miterlimit="10" x1="1265" y1="1125" x2="65" y2="1125"/>
		<line fill="none" stroke="#162228" stroke-width="0.2739" stroke-miterlimit="10" x1="1265" y1="1135" x2="65" y2="1135"/>
		<line fill="none" stroke="#162228" stroke-width="0.2739" stroke-miterlimit="10" x1="1265" y1="1145" x2="65" y2="1145"/>
		<line fill="none" stroke="#162228" stroke-width="0.2739" stroke-miterlimit="10" x1="1265" y1="1155" x2="65" y2="1155"/>
		<line fill="none" stroke="#162228" stroke-miterlimit="10" x1="1265" y1="1165" x2="65" y2="1165"/>
		<line fill="none" stroke="#162228" stroke-width="0.2739" stroke-miterlimit="10" x1="1265" y1="1175" x2="65" y2="1175"/>
		<line fill="none" stroke="#162228" stroke-width="0.2739" stroke-miterlimit="10" x1="1265" y1="1185" x2="65" y2="1185"/>
		<line fill="none" stroke="#162228" stroke-width="0.2739" stroke-miterlimit="10" x1="1265" y1="1195" x2="65" y2="1195"/>
		<line fill="none" stroke="#162228" stroke-width="0.2739" stroke-miterlimit="10" x1="1265" y1="1205" x2="65" y2="1205"/>
		<line fill="none" stroke="#162228" stroke-width="0.2739" stroke-miterlimit="10" x1="1265" y1="1215" x2="65" y2="1215"/>
		<line fill="none" stroke="#162228" stroke-width="0.2739" stroke-miterlimit="10" x1="1265" y1="1225" x2="65" y2="1225"/>
		<line fill="none" stroke="#162228" stroke-width="0.2739" stroke-miterlimit="10" x1="1265" y1="1235" x2="65" y2="1235"/>
		<line fill="none" stroke="#162228" stroke-width="0.2739" stroke-miterlimit="10" x1="1265" y1="1245" x2="65" y2="1245"/>
		<line fill="none" stroke="#162228" stroke-width="0.2739" stroke-miterlimit="10" x1="1265" y1="1255" x2="65" y2="1255"/>
		<line fill="none" stroke="#162228" stroke-miterlimit="10" x1="1265" y1="1265" x2="65" y2="1265"/>
	</g>
</g>
<polygon fill="#162228" points="1305,653.5 1325,665 1305,676.6 "/>
<g>
	<g>
		<rect x="5" y="1165" fill="none" width="10.667" height="160"/>
	</g>
	<g>
		<rect x="1314.336" y="1165" fill="none" width="10.664" height="160"/>
	</g>
	<g>
		<rect x="5" y="1314.336" fill="none" width="160" height="10.664"/>
	</g>
	<g>
		<rect x="1165" y="1314.336" fill="none" width="160" height="10.664"/>
	</g>
	<g>
		<g>
			<rect x="1314.846" y="5" fill="none" width="10.154" height="160"/>
		</g>
		<g>
			<rect x="5" y="5" fill="none" width="10.154" height="160"/>
		</g>
		<g>
			<rect x="1172.692" y="5" fill="none" width="152.308" height="10.667"/>
		</g>
		<g>
			<rect x="5" y="5" fill="none" width="152.308" height="10.667"/>
		</g>
	</g>
</g>
<polygon fill="#162228" points="25,676.6 5,665 25,653.5 "/>
<g>
	<polygon fill="#162228" points="653.5,25 665,5 676.5,25 	"/>
	<line fill="none" stroke="#162228" stroke-width="2.9519" stroke-miterlimit="10" x1="665" y1="35" x2="665" y2="55"/>
	<line fill="none" stroke="#162228" stroke-width="2.9518" stroke-miterlimit="10" x1="675" y1="45" x2="655" y2="45"/>
</g>
<g>
	<polygon fill="#162228" points="676.5,1305 665,1325 653.5,1305 	"/>
	<g>
		<line fill="none" stroke="#162228" stroke-width="2.9518" stroke-miterlimit="10" x1="675" y1="1285" x2="655" y2="1285"/>
	</g>
</g>
</svg>
