<?xml version="1.0" encoding="utf-8"?>
<!-- Generator: Adobe Illustrator 15.1.0, SVG Export Plug-In . SVG Version: 6.00 Build 0)  -->
<!DOCTYPE svg PUBLIC "-//W3C//DTD SVG 1.1//EN" "http://www.w3.org/Graphics/SVG/1.1/DTD/svg11.dtd">
<svg version="1.1" id="Calque_1" xmlns="http://www.w3.org/2000/svg" xmlns:xlink="http://www.w3.org/1999/xlink" x="0px" y="0px"
	 width="1660px" height="1330px" viewBox="0 0 1660 1330" enable-background="new 0 0 1660 1330" xml:space="preserve">
<rect fill="#FFFFFF" width="1660" height="1330"/>
<g>
	<rect fill="#FFFFFF" width="1660" height="1330"/>
	<g>
		<g>
			<line fill="none" stroke="#162228" stroke-width="1.117" stroke-miterlimit="10" x1="81.128" y1="65" x2="81.128" y2="1265"/>
			<line fill="none" stroke="#162228" stroke-width="0.306" stroke-miterlimit="10" x1="93.609" y1="65" x2="93.609" y2="1265"/>
			<line fill="none" stroke="#162228" stroke-width="0.306" stroke-miterlimit="10" x1="106.09" y1="65" x2="106.09" y2="1265"/>
			<line fill="none" stroke="#162228" stroke-width="0.306" stroke-miterlimit="10" x1="118.571" y1="65" x2="118.571" y2="1265"/>
			<line fill="none" stroke="#162228" stroke-width="0.306" stroke-miterlimit="10" x1="131.053" y1="65" x2="131.053" y2="1265"/>
			<line fill="none" stroke="#162228" stroke-width="0.306" stroke-miterlimit="10" x1="143.534" y1="65" x2="143.534" y2="1265"/>
			<line fill="none" stroke="#162228" stroke-width="0.306" stroke-miterlimit="10" x1="156.015" y1="65" x2="156.015" y2="1265"/>
			<line fill="none" stroke="#162228" stroke-width="0.306" stroke-miterlimit="10" x1="168.496" y1="65" x2="168.496" y2="1265"/>
			<line fill="none" stroke="#162228" stroke-width="0.306" stroke-miterlimit="10" x1="180.978" y1="65" x2="180.978" y2="1265"/>
			<line fill="none" stroke="#162228" stroke-width="0.306" stroke-miterlimit="10" x1="193.458" y1="65" x2="193.458" y2="1265"/>
			<line fill="none" stroke="#162228" stroke-width="1.2238" stroke-miterlimit="10" x1="205.94" y1="65" x2="205.94" y2="1265"/>
			<line fill="none" stroke="#162228" stroke-width="0.306" stroke-miterlimit="10" x1="218.421" y1="65" x2="218.421" y2="1265"/>
			<line fill="none" stroke="#162228" stroke-width="0.306" stroke-miterlimit="10" x1="230.902" y1="65" x2="230.902" y2="1265"/>
			<line fill="none" stroke="#162228" stroke-width="0.306" stroke-miterlimit="10" x1="243.383" y1="65" x2="243.383" y2="1265"/>
			<line fill="none" stroke="#162228" stroke-width="0.306" stroke-miterlimit="10" x1="255.865" y1="65" x2="255.865" y2="1265"/>
			<line fill="none" stroke="#162228" stroke-width="0.306" stroke-miterlimit="10" x1="268.346" y1="65" x2="268.346" y2="1265"/>
			<line fill="none" stroke="#162228" stroke-width="0.306" stroke-miterlimit="10" x1="280.827" y1="65" x2="280.827" y2="1265"/>
			<line fill="none" stroke="#162228" stroke-width="0.306" stroke-miterlimit="10" x1="293.308" y1="65" x2="293.308" y2="1265"/>
			<line fill="none" stroke="#162228" stroke-width="0.306" stroke-miterlimit="10" x1="305.79" y1="65" x2="305.79" y2="1265"/>
			<line fill="none" stroke="#162228" stroke-width="0.306" stroke-miterlimit="10" x1="318.271" y1="65" x2="318.271" y2="1265"/>
			<line fill="none" stroke="#162228" stroke-width="1.2238" stroke-miterlimit="10" x1="330.752" y1="65" x2="330.752" y2="1265"/>
			<line fill="none" stroke="#162228" stroke-width="0.306" stroke-miterlimit="10" x1="343.233" y1="65" x2="343.233" y2="1265"/>
			<line fill="none" stroke="#162228" stroke-width="0.306" stroke-miterlimit="10" x1="355.714" y1="65" x2="355.714" y2="1265"/>
			<line fill="none" stroke="#162228" stroke-width="0.306" stroke-miterlimit="10" x1="368.195" y1="65" x2="368.195" y2="1265"/>
			<line fill="none" stroke="#162228" stroke-width="0.306" stroke-miterlimit="10" x1="380.677" y1="65" x2="380.677" y2="1265"/>
			<line fill="none" stroke="#162228" stroke-width="0.306" stroke-miterlimit="10" x1="393.158" y1="65" x2="393.158" y2="1265"/>
			<line fill="none" stroke="#162228" stroke-width="0.306" stroke-miterlimit="10" x1="405.639" y1="65" x2="405.639" y2="1265"/>
			<line fill="none" stroke="#162228" stroke-width="0.306" stroke-miterlimit="10" x1="418.12" y1="65" x2="418.12" y2="1265"/>
			<line fill="none" stroke="#162228" stroke-width="0.306" stroke-miterlimit="10" x1="430.602" y1="65" x2="430.602" y2="1265"/>
			<line fill="none" stroke="#162228" stroke-width="0.306" stroke-miterlimit="10" x1="443.083" y1="65" x2="443.083" y2="1265"/>
			<line fill="none" stroke="#162228" stroke-width="1.2238" stroke-miterlimit="10" x1="455.564" y1="65" x2="455.564" y2="1265"/>
			<line fill="none" stroke="#162228" stroke-width="0.306" stroke-miterlimit="10" x1="468.045" y1="65" x2="468.045" y2="1265"/>
			<line fill="none" stroke="#162228" stroke-width="0.306" stroke-miterlimit="10" x1="480.526" y1="65" x2="480.526" y2="1265"/>
			<line fill="none" stroke="#162228" stroke-width="0.306" stroke-miterlimit="10" x1="493.007" y1="65" x2="493.007" y2="1265"/>
			<line fill="none" stroke="#162228" stroke-width="0.306" stroke-miterlimit="10" x1="505.489" y1="65" x2="505.489" y2="1265"/>
			<line fill="none" stroke="#162228" stroke-width="0.306" stroke-miterlimit="10" x1="517.97" y1="65" x2="517.97" y2="1265"/>
			<line fill="none" stroke="#162228" stroke-width="0.306" stroke-miterlimit="10" x1="530.451" y1="65" x2="530.451" y2="1265"/>
			<line fill="none" stroke="#162228" stroke-width="0.306" stroke-miterlimit="10" x1="542.932" y1="65" x2="542.932" y2="1265"/>
			<line fill="none" stroke="#162228" stroke-width="0.306" stroke-miterlimit="10" x1="555.414" y1="65" x2="555.414" y2="1265"/>
			<line fill="none" stroke="#162228" stroke-width="0.306" stroke-miterlimit="10" x1="567.895" y1="65" x2="567.895" y2="1265"/>
			<line fill="none" stroke="#162228" stroke-width="1.2238" stroke-miterlimit="10" x1="580.376" y1="65" x2="580.376" y2="1265"/>
			<line fill="none" stroke="#162228" stroke-width="0.306" stroke-miterlimit="10" x1="592.857" y1="65" x2="592.857" y2="1265"/>
			<line fill="none" stroke="#162228" stroke-width="0.306" stroke-miterlimit="10" x1="605.338" y1="65" x2="605.338" y2="1265"/>
			<line fill="none" stroke="#162228" stroke-width="0.306" stroke-miterlimit="10" x1="617.819" y1="65" x2="617.819" y2="1265"/>
			<line fill="none" stroke="#162228" stroke-width="0.306" stroke-miterlimit="10" x1="630.301" y1="65" x2="630.301" y2="1265"/>
			<line fill="none" stroke="#162228" stroke-width="0.306" stroke-miterlimit="10" x1="642.782" y1="65" x2="642.782" y2="1265"/>
			<line fill="none" stroke="#162228" stroke-width="0.306" stroke-miterlimit="10" x1="655.263" y1="65" x2="655.263" y2="1265"/>
			<line fill="none" stroke="#162228" stroke-width="0.306" stroke-miterlimit="10" x1="667.745" y1="65" x2="667.745" y2="1265"/>
			<line fill="none" stroke="#162228" stroke-width="0.306" stroke-miterlimit="10" x1="680.226" y1="65" x2="680.226" y2="1265"/>
			<line fill="none" stroke="#162228" stroke-width="0.306" stroke-miterlimit="10" x1="692.707" y1="65" x2="692.707" y2="1265"/>
			<line fill="none" stroke="#162228" stroke-width="1.2238" stroke-miterlimit="10" x1="705.188" y1="65" x2="705.188" y2="1265"/>
			<line fill="none" stroke="#162228" stroke-width="0.306" stroke-miterlimit="10" x1="717.669" y1="65" x2="717.669" y2="1265"/>
			<line fill="none" stroke="#162228" stroke-width="0.306" stroke-miterlimit="10" x1="730.15" y1="65" x2="730.15" y2="1265"/>
			<line fill="none" stroke="#162228" stroke-width="0.306" stroke-miterlimit="10" x1="742.632" y1="65" x2="742.632" y2="1265"/>
			<line fill="none" stroke="#162228" stroke-width="0.306" stroke-miterlimit="10" x1="755.113" y1="65" x2="755.113" y2="1265"/>
			<line fill="none" stroke="#162228" stroke-width="0.306" stroke-miterlimit="10" x1="767.594" y1="65" x2="767.594" y2="1265"/>
			<line fill="none" stroke="#162228" stroke-width="0.306" stroke-miterlimit="10" x1="780.075" y1="65" x2="780.075" y2="1265"/>
			<line fill="none" stroke="#162228" stroke-width="0.306" stroke-miterlimit="10" x1="792.557" y1="65" x2="792.557" y2="1265"/>
			<line fill="none" stroke="#162228" stroke-width="0.306" stroke-miterlimit="10" x1="805.038" y1="65" x2="805.038" y2="1265"/>
			<line fill="none" stroke="#162228" stroke-width="0.306" stroke-miterlimit="10" x1="817.519" y1="65" x2="817.519" y2="1265"/>
			<line fill="none" stroke="#162228" stroke-width="1.224" stroke-miterlimit="10" x1="830" y1="1165" x2="830" y2="1265"/>
			<line fill="none" stroke="#162228" stroke-width="3.3516" stroke-miterlimit="10" x1="830" y1="165" x2="830" y2="1165"/>
			<line fill="none" stroke="#162228" stroke-width="1.224" stroke-miterlimit="10" x1="830" y1="65" x2="830" y2="165"/>
			<line fill="none" stroke="#162228" stroke-width="0.306" stroke-miterlimit="10" x1="842.481" y1="65" x2="842.481" y2="1265"/>
			<line fill="none" stroke="#162228" stroke-width="0.306" stroke-miterlimit="10" x1="854.963" y1="65" x2="854.963" y2="1265"/>
			<line fill="none" stroke="#162228" stroke-width="0.306" stroke-miterlimit="10" x1="867.443" y1="65" x2="867.443" y2="1265"/>
			<line fill="none" stroke="#162228" stroke-width="0.306" stroke-miterlimit="10" x1="879.925" y1="65" x2="879.925" y2="1265"/>
			<line fill="none" stroke="#162228" stroke-width="0.306" stroke-miterlimit="10" x1="892.406" y1="65" x2="892.406" y2="1265"/>
			<line fill="none" stroke="#162228" stroke-width="0.306" stroke-miterlimit="10" x1="904.888" y1="65" x2="904.888" y2="1265"/>
			<line fill="none" stroke="#162228" stroke-width="0.306" stroke-miterlimit="10" x1="917.368" y1="65" x2="917.368" y2="1265"/>
			<line fill="none" stroke="#162228" stroke-width="0.306" stroke-miterlimit="10" x1="929.85" y1="65" x2="929.85" y2="1265"/>
			<line fill="none" stroke="#162228" stroke-width="0.306" stroke-miterlimit="10" x1="942.331" y1="65" x2="942.331" y2="1265"/>
			<line fill="none" stroke="#162228" stroke-width="1.2238" stroke-miterlimit="10" x1="954.812" y1="65" x2="954.812" y2="1265"/>
			<line fill="none" stroke="#162228" stroke-width="0.306" stroke-miterlimit="10" x1="967.293" y1="65" x2="967.293" y2="1265"/>
			<line fill="none" stroke="#162228" stroke-width="0.306" stroke-miterlimit="10" x1="979.774" y1="65" x2="979.774" y2="1265"/>
			<line fill="none" stroke="#162228" stroke-width="0.306" stroke-miterlimit="10" x1="992.256" y1="65" x2="992.256" y2="1265"/>
			
				<line fill="none" stroke="#162228" stroke-width="0.306" stroke-miterlimit="10" x1="1004.737" y1="65" x2="1004.737" y2="1265"/>
			
				<line fill="none" stroke="#162228" stroke-width="0.306" stroke-miterlimit="10" x1="1017.218" y1="65" x2="1017.218" y2="1265"/>
			
				<line fill="none" stroke="#162228" stroke-width="0.306" stroke-miterlimit="10" x1="1029.699" y1="65" x2="1029.699" y2="1265"/>
			
				<line fill="none" stroke="#162228" stroke-width="0.306" stroke-miterlimit="10" x1="1042.181" y1="65" x2="1042.181" y2="1265"/>
			
				<line fill="none" stroke="#162228" stroke-width="0.306" stroke-miterlimit="10" x1="1054.662" y1="65" x2="1054.662" y2="1265"/>
			
				<line fill="none" stroke="#162228" stroke-width="0.306" stroke-miterlimit="10" x1="1067.143" y1="65" x2="1067.143" y2="1265"/>
			
				<line fill="none" stroke="#162228" stroke-width="1.2238" stroke-miterlimit="10" x1="1079.624" y1="65" x2="1079.624" y2="1265"/>
			
				<line fill="none" stroke="#162228" stroke-width="0.306" stroke-miterlimit="10" x1="1092.105" y1="65" x2="1092.105" y2="1265"/>
			
				<line fill="none" stroke="#162228" stroke-width="0.306" stroke-miterlimit="10" x1="1104.587" y1="65" x2="1104.587" y2="1265"/>
			
				<line fill="none" stroke="#162228" stroke-width="0.306" stroke-miterlimit="10" x1="1117.067" y1="65" x2="1117.067" y2="1265"/>
			
				<line fill="none" stroke="#162228" stroke-width="0.306" stroke-miterlimit="10" x1="1129.549" y1="65" x2="1129.549" y2="1265"/>
			<line fill="none" stroke="#162228" stroke-width="0.306" stroke-miterlimit="10" x1="1142.03" y1="65" x2="1142.03" y2="1265"/>
			
				<line fill="none" stroke="#162228" stroke-width="0.306" stroke-miterlimit="10" x1="1154.512" y1="65" x2="1154.512" y2="1265"/>
			
				<line fill="none" stroke="#162228" stroke-width="0.306" stroke-miterlimit="10" x1="1166.992" y1="65" x2="1166.992" y2="1265"/>
			
				<line fill="none" stroke="#162228" stroke-width="0.306" stroke-miterlimit="10" x1="1179.474" y1="65" x2="1179.474" y2="1265"/>
			
				<line fill="none" stroke="#162228" stroke-width="0.306" stroke-miterlimit="10" x1="1191.955" y1="65" x2="1191.955" y2="1265"/>
			
				<line fill="none" stroke="#162228" stroke-width="1.2238" stroke-miterlimit="10" x1="1204.438" y1="65" x2="1204.438" y2="1265"/>
			
				<line fill="none" stroke="#162228" stroke-width="0.306" stroke-miterlimit="10" x1="1216.917" y1="65" x2="1216.917" y2="1265"/>
			
				<line fill="none" stroke="#162228" stroke-width="0.306" stroke-miterlimit="10" x1="1229.398" y1="65" x2="1229.398" y2="1265"/>
			<line fill="none" stroke="#162228" stroke-width="0.306" stroke-miterlimit="10" x1="1241.88" y1="65" x2="1241.88" y2="1265"/>
			
				<line fill="none" stroke="#162228" stroke-width="0.306" stroke-miterlimit="10" x1="1254.361" y1="65" x2="1254.361" y2="1265"/>
			
				<line fill="none" stroke="#162228" stroke-width="0.306" stroke-miterlimit="10" x1="1266.842" y1="65" x2="1266.842" y2="1265"/>
			
				<line fill="none" stroke="#162228" stroke-width="0.306" stroke-miterlimit="10" x1="1279.323" y1="65" x2="1279.323" y2="1265"/>
			
				<line fill="none" stroke="#162228" stroke-width="0.306" stroke-miterlimit="10" x1="1291.805" y1="65" x2="1291.805" y2="1265"/>
			
				<line fill="none" stroke="#162228" stroke-width="0.306" stroke-miterlimit="10" x1="1304.286" y1="65" x2="1304.286" y2="1265"/>
			
				<line fill="none" stroke="#162228" stroke-width="0.306" stroke-miterlimit="10" x1="1316.767" y1="65" x2="1316.767" y2="1265"/>
			
				<line fill="none" stroke="#162228" stroke-width="1.2238" stroke-miterlimit="10" x1="1329.248" y1="65" x2="1329.248" y2="1265"/>
			
				<line fill="none" stroke="#162228" stroke-width="1.2238" stroke-miterlimit="10" x1="1454.061" y1="65" x2="1454.061" y2="1265"/>
			
				<line fill="none" stroke="#162228" stroke-width="0.306" stroke-miterlimit="10" x1="1341.729" y1="65" x2="1341.729" y2="1265"/>
			
				<line fill="none" stroke="#162228" stroke-width="0.306" stroke-miterlimit="10" x1="1354.211" y1="65" x2="1354.211" y2="1265"/>
			
				<line fill="none" stroke="#162228" stroke-width="0.306" stroke-miterlimit="10" x1="1366.691" y1="65" x2="1366.691" y2="1265"/>
			
				<line fill="none" stroke="#162228" stroke-width="0.306" stroke-miterlimit="10" x1="1379.173" y1="65" x2="1379.173" y2="1265"/>
			
				<line fill="none" stroke="#162228" stroke-width="0.306" stroke-miterlimit="10" x1="1391.654" y1="65" x2="1391.654" y2="1265"/>
			
				<line fill="none" stroke="#162228" stroke-width="0.306" stroke-miterlimit="10" x1="1404.136" y1="65" x2="1404.136" y2="1265"/>
			
				<line fill="none" stroke="#162228" stroke-width="0.306" stroke-miterlimit="10" x1="1416.616" y1="65" x2="1416.616" y2="1265"/>
			
				<line fill="none" stroke="#162228" stroke-width="0.306" stroke-miterlimit="10" x1="1429.098" y1="65" x2="1429.098" y2="1265"/>
			
				<line fill="none" stroke="#162228" stroke-width="0.306" stroke-miterlimit="10" x1="1441.579" y1="65" x2="1441.579" y2="1265"/>
			
				<line fill="none" stroke="#162228" stroke-width="1.2238" stroke-miterlimit="10" x1="1578.872" y1="65" x2="1578.872" y2="1265"/>
			
				<line fill="none" stroke="#162228" stroke-width="0.306" stroke-miterlimit="10" x1="1466.541" y1="65" x2="1466.541" y2="1265"/>
			
				<line fill="none" stroke="#162228" stroke-width="0.306" stroke-miterlimit="10" x1="1479.021" y1="65" x2="1479.021" y2="1265"/>
			
				<line fill="none" stroke="#162228" stroke-width="0.306" stroke-miterlimit="10" x1="1491.504" y1="65" x2="1491.504" y2="1265"/>
			
				<line fill="none" stroke="#162228" stroke-width="0.306" stroke-miterlimit="10" x1="1503.985" y1="65" x2="1503.985" y2="1265"/>
			
				<line fill="none" stroke="#162228" stroke-width="0.306" stroke-miterlimit="10" x1="1516.466" y1="65" x2="1516.466" y2="1265"/>
			
				<line fill="none" stroke="#162228" stroke-width="0.306" stroke-miterlimit="10" x1="1528.947" y1="65" x2="1528.947" y2="1265"/>
			
				<line fill="none" stroke="#162228" stroke-width="0.306" stroke-miterlimit="10" x1="1541.429" y1="65" x2="1541.429" y2="1265"/>
			<line fill="none" stroke="#162228" stroke-width="0.306" stroke-miterlimit="10" x1="1553.91" y1="65" x2="1553.91" y2="1265"/>
			
				<line fill="none" stroke="#162228" stroke-width="0.306" stroke-miterlimit="10" x1="1566.391" y1="65" x2="1566.391" y2="1265"/>
		</g>
		<g>
			<line fill="none" stroke="#162228" stroke-width="1.117" stroke-miterlimit="10" x1="1578.872" y1="65" x2="81.128" y2="65"/>
			<line fill="none" stroke="#162228" stroke-width="0.306" stroke-miterlimit="10" x1="1578.872" y1="75" x2="81.128" y2="75"/>
			<line fill="none" stroke="#162228" stroke-width="0.306" stroke-miterlimit="10" x1="1578.872" y1="85" x2="81.128" y2="85"/>
			<line fill="none" stroke="#162228" stroke-width="0.306" stroke-miterlimit="10" x1="1578.872" y1="95" x2="81.128" y2="95"/>
			<line fill="none" stroke="#162228" stroke-width="0.306" stroke-miterlimit="10" x1="1578.872" y1="105" x2="81.128" y2="105"/>
			<line fill="none" stroke="#162228" stroke-width="0.306" stroke-miterlimit="10" x1="1578.872" y1="115" x2="81.128" y2="115"/>
			<line fill="none" stroke="#162228" stroke-width="0.306" stroke-miterlimit="10" x1="1578.872" y1="125" x2="81.128" y2="125"/>
			<line fill="none" stroke="#162228" stroke-width="0.306" stroke-miterlimit="10" x1="1578.872" y1="135" x2="81.128" y2="135"/>
			<line fill="none" stroke="#162228" stroke-width="0.306" stroke-miterlimit="10" x1="1578.872" y1="145" x2="81.128" y2="145"/>
			<line fill="none" stroke="#162228" stroke-width="0.306" stroke-miterlimit="10" x1="1578.872" y1="155" x2="81.128" y2="155"/>
			<line fill="none" stroke="#162228" stroke-width="1.1172" stroke-miterlimit="10" x1="1578.872" y1="165" x2="81.128" y2="165"/>
			<line fill="none" stroke="#162228" stroke-width="0.306" stroke-miterlimit="10" x1="1578.872" y1="175" x2="81.128" y2="175"/>
			<line fill="none" stroke="#162228" stroke-width="0.306" stroke-miterlimit="10" x1="1578.872" y1="185" x2="81.128" y2="185"/>
			<line fill="none" stroke="#162228" stroke-width="0.306" stroke-miterlimit="10" x1="1578.872" y1="195" x2="81.128" y2="195"/>
			<line fill="none" stroke="#162228" stroke-width="0.306" stroke-miterlimit="10" x1="1578.872" y1="205" x2="81.128" y2="205"/>
			<line fill="none" stroke="#162228" stroke-width="0.306" stroke-miterlimit="10" x1="1578.872" y1="215" x2="81.128" y2="215"/>
			<line fill="none" stroke="#162228" stroke-width="0.306" stroke-miterlimit="10" x1="1578.872" y1="225" x2="81.128" y2="225"/>
			<line fill="none" stroke="#162228" stroke-width="0.306" stroke-miterlimit="10" x1="1578.872" y1="235" x2="81.128" y2="235"/>
			<line fill="none" stroke="#162228" stroke-width="0.306" stroke-miterlimit="10" x1="1578.872" y1="245" x2="81.128" y2="245"/>
			<line fill="none" stroke="#162228" stroke-width="0.306" stroke-miterlimit="10" x1="1578.872" y1="255" x2="81.128" y2="255"/>
			<line fill="none" stroke="#162228" stroke-width="1.1172" stroke-miterlimit="10" x1="1578.872" y1="265" x2="81.128" y2="265"/>
			<line fill="none" stroke="#162228" stroke-width="0.306" stroke-miterlimit="10" x1="1578.872" y1="275" x2="81.128" y2="275"/>
			<line fill="none" stroke="#162228" stroke-width="0.306" stroke-miterlimit="10" x1="1578.872" y1="285" x2="81.128" y2="285"/>
			<line fill="none" stroke="#162228" stroke-width="0.306" stroke-miterlimit="10" x1="1578.872" y1="295" x2="81.128" y2="295"/>
			<line fill="none" stroke="#162228" stroke-width="0.306" stroke-miterlimit="10" x1="1578.872" y1="305" x2="81.128" y2="305"/>
			<line fill="none" stroke="#162228" stroke-width="0.306" stroke-miterlimit="10" x1="1578.872" y1="315" x2="81.128" y2="315"/>
			<line fill="none" stroke="#162228" stroke-width="0.306" stroke-miterlimit="10" x1="1578.872" y1="325" x2="81.128" y2="325"/>
			<line fill="none" stroke="#162228" stroke-width="0.306" stroke-miterlimit="10" x1="1578.872" y1="335" x2="81.128" y2="335"/>
			<line fill="none" stroke="#162228" stroke-width="0.306" stroke-miterlimit="10" x1="1578.872" y1="345" x2="81.128" y2="345"/>
			<line fill="none" stroke="#162228" stroke-width="0.306" stroke-miterlimit="10" x1="1578.872" y1="355" x2="81.128" y2="355"/>
			<line fill="none" stroke="#162228" stroke-width="1.1172" stroke-miterlimit="10" x1="1578.872" y1="365" x2="81.128" y2="365"/>
			<line fill="none" stroke="#162228" stroke-width="0.306" stroke-miterlimit="10" x1="1578.872" y1="375" x2="81.128" y2="375"/>
			<line fill="none" stroke="#162228" stroke-width="0.306" stroke-miterlimit="10" x1="1578.872" y1="385" x2="81.128" y2="385"/>
			<line fill="none" stroke="#162228" stroke-width="0.306" stroke-miterlimit="10" x1="1578.872" y1="395" x2="81.128" y2="395"/>
			<line fill="none" stroke="#162228" stroke-width="0.306" stroke-miterlimit="10" x1="1578.872" y1="405" x2="81.128" y2="405"/>
			<line fill="none" stroke="#162228" stroke-width="0.306" stroke-miterlimit="10" x1="1578.872" y1="415" x2="81.128" y2="415"/>
			<line fill="none" stroke="#162228" stroke-width="0.306" stroke-miterlimit="10" x1="1578.872" y1="425" x2="81.128" y2="425"/>
			<line fill="none" stroke="#162228" stroke-width="0.306" stroke-miterlimit="10" x1="1578.872" y1="435" x2="81.128" y2="435"/>
			<line fill="none" stroke="#162228" stroke-width="0.306" stroke-miterlimit="10" x1="1578.872" y1="445" x2="81.128" y2="445"/>
			<line fill="none" stroke="#162228" stroke-width="0.306" stroke-miterlimit="10" x1="1578.872" y1="455" x2="81.128" y2="455"/>
			<line fill="none" stroke="#162228" stroke-width="1.1172" stroke-miterlimit="10" x1="1578.872" y1="465" x2="81.128" y2="465"/>
			<line fill="none" stroke="#162228" stroke-width="0.306" stroke-miterlimit="10" x1="1578.872" y1="475" x2="81.128" y2="475"/>
			<line fill="none" stroke="#162228" stroke-width="0.306" stroke-miterlimit="10" x1="1578.872" y1="485" x2="81.128" y2="485"/>
			<line fill="none" stroke="#162228" stroke-width="0.306" stroke-miterlimit="10" x1="1578.872" y1="495" x2="81.128" y2="495"/>
			<line fill="none" stroke="#162228" stroke-width="0.306" stroke-miterlimit="10" x1="1578.872" y1="505" x2="81.128" y2="505"/>
			<line fill="none" stroke="#162228" stroke-width="0.306" stroke-miterlimit="10" x1="1578.872" y1="515" x2="81.128" y2="515"/>
			<line fill="none" stroke="#162228" stroke-width="0.306" stroke-miterlimit="10" x1="1578.872" y1="525" x2="81.128" y2="525"/>
			<line fill="none" stroke="#162228" stroke-width="0.306" stroke-miterlimit="10" x1="1578.872" y1="535" x2="81.128" y2="535"/>
			<line fill="none" stroke="#162228" stroke-width="0.306" stroke-miterlimit="10" x1="1578.872" y1="545" x2="81.128" y2="545"/>
			<line fill="none" stroke="#162228" stroke-width="0.306" stroke-miterlimit="10" x1="1578.872" y1="555" x2="81.128" y2="555"/>
			<line fill="none" stroke="#162228" stroke-width="1.1172" stroke-miterlimit="10" x1="1578.872" y1="565" x2="81.128" y2="565"/>
			<line fill="none" stroke="#162228" stroke-width="0.306" stroke-miterlimit="10" x1="1578.872" y1="575" x2="81.128" y2="575"/>
			<line fill="none" stroke="#162228" stroke-width="0.306" stroke-miterlimit="10" x1="1578.872" y1="585" x2="81.128" y2="585"/>
			<line fill="none" stroke="#162228" stroke-width="0.306" stroke-miterlimit="10" x1="1578.872" y1="595" x2="81.128" y2="595"/>
			<line fill="none" stroke="#162228" stroke-width="0.306" stroke-miterlimit="10" x1="1578.872" y1="605" x2="81.128" y2="605"/>
			<line fill="none" stroke="#162228" stroke-width="0.306" stroke-miterlimit="10" x1="1578.872" y1="615" x2="81.128" y2="615"/>
			<line fill="none" stroke="#162228" stroke-width="0.306" stroke-miterlimit="10" x1="1578.872" y1="625" x2="81.128" y2="625"/>
			<line fill="none" stroke="#162228" stroke-width="0.306" stroke-miterlimit="10" x1="1578.872" y1="635" x2="81.128" y2="635"/>
			<line fill="none" stroke="#162228" stroke-width="0.306" stroke-miterlimit="10" x1="1578.872" y1="645" x2="81.128" y2="645"/>
			<line fill="none" stroke="#162228" stroke-width="0.306" stroke-miterlimit="10" x1="1578.872" y1="655" x2="81.128" y2="655"/>
			<line fill="none" stroke="#162228" stroke-width="1.224" stroke-miterlimit="10" x1="205.939" y1="665" x2="81.128" y2="665"/>
			
				<line fill="none" stroke="#162228" stroke-width="3.3516" stroke-miterlimit="10" x1="1454.061" y1="665" x2="205.939" y2="665"/>
			
				<line fill="none" stroke="#162228" stroke-width="1.224" stroke-miterlimit="10" x1="1578.872" y1="665" x2="1454.061" y2="665"/>
			<line fill="none" stroke="#162228" stroke-width="0.306" stroke-miterlimit="10" x1="1578.872" y1="675" x2="81.128" y2="675"/>
			<line fill="none" stroke="#162228" stroke-width="0.306" stroke-miterlimit="10" x1="1578.872" y1="685" x2="81.128" y2="685"/>
			<line fill="none" stroke="#162228" stroke-width="0.306" stroke-miterlimit="10" x1="1578.872" y1="695" x2="81.128" y2="695"/>
			<line fill="none" stroke="#162228" stroke-width="0.306" stroke-miterlimit="10" x1="1578.872" y1="705" x2="81.128" y2="705"/>
			<line fill="none" stroke="#162228" stroke-width="0.306" stroke-miterlimit="10" x1="1578.872" y1="715" x2="81.128" y2="715"/>
			<line fill="none" stroke="#162228" stroke-width="0.306" stroke-miterlimit="10" x1="1578.872" y1="725" x2="81.128" y2="725"/>
			<line fill="none" stroke="#162228" stroke-width="0.306" stroke-miterlimit="10" x1="1578.872" y1="735" x2="81.128" y2="735"/>
			<line fill="none" stroke="#162228" stroke-width="0.306" stroke-miterlimit="10" x1="1578.872" y1="745" x2="81.128" y2="745"/>
			<line fill="none" stroke="#162228" stroke-width="0.306" stroke-miterlimit="10" x1="1578.872" y1="755" x2="81.128" y2="755"/>
			<line fill="none" stroke="#162228" stroke-width="1.1172" stroke-miterlimit="10" x1="1578.872" y1="765" x2="81.128" y2="765"/>
			<line fill="none" stroke="#162228" stroke-width="0.306" stroke-miterlimit="10" x1="1578.872" y1="775" x2="81.128" y2="775"/>
			<line fill="none" stroke="#162228" stroke-width="0.306" stroke-miterlimit="10" x1="1578.872" y1="785" x2="81.128" y2="785"/>
			<line fill="none" stroke="#162228" stroke-width="0.306" stroke-miterlimit="10" x1="1578.872" y1="795" x2="81.128" y2="795"/>
			<line fill="none" stroke="#162228" stroke-width="0.306" stroke-miterlimit="10" x1="1578.872" y1="805" x2="81.128" y2="805"/>
			<line fill="none" stroke="#162228" stroke-width="0.306" stroke-miterlimit="10" x1="1578.872" y1="815" x2="81.128" y2="815"/>
			<line fill="none" stroke="#162228" stroke-width="0.306" stroke-miterlimit="10" x1="1578.872" y1="825" x2="81.128" y2="825"/>
			<line fill="none" stroke="#162228" stroke-width="0.306" stroke-miterlimit="10" x1="1578.872" y1="835" x2="81.128" y2="835"/>
			<line fill="none" stroke="#162228" stroke-width="0.306" stroke-miterlimit="10" x1="1578.872" y1="845" x2="81.128" y2="845"/>
			<line fill="none" stroke="#162228" stroke-width="0.306" stroke-miterlimit="10" x1="1578.872" y1="855" x2="81.128" y2="855"/>
			<line fill="none" stroke="#162228" stroke-width="1.1172" stroke-miterlimit="10" x1="1578.872" y1="865" x2="81.128" y2="865"/>
			<line fill="none" stroke="#162228" stroke-width="0.306" stroke-miterlimit="10" x1="1578.872" y1="875" x2="81.128" y2="875"/>
			<line fill="none" stroke="#162228" stroke-width="0.306" stroke-miterlimit="10" x1="1578.872" y1="885" x2="81.128" y2="885"/>
			<line fill="none" stroke="#162228" stroke-width="0.306" stroke-miterlimit="10" x1="1578.872" y1="895" x2="81.128" y2="895"/>
			<line fill="none" stroke="#162228" stroke-width="0.306" stroke-miterlimit="10" x1="1578.872" y1="905" x2="81.128" y2="905"/>
			<line fill="none" stroke="#162228" stroke-width="0.306" stroke-miterlimit="10" x1="1578.872" y1="915" x2="81.128" y2="915"/>
			<line fill="none" stroke="#162228" stroke-width="0.306" stroke-miterlimit="10" x1="1578.872" y1="925" x2="81.128" y2="925"/>
			<line fill="none" stroke="#162228" stroke-width="0.306" stroke-miterlimit="10" x1="1578.872" y1="935" x2="81.128" y2="935"/>
			<line fill="none" stroke="#162228" stroke-width="0.306" stroke-miterlimit="10" x1="1578.872" y1="945" x2="81.128" y2="945"/>
			<line fill="none" stroke="#162228" stroke-width="0.306" stroke-miterlimit="10" x1="1578.872" y1="955" x2="81.128" y2="955"/>
			<line fill="none" stroke="#162228" stroke-width="1.1172" stroke-miterlimit="10" x1="1578.872" y1="965" x2="81.128" y2="965"/>
			<line fill="none" stroke="#162228" stroke-width="0.306" stroke-miterlimit="10" x1="1578.872" y1="975" x2="81.128" y2="975"/>
			<line fill="none" stroke="#162228" stroke-width="0.306" stroke-miterlimit="10" x1="1578.872" y1="985" x2="81.128" y2="985"/>
			<line fill="none" stroke="#162228" stroke-width="0.306" stroke-miterlimit="10" x1="1578.872" y1="995" x2="81.128" y2="995"/>
			
				<line fill="none" stroke="#162228" stroke-width="0.306" stroke-miterlimit="10" x1="1578.872" y1="1005" x2="81.128" y2="1005"/>
			
				<line fill="none" stroke="#162228" stroke-width="0.306" stroke-miterlimit="10" x1="1578.872" y1="1015" x2="81.128" y2="1015"/>
			
				<line fill="none" stroke="#162228" stroke-width="0.306" stroke-miterlimit="10" x1="1578.872" y1="1025" x2="81.128" y2="1025"/>
			
				<line fill="none" stroke="#162228" stroke-width="0.306" stroke-miterlimit="10" x1="1578.872" y1="1035" x2="81.128" y2="1035"/>
			
				<line fill="none" stroke="#162228" stroke-width="0.306" stroke-miterlimit="10" x1="1578.872" y1="1045" x2="81.128" y2="1045"/>
			
				<line fill="none" stroke="#162228" stroke-width="0.306" stroke-miterlimit="10" x1="1578.872" y1="1055" x2="81.128" y2="1055"/>
			
				<line fill="none" stroke="#162228" stroke-width="1.1172" stroke-miterlimit="10" x1="1578.872" y1="1065" x2="81.128" y2="1065"/>
			
				<line fill="none" stroke="#162228" stroke-width="0.306" stroke-miterlimit="10" x1="1578.872" y1="1075" x2="81.128" y2="1075"/>
			
				<line fill="none" stroke="#162228" stroke-width="0.306" stroke-miterlimit="10" x1="1578.872" y1="1085" x2="81.128" y2="1085"/>
			
				<line fill="none" stroke="#162228" stroke-width="0.306" stroke-miterlimit="10" x1="1578.872" y1="1095" x2="81.128" y2="1095"/>
			
				<line fill="none" stroke="#162228" stroke-width="0.306" stroke-miterlimit="10" x1="1578.872" y1="1105" x2="81.128" y2="1105"/>
			
				<line fill="none" stroke="#162228" stroke-width="0.306" stroke-miterlimit="10" x1="1578.872" y1="1115" x2="81.128" y2="1115"/>
			
				<line fill="none" stroke="#162228" stroke-width="0.306" stroke-miterlimit="10" x1="1578.872" y1="1125" x2="81.128" y2="1125"/>
			
				<line fill="none" stroke="#162228" stroke-width="0.306" stroke-miterlimit="10" x1="1578.872" y1="1135" x2="81.128" y2="1135"/>
			
				<line fill="none" stroke="#162228" stroke-width="0.306" stroke-miterlimit="10" x1="1578.872" y1="1145" x2="81.128" y2="1145"/>
			
				<line fill="none" stroke="#162228" stroke-width="0.306" stroke-miterlimit="10" x1="1578.872" y1="1155" x2="81.128" y2="1155"/>
			
				<line fill="none" stroke="#162228" stroke-width="1.1172" stroke-miterlimit="10" x1="1578.872" y1="1165" x2="81.128" y2="1165"/>
			
				<line fill="none" stroke="#162228" stroke-width="0.306" stroke-miterlimit="10" x1="1578.872" y1="1175" x2="81.128" y2="1175"/>
			
				<line fill="none" stroke="#162228" stroke-width="0.306" stroke-miterlimit="10" x1="1578.872" y1="1185" x2="81.128" y2="1185"/>
			
				<line fill="none" stroke="#162228" stroke-width="0.306" stroke-miterlimit="10" x1="1578.872" y1="1195" x2="81.128" y2="1195"/>
			
				<line fill="none" stroke="#162228" stroke-width="0.306" stroke-miterlimit="10" x1="1578.872" y1="1205" x2="81.128" y2="1205"/>
			
				<line fill="none" stroke="#162228" stroke-width="0.306" stroke-miterlimit="10" x1="1578.872" y1="1215" x2="81.128" y2="1215"/>
			
				<line fill="none" stroke="#162228" stroke-width="0.306" stroke-miterlimit="10" x1="1578.872" y1="1225" x2="81.128" y2="1225"/>
			
				<line fill="none" stroke="#162228" stroke-width="0.306" stroke-miterlimit="10" x1="1578.872" y1="1235" x2="81.128" y2="1235"/>
			
				<line fill="none" stroke="#162228" stroke-width="0.306" stroke-miterlimit="10" x1="1578.872" y1="1245" x2="81.128" y2="1245"/>
			
				<line fill="none" stroke="#162228" stroke-width="0.306" stroke-miterlimit="10" x1="1578.872" y1="1255" x2="81.128" y2="1255"/>
			
				<line fill="none" stroke="#162228" stroke-width="1.1172" stroke-miterlimit="10" x1="1578.872" y1="1265" x2="81.128" y2="1265"/>
		</g>
	</g>
	<polygon fill="#162228" points="1635,653.5 1655,665 1635,676.6 	"/>
	<g>
		<g>
			<rect x="5" y="1165" fill="none" width="13.299" height="160"/>
		</g>
		<g>
			<rect x="1637.456" y="1165" fill="none" width="13.296" height="160"/>
		</g>
		<g>
			<rect x="5" y="1314.336" fill="none" width="199.485" height="10.664"/>
		</g>
		<g>
			<rect x="1451.267" y="1314.336" fill="none" width="199.485" height="10.664"/>
		</g>
		<g>
			<g>
				<rect x="1638.092" y="5" fill="none" width="12.66" height="160"/>
			</g>
			<g>
				<rect x="5" y="5" fill="none" width="12.66" height="160"/>
			</g>
			<g>
				<rect x="1460.857" y="5" fill="none" width="189.895" height="10.667"/>
			</g>
			<g>
				<rect x="5" y="5" fill="none" width="189.895" height="10.667"/>
			</g>
		</g>
	</g>
	<polygon fill="#162228" points="25,676.6 5,665 25,653.5 	"/>
	<g>
		<g>
			<polygon fill="#162228" points="818.5,25 830,5 841.5,25 			"/>
			<line fill="none" stroke="#162228" stroke-width="2.9519" stroke-miterlimit="10" x1="830" y1="35" x2="830" y2="55"/>
			<line fill="none" stroke="#162228" stroke-width="2.9518" stroke-miterlimit="10" x1="840" y1="45" x2="820" y2="45"/>
		</g>
		<g>
			<polygon fill="#162228" points="841.5,1305 830,1325 818.5,1305 			"/>
			<g>
				<line fill="none" stroke="#162228" stroke-width="2.9518" stroke-miterlimit="10" x1="840" y1="1285" x2="820" y2="1285"/>
			</g>
		</g>
	</g>
</g>
</svg>
