<?xml version="1.0" encoding="utf-8"?>
<!-- Generator: Adobe Illustrator 15.1.0, SVG Export Plug-In . SVG Version: 6.00 Build 0)  -->
<!DOCTYPE svg PUBLIC "-//W3C//DTD SVG 1.1//EN" "http://www.w3.org/Graphics/SVG/1.1/DTD/svg11.dtd">
<svg version="1.1" id="Calque_1" xmlns="http://www.w3.org/2000/svg" xmlns:xlink="http://www.w3.org/1999/xlink" x="0px" y="0px"
	 width="100px" height="110px" viewBox="0 0 100 110" style="enable-background:new 0 0 100 110;" xml:space="preserve">
<g>
	<g>
		<path style="fill:#FFFFFF;" d="M50,11c27,0,49,22,49,49c0,27-22,49-49,49S1,87,1,60C1,33,23,11,50,11 M50,10C22.4,10,0,32.4,0,60
			c0,27.6,22.4,50,50,50c27.6,0,50-22.4,50-50C100,32.4,77.6,10,50,10L50,10z"/>
	</g>
</g>
<g>
	<g>
		<path style="fill:#FFFFFF;" d="M50,27.2c22.5,0,40.9,18.3,40.9,40.9C90.9,90.7,72.6,109,50,109S9.1,90.7,9.1,68.1
			C9.1,45.6,27.5,27.2,50,27.2 M50,26.2C26.9,26.2,8.1,45,8.1,68.1C8.1,91.3,26.9,110,50,110c23.1,0,41.9-18.7,41.9-41.9
			C91.9,45,73.1,26.2,50,26.2L50,26.2z"/>
	</g>
</g>
<g>
	<g>
		<path style="fill:#FFFFFF;" d="M50,43.5c18.1,0,32.8,14.7,32.8,32.8S68.1,109,50,109S17.3,94.3,17.3,76.2S32,43.5,50,43.5
			 M50,42.5c-18.6,0-33.8,15.1-33.8,33.8C16.3,94.9,31.4,110,50,110c18.6,0,33.8-15.1,33.8-33.8C83.8,57.6,68.7,42.5,50,42.5
			L50,42.5z"/>
	</g>
</g>
<g>
	<g>
		<path style="fill:#FFFFFF;" d="M50,59.8c13.6,0,24.6,11,24.6,24.6S63.6,109,50,109S25.4,98,25.4,84.4S36.4,59.8,50,59.8 M50,58.8
			c-14.2,0-25.6,11.5-25.6,25.6S35.9,110,50,110c14.2,0,25.6-11.5,25.6-25.6S64.2,58.8,50,58.8L50,58.8z"/>
	</g>
</g>
<g>
	<g>
		<path style="fill:#FFFFFF;" d="M50,76c9.1,0,16.5,7.4,16.5,16.5S59.1,109,50,109c-9.1,0-16.5-7.4-16.5-16.5S40.9,76,50,76 M50,75
			c-9.7,0-17.5,7.8-17.5,17.5S40.4,110,50,110c9.7,0,17.5-7.8,17.5-17.5S59.7,75,50,75L50,75z"/>
	</g>
</g>
<text transform="matrix(1 0 0 1 47.7134 72.999)" style="fill:#FFFFFF; font-family:'MyriadPro-Regular'; font-size:9;">1</text>
<text transform="matrix(1 0 0 1 47.6909 56.75)" style="fill:#FFFFFF; font-family:'MyriadPro-Regular'; font-size:9;">2</text>
<text transform="matrix(1 0 0 1 47.6909 40.5)" style="fill:#FFFFFF; font-family:'MyriadPro-Regular'; font-size:9;">3</text>
<text transform="matrix(1 0 0 1 47.6914 24.25)" style="fill:#FFFFFF; font-family:'MyriadPro-Regular'; font-size:9;">4</text>
<text transform="matrix(1 0 0 1 47.6909 8)" style="fill:#FFFFFF; font-family:'MyriadPro-Regular'; font-size:9;">5</text>
</svg>
