<?xml version="1.0" encoding="utf-8"?>
<!-- Generator: Adobe Illustrator 15.1.0, SVG Export Plug-In . SVG Version: 6.00 Build 0)  -->
<!DOCTYPE svg PUBLIC "-//W3C//DTD SVG 1.1//EN" "http://www.w3.org/Graphics/SVG/1.1/DTD/svg11.dtd">
<svg version="1.1" id="Calque_1" xmlns="http://www.w3.org/2000/svg" xmlns:xlink="http://www.w3.org/1999/xlink" x="0px" y="0px"
	 width="279.1px" height="279.1px" viewBox="0 0 279.1 279.1" style="enable-background:new 0 0 279.1 279.1;" xml:space="preserve"
	>
<path style="fill:#FFFFFF;" d="M139.5,139.5L18.4,208.9l0,0C6.7,188.4,0,164.8,0,139.5C0,62.5,62.5,0,139.5,0V139.5z"/>
<path style="fill:#FFFFFF;" d="M18.4,208.9c24.1,42,69.3,70.2,121.1,70.2c51.8,0,97.1-28.3,121.1-70.2l0,0l-121.1-69.3L18.4,208.9z"
	/>
<path style="fill:#FFFFFF;" d="M139.5,0c77.1,0,139.5,62.5,139.5,139.5c0,25.2-6.7,48.9-18.4,69.3l0,0l-121.1-69.3V0z"/>
</svg>
