<?xml version="1.0" encoding="utf-8"?>
<!-- Generator: Adobe Illustrator 15.1.0, SVG Export Plug-In . SVG Version: 6.00 Build 0)  -->
<!DOCTYPE svg PUBLIC "-//W3C//DTD SVG 1.1//EN" "http://www.w3.org/Graphics/SVG/1.1/DTD/svg11.dtd">
<svg version="1.1" id="Calque_1" xmlns="http://www.w3.org/2000/svg" xmlns:xlink="http://www.w3.org/1999/xlink" x="0px" y="0px"
	 width="180px" height="180px" viewBox="95 43.623 180 180" enable-background="new 95 43.623 180 180" xml:space="preserve">
<title>Upload s11.2</title>
<desc>Created with Sketch.</desc>
<g>
	<g>
		<g>
			<path fill="#FFFFFF" d="M132.071,214.826c-3.189,0-5.783-2.6-5.783-5.795V82.663c0-1.196,0.529-2.469,1.381-3.32l25.542-25.542
				c0.838-0.839,2.159-1.381,3.365-1.381h81.364c3.183,0,5.772,2.597,5.772,5.79v150.825c0,3.193-2.595,5.791-5.783,5.791H132.071z
				 M134.75,86.495c-1.196,0-2.17,0.954-2.17,2.126l-0.008,117.786c0,1.173,0.973,2.127,2.169,2.127H235.25
				c1.196,0,2.17-0.964,2.17-2.149V60.862c0-1.186-0.961-2.15-2.142-2.15h-72.773c-1.201,0-2.142,0.953-2.142,2.17v19.833
				c0,3.187-2.593,5.78-5.78,5.78H134.75z M153.779,62.401c-0.131,0-0.386,0.114-0.707,0.436l-16.369,16.369
				c-0.387,0.387-0.469,0.668-0.43,0.763c0.039,0.095,0.298,0.237,0.848,0.237l14.826,0.008c0.56,0,1.091-0.221,1.495-0.623
				c0.406-0.403,0.629-0.937,0.629-1.501V63.257C154.071,62.761,153.948,62.401,153.779,62.401z M159.182,172.369
				c-0.844,0-1.634-0.326-2.227-0.918c-0.596-0.596-0.925-1.384-0.928-2.22c-0.002-0.835,0.323-1.62,0.914-2.212l45.133-45.133
				c0.382-0.382,0.462-0.663,0.423-0.758c-0.041-0.097-0.302-0.241-0.856-0.241l-35.842,0.023c-2.064,0-3.144-1.58-3.144-3.141
				c0-1.563,1.08-3.146,3.146-3.147l44.999-0.202c0.847,0,1.629,0.324,2.216,0.913c0.587,0.589,0.909,1.375,0.906,2.209
				l-0.137,45.064c-0.001,2.064-1.584,3.145-3.147,3.145c-0.814,0-1.578-0.279-2.148-0.787c-0.649-0.578-0.993-1.393-0.992-2.357
				l0.022-35.84c0.001-0.469-0.101-0.737-0.196-0.833c-0.029-0.029-0.055-0.04-0.096-0.04c-0.131,0-0.385,0.115-0.707,0.437
				l-45.134,45.133C160.804,172.048,160.021,172.369,159.182,172.369z"/>
			<path fill="#FFFFFF" d="M237.939,52.92c2.919,0,5.272,2.359,5.272,5.29v150.825c0,2.922-2.357,5.291-5.283,5.291H132.071
				c-2.917,0-5.283-2.385-5.283-5.295V82.663c0-1.059,0.48-2.213,1.234-2.967l25.542-25.542c0.756-0.757,1.944-1.234,3.012-1.234
				H237.939 M134.741,209.034H235.25c1.481,0,2.67-1.187,2.67-2.649V60.862c0-1.479-1.183-2.65-2.642-2.65h-72.773
				c-1.478,0-2.642,1.195-2.642,2.67v19.833c0,2.895-2.369,5.28-5.28,5.28H134.75c-1.46,0-2.67,1.176-2.67,2.626l-0.008,117.786
				C132.072,207.855,133.267,209.034,134.741,209.034 M151.948,80.714c1.428,0,2.623-1.175,2.623-2.625V63.257
				c0-0.878-0.313-1.355-0.792-1.355c-0.3,0-0.666,0.188-1.061,0.582L136.35,78.853c-1.016,1.016-0.678,1.853,0.772,1.854
				L151.948,80.714C151.947,80.714,151.947,80.714,151.948,80.714 M210.813,114.92c1.446,0,2.613,1.171,2.608,2.621l-0.137,45.064
				c-0.001,1.764-1.324,2.646-2.647,2.646c-1.321,0-2.642-0.881-2.641-2.644l0.022-35.84c0.001-0.892-0.312-1.373-0.792-1.373
				c-0.301,0-0.666,0.188-1.061,0.583l-45.134,45.133c-0.503,0.504-1.176,0.758-1.851,0.758c-0.677,0-1.356-0.255-1.873-0.771
				c-1.04-1.039-1.039-2.699-0.014-3.725l45.133-45.133c1.006-1.007,0.671-1.853-0.787-1.853c-0.001,0-0.002,0-0.003,0l-35.84,0.023
				c0,0-0.001,0-0.001,0c-3.525,0-3.522-5.287,0.004-5.288l45-0.202C210.806,114.92,210.81,114.92,210.813,114.92 M237.939,51.92
				h-81.364c-1.353,0-2.777,0.585-3.719,1.527l-25.541,25.542c-0.942,0.942-1.527,2.35-1.527,3.674v126.369
				c0,3.471,2.819,6.295,6.283,6.295h105.857c3.465,0,6.283-2.822,6.283-6.291V58.21C244.212,54.742,241.398,51.92,237.939,51.92
				L237.939,51.92z M134.741,208.034c-0.92,0-1.669-0.729-1.669-1.627l0.008-117.786c0-0.897,0.749-1.626,1.67-1.626h19.833
				c3.463,0,6.28-2.817,6.28-6.28V60.882c0-0.937,0.721-1.67,1.642-1.67h72.773c0.921,0,1.642,0.725,1.642,1.65v145.523
				c0,0.909-0.749,1.649-1.67,1.649H134.741L134.741,208.034z M136.928,79.698c0.035-0.042,0.078-0.087,0.128-0.139l16.369-16.369
				c0.051-0.05,0.096-0.092,0.138-0.127c0.005,0.056,0.008,0.12,0.008,0.193v14.833c0,0.88-0.743,1.625-1.623,1.625v1l0-1
				l-14.825-0.008C137.048,79.706,136.983,79.703,136.928,79.698L136.928,79.698z M210.813,113.92h-0.003h-0.015l-44.999,0.202
				c-2.39,0.001-3.642,1.835-3.642,3.647c0,1.809,1.251,3.641,3.642,3.641l35.842-0.023c0.08,0,0.149,0.003,0.209,0.009
				c-0.035,0.041-0.077,0.087-0.127,0.137l-45.133,45.133c-0.686,0.687-1.062,1.598-1.061,2.566
				c0.002,0.969,0.384,1.883,1.074,2.572c0.687,0.687,1.603,1.064,2.58,1.064c0.972,0,1.881-0.373,2.558-1.051l45.134-45.133
				c0.051-0.05,0.096-0.092,0.137-0.127c0.006,0.059,0.009,0.128,0.009,0.208l-0.022,35.841c-0.001,1.403,0.63,2.259,1.16,2.73
				c0.662,0.589,1.543,0.914,2.48,0.914c1.812,0,3.646-1.252,3.647-3.646l0.137-45.062c0.003-0.969-0.37-1.879-1.053-2.564
				C212.688,114.297,211.78,113.92,210.813,113.92L210.813,113.92z"/>
		</g>
	</g>
</g>
</svg>
