<?xml version="1.0" encoding="utf-8"?>
<!-- Generator: Adobe Illustrator 15.1.0, SVG Export Plug-In . SVG Version: 6.00 Build 0)  -->
<!DOCTYPE svg PUBLIC "-//W3C//DTD SVG 1.1//EN" "http://www.w3.org/Graphics/SVG/1.1/DTD/svg11.dtd">
<svg version="1.1"
	 id="Calque_1" xmlns:sodipodi="http://sodipodi.sourceforge.net/DTD/sodipodi-0.dtd" xmlns:inkscape="http://www.inkscape.org/namespaces/inkscape" xmlns:svg="http://www.w3.org/2000/svg" xmlns:dc="http://purl.org/dc/elements/1.1/" xmlns:rdf="http://www.w3.org/1999/02/22-rdf-syntax-ns#" xmlns:cc="http://creativecommons.org/ns#"
	 xmlns="http://www.w3.org/2000/svg" xmlns:xlink="http://www.w3.org/1999/xlink" x="0px" y="0px" width="228px" height="228px"
	 viewBox="71.5 16.875 228 228" enable-background="new 71.5 16.875 228 228" xml:space="preserve">
<g transform="translate(0,-952.36218)">
	<g>
		<path fill="#FFFFFF" d="M238.42,1192.724c-19.519,0-35.398-15.88-35.398-35.398c0-4.022,0.686-7.989,2.039-11.804l-48.341-36.497
			c-6.613,6.205-15.151,9.611-24.139,9.611c-19.519,0-35.398-15.88-35.398-35.398c0-19.518,15.88-35.397,35.398-35.397
			c9.02,0,17.557,3.377,24.138,9.529l48.344-36.5c-1.354-3.835-2.041-7.774-2.041-11.72c0-19.519,15.88-35.398,35.398-35.398
			s35.398,15.88,35.398,35.398s-15.88,35.398-35.398,35.398c-12.314,0-23.791-6.476-30.223-16.973l-46.697,35.361
			c4.241,6,6.478,12.998,6.478,20.302c0,7.303-2.236,14.3-6.477,20.3l46.781,35.285c6.446-10.45,17.891-16.895,30.138-16.895
			c19.519,0,35.398,15.879,35.398,35.397S257.938,1192.724,238.42,1192.724z M238.42,1129.22c-15.497,0-28.105,12.608-28.105,28.105
			c0,15.498,12.608,28.106,28.105,28.106s28.105-12.608,28.105-28.106C266.525,1141.828,253.917,1129.22,238.42,1129.22z
			 M132.58,1055.132c-15.498,0-28.106,12.608-28.106,28.105c0,15.498,12.608,28.106,28.106,28.106
			c15.498,0,28.105-12.608,28.105-28.106C160.686,1067.74,148.078,1055.132,132.58,1055.132z M238.42,981.043
			c-15.497,0-28.105,12.608-28.105,28.106s12.608,28.106,28.105,28.106s28.105-12.608,28.105-28.106S253.917,981.043,238.42,981.043
			z"/>
		<path fill="#FFFFFF" d="M238.42,974.751c18.967,0,34.398,15.433,34.398,34.398s-15.432,34.398-34.398,34.398
			c-12.8,0-24.01-7.047-29.933-17.447l-48.373,36.63c4.296,5.741,6.863,12.802,6.863,20.507s-2.567,14.766-6.863,20.507
			l48.456,36.548c5.938-10.347,17.09-17.364,29.85-17.364c18.967,0,34.398,15.432,34.398,34.397
			c0,18.967-15.432,34.398-34.398,34.398c-18.966,0-34.398-15.432-34.398-34.398c0-4.269,0.805-8.38,2.233-12.155l-49.613-37.457
			c-6.211,6.107-14.684,9.923-24.062,9.923c-18.966,0-34.398-15.433-34.398-34.398s15.433-34.397,34.398-34.397
			c9.358,0,17.854,3.754,24.062,9.84l49.613-37.458c-1.411-3.755-2.233-7.831-2.233-12.072
			C204.021,990.183,219.454,974.751,238.42,974.751 M238.42,1038.256c16.106,0,29.105-13,29.105-29.106
			s-12.999-29.106-29.105-29.106c-16.105,0-29.105,13-29.105,29.106S222.314,1038.256,238.42,1038.256 M132.58,1112.344
			c16.105,0,29.105-13,29.105-29.106s-13-29.105-29.105-29.105c-16.106,0-29.106,12.999-29.106,29.105
			S116.474,1112.344,132.58,1112.344 M238.42,1186.432c16.106,0,29.105-13,29.105-29.106s-12.999-29.105-29.105-29.105
			c-16.105,0-29.105,12.999-29.105,29.105S222.314,1186.432,238.42,1186.432 M238.42,972.751c-20.07,0-36.398,16.328-36.398,36.398
			c0,3.822,0.625,7.636,1.86,11.358l-47.103,35.562c-6.679-5.965-15.206-9.23-24.199-9.23c-20.07,0-36.398,16.328-36.398,36.397
			c0,20.07,16.328,36.398,36.398,36.398c8.965,0,17.493-3.293,24.202-9.311l47.098,35.558c-1.234,3.708-1.858,7.55-1.858,11.442
			c0,20.07,16.328,36.398,36.398,36.398s36.398-16.328,36.398-36.398c0-20.069-16.328-36.397-36.398-36.397
			c-12.229,0-23.678,6.247-30.399,16.444l-45.153-34.057c4.004-5.988,6.11-12.889,6.11-20.078c0-7.191-2.107-14.093-6.112-20.081
			l45.069-34.128c6.71,10.244,18.191,16.52,30.485,16.52c20.07,0,36.398-16.328,36.398-36.398S258.49,972.751,238.42,972.751
			L238.42,972.751z M238.42,1036.256c-14.946,0-27.105-12.16-27.105-27.106s12.159-27.106,27.105-27.106s27.105,12.16,27.105,27.106
			S253.366,1036.256,238.42,1036.256L238.42,1036.256z M132.58,1110.344c-14.947,0-27.106-12.16-27.106-27.106
			c0-14.946,12.16-27.105,27.106-27.105c14.946,0,27.105,12.16,27.105,27.105C159.686,1098.183,147.526,1110.344,132.58,1110.344
			L132.58,1110.344z M238.42,1184.432c-14.946,0-27.105-12.16-27.105-27.106s12.159-27.105,27.105-27.105
			s27.105,12.159,27.105,27.105S253.366,1184.432,238.42,1184.432L238.42,1184.432z"/>
	</g>
</g>
</svg>
