<?xml version="1.0" encoding="utf-8"?>
<!-- Generator: Adobe Illustrator 15.1.0, SVG Export Plug-In . SVG Version: 6.00 Build 0)  -->
<!DOCTYPE svg PUBLIC "-//W3C//DTD SVG 1.1//EN" "http://www.w3.org/Graphics/SVG/1.1/DTD/svg11.dtd">
<svg version="1.1" id="Calque_1" xmlns="http://www.w3.org/2000/svg" xmlns:xlink="http://www.w3.org/1999/xlink" x="0px" y="0px"
	 width="135.475px" height="135.475px" viewBox="117.262 64.562 135.475 135.475"
	 enable-background="new 117.262 64.562 135.475 135.475" xml:space="preserve">
<title>60 all</title>
<path fill="#FFFFFF" d="M119.908,200.037h125.949c1.588,0,2.646-1.059,2.646-2.646v-46.834h-5.292v44.452H122.554V74.088h44.453
	v-5.292h-47.099c-1.587,0-2.646,1.059-2.646,2.646v125.95C117.262,198.979,118.321,200.037,119.908,200.037L119.908,200.037z"/>
<path fill="#FFFFFF" d="M231.041,64.562c-0.795,0-1.324,0.265-1.854,0.794l-63.503,63.504c-0.265,0.265-0.529,0.793-0.793,1.058
	l-7.409,26.46c-0.265,1.323,0.529,2.911,1.853,3.175c0.265,0,0.529,0,0.793,0s0.529,0,0.794,0l26.459-7.409
	c0.529,0,0.795-0.265,1.059-0.794l63.504-63.504c1.059-1.059,1.059-2.646,0-3.705l-19.051-19.051
	C232.363,64.827,231.57,64.562,231.041,64.562z M163.832,153.468l5.027-17.993l12.965,12.965L163.832,153.468z M186.852,146.059
	l-15.346-15.347l59.536-59.535l15.346,15.347L186.852,146.059z"/>
</svg>
