<?xml version="1.0" encoding="utf-8"?>
<!-- Generator: Adobe Illustrator 15.1.0, SVG Export Plug-In . SVG Version: 6.00 Build 0)  -->
<!DOCTYPE svg PUBLIC "-//W3C//DTD SVG 1.1//EN" "http://www.w3.org/Graphics/SVG/1.1/DTD/svg11.dtd">
<svg version="1.1" id="Calque_1" xmlns="http://www.w3.org/2000/svg" xmlns:xlink="http://www.w3.org/1999/xlink" x="0px" y="0px"
	 width="370px" height="370px" viewBox="0 0 370 370" style="enable-background:new 0 0 370 370;" xml:space="preserve">
<rect style="fill:#FFFFFF;stroke:#825A46;stroke-width:0.25;stroke-miterlimit:10;" width="370" height="370"/>
<g>
	<line style="fill:none;stroke:#825A46;stroke-width:0.25;stroke-miterlimit:10;" x1="0" y1="0" x2="0" y2="370"/>
	<line style="fill:none;stroke:#825A46;stroke-width:0.25;stroke-miterlimit:10;" x1="14.8" y1="0" x2="14.8" y2="370"/>
	<line style="fill:none;stroke:#825A46;stroke-width:0.25;stroke-miterlimit:10;" x1="29.6" y1="0" x2="29.6" y2="370"/>
	<line style="fill:none;stroke:#825A46;stroke-width:0.25;stroke-miterlimit:10;" x1="44.4" y1="0" x2="44.4" y2="370"/>
	<line style="fill:none;stroke:#825A46;stroke-width:0.25;stroke-miterlimit:10;" x1="59.2" y1="0" x2="59.2" y2="370"/>
	<line style="fill:none;stroke:#825A46;stroke-width:0.25;stroke-miterlimit:10;" x1="74" y1="0" x2="74" y2="370"/>
	<line style="fill:none;stroke:#825A46;stroke-width:0.25;stroke-miterlimit:10;" x1="88.8" y1="0" x2="88.8" y2="370"/>
	<line style="fill:none;stroke:#825A46;stroke-width:0.25;stroke-miterlimit:10;" x1="103.6" y1="0" x2="103.6" y2="370"/>
	<line style="fill:none;stroke:#825A46;stroke-width:0.25;stroke-miterlimit:10;" x1="118.4" y1="0" x2="118.4" y2="370"/>
	<line style="fill:none;stroke:#825A46;stroke-width:0.25;stroke-miterlimit:10;" x1="133.2" y1="0" x2="133.2" y2="370"/>
	<line style="fill:none;stroke:#825A46;stroke-width:0.25;stroke-miterlimit:10;" x1="148" y1="0" x2="148" y2="370"/>
	<line style="fill:none;stroke:#825A46;stroke-width:0.25;stroke-miterlimit:10;" x1="162.8" y1="0" x2="162.8" y2="370"/>
	<line style="fill:none;stroke:#825A46;stroke-width:0.25;stroke-miterlimit:10;" x1="177.6" y1="0" x2="177.6" y2="370"/>
	<line style="fill:none;stroke:#825A46;stroke-width:0.25;stroke-miterlimit:10;" x1="192.4" y1="0" x2="192.4" y2="370"/>
	<line style="fill:none;stroke:#825A46;stroke-width:0.25;stroke-miterlimit:10;" x1="207.2" y1="0" x2="207.2" y2="370"/>
	<line style="fill:none;stroke:#825A46;stroke-width:0.25;stroke-miterlimit:10;" x1="222" y1="0" x2="222" y2="370"/>
	<line style="fill:none;stroke:#825A46;stroke-width:0.25;stroke-miterlimit:10;" x1="236.8" y1="0" x2="236.8" y2="370"/>
	<line style="fill:none;stroke:#825A46;stroke-width:0.25;stroke-miterlimit:10;" x1="251.6" y1="0" x2="251.6" y2="370"/>
	<line style="fill:none;stroke:#825A46;stroke-width:0.25;stroke-miterlimit:10;" x1="266.4" y1="0" x2="266.4" y2="370"/>
	<line style="fill:none;stroke:#825A46;stroke-width:0.25;stroke-miterlimit:10;" x1="281.2" y1="0" x2="281.2" y2="370"/>
	<line style="fill:none;stroke:#825A46;stroke-width:0.25;stroke-miterlimit:10;" x1="296" y1="0" x2="296" y2="370"/>
	<line style="fill:none;stroke:#825A46;stroke-width:0.25;stroke-miterlimit:10;" x1="310.8" y1="0" x2="310.8" y2="370"/>
	<line style="fill:none;stroke:#825A46;stroke-width:0.25;stroke-miterlimit:10;" x1="325.6" y1="0" x2="325.6" y2="370"/>
	<line style="fill:none;stroke:#825A46;stroke-width:0.25;stroke-miterlimit:10;" x1="340.4" y1="0" x2="340.4" y2="370"/>
	<line style="fill:none;stroke:#825A46;stroke-width:0.25;stroke-miterlimit:10;" x1="355.2" y1="0" x2="355.2" y2="370"/>
	<line style="fill:none;stroke:#825A46;stroke-width:0.25;stroke-miterlimit:10;" x1="370" y1="0" x2="370" y2="370"/>
</g>
<g>
	<line style="fill:none;stroke:#825A46;stroke-width:0.2459;stroke-miterlimit:10;" x1="367" y1="3" x2="3" y2="3"/>
	<line style="fill:none;stroke:#825A46;stroke-width:0.2459;stroke-miterlimit:10;" x1="367" y1="17.6" x2="3" y2="17.6"/>
	<line style="fill:none;stroke:#825A46;stroke-width:0.2459;stroke-miterlimit:10;" x1="367" y1="32.1" x2="3" y2="32.1"/>
	<line style="fill:none;stroke:#825A46;stroke-width:0.2459;stroke-miterlimit:10;" x1="367" y1="46.7" x2="3" y2="46.7"/>
	<line style="fill:none;stroke:#825A46;stroke-width:0.2459;stroke-miterlimit:10;" x1="367" y1="61.2" x2="3" y2="61.2"/>
	<line style="fill:none;stroke:#825A46;stroke-width:0.2459;stroke-miterlimit:10;" x1="367" y1="75.8" x2="3" y2="75.8"/>
	<line style="fill:none;stroke:#825A46;stroke-width:0.2459;stroke-miterlimit:10;" x1="367" y1="90.4" x2="3" y2="90.4"/>
	<line style="fill:none;stroke:#825A46;stroke-width:0.2459;stroke-miterlimit:10;" x1="367" y1="104.9" x2="3" y2="104.9"/>
	<line style="fill:none;stroke:#825A46;stroke-width:0.2459;stroke-miterlimit:10;" x1="367" y1="119.5" x2="3" y2="119.5"/>
	<line style="fill:none;stroke:#825A46;stroke-width:0.2459;stroke-miterlimit:10;" x1="367" y1="134" x2="3" y2="134"/>
	<line style="fill:none;stroke:#825A46;stroke-width:0.2459;stroke-miterlimit:10;" x1="367" y1="148.6" x2="3" y2="148.6"/>
	<line style="fill:none;stroke:#825A46;stroke-width:0.2459;stroke-miterlimit:10;" x1="367" y1="163.2" x2="3" y2="163.2"/>
	<line style="fill:none;stroke:#825A46;stroke-width:0.2459;stroke-miterlimit:10;" x1="367" y1="177.7" x2="3" y2="177.7"/>
	<line style="fill:none;stroke:#825A46;stroke-width:0.2459;stroke-miterlimit:10;" x1="367" y1="192.3" x2="3" y2="192.3"/>
	<line style="fill:none;stroke:#825A46;stroke-width:0.2459;stroke-miterlimit:10;" x1="367" y1="206.8" x2="3" y2="206.8"/>
	<line style="fill:none;stroke:#825A46;stroke-width:0.2459;stroke-miterlimit:10;" x1="367" y1="221.4" x2="3" y2="221.4"/>
	<line style="fill:none;stroke:#825A46;stroke-width:0.2459;stroke-miterlimit:10;" x1="367" y1="236" x2="3" y2="236"/>
	<line style="fill:none;stroke:#825A46;stroke-width:0.2459;stroke-miterlimit:10;" x1="367" y1="250.5" x2="3" y2="250.5"/>
	<line style="fill:none;stroke:#825A46;stroke-width:0.2459;stroke-miterlimit:10;" x1="367" y1="265.1" x2="3" y2="265.1"/>
	<line style="fill:none;stroke:#825A46;stroke-width:0.2459;stroke-miterlimit:10;" x1="367" y1="279.6" x2="3" y2="279.6"/>
	<line style="fill:none;stroke:#825A46;stroke-width:0.2459;stroke-miterlimit:10;" x1="367" y1="294.2" x2="3" y2="294.2"/>
	<line style="fill:none;stroke:#825A46;stroke-width:0.2459;stroke-miterlimit:10;" x1="367" y1="308.8" x2="3" y2="308.8"/>
	<line style="fill:none;stroke:#825A46;stroke-width:0.2459;stroke-miterlimit:10;" x1="367" y1="323.3" x2="3" y2="323.3"/>
	<line style="fill:none;stroke:#825A46;stroke-width:0.2459;stroke-miterlimit:10;" x1="367" y1="337.9" x2="3" y2="337.9"/>
	<line style="fill:none;stroke:#825A46;stroke-width:0.2459;stroke-miterlimit:10;" x1="367" y1="352.4" x2="3" y2="352.4"/>
	<line style="fill:none;stroke:#825A46;stroke-width:0.2459;stroke-miterlimit:10;" x1="367" y1="367" x2="3" y2="367"/>
</g>
<g>
	<rect style="fill:#825A46;" width="370" height="3"/>
	<rect y="367" style="fill:#825A46;" width="370" height="3"/>
</g>
<g>
	<rect x="367" style="fill:#825A46;" width="3" height="370"/>
	<rect style="fill:#825A46;" width="3" height="370"/>
</g>
</svg>
