<?xml version="1.0" encoding="utf-8"?>
<!-- Generator: Adobe Illustrator 15.1.0, SVG Export Plug-In . SVG Version: 6.00 Build 0)  -->
<!DOCTYPE svg PUBLIC "-//W3C//DTD SVG 1.1//EN" "http://www.w3.org/Graphics/SVG/1.1/DTD/svg11.dtd">
<svg version="1.1"
	 id="Calque_1" xmlns:inkscape="http://www.inkscape.org/namespaces/inkscape" xmlns:sodipodi="http://sodipodi.sourceforge.net/DTD/sodipodi-0.dtd" xmlns:rdf="http://www.w3.org/1999/02/22-rdf-syntax-ns#" xmlns:svg="http://www.w3.org/2000/svg" xmlns:cc="http://creativecommons.org/ns#" xmlns:dc="http://purl.org/dc/elements/1.1/"
	 xmlns="http://www.w3.org/2000/svg" xmlns:xlink="http://www.w3.org/1999/xlink" x="0px" y="0px" width="318.881px"
	 height="318.91px" viewBox="0 0 318.881 318.91" enable-background="new 0 0 318.881 318.91" xml:space="preserve">
<circle fill="#FFFFFF" cx="159.5" cy="159.5" r="159.5"/>
<g transform="translate(0,-952.36218)">
	<path d="M158.816,1030.813c-1.455,0.198-2.779,0.943-3.706,2.081l-12.471,14.929l-22.955-2.534
		c-3.177-0.332-6.021,1.979-6.353,5.16c-0.139,1.335,0.19,2.678,0.931,3.797l17.351,26.058c1.554,2.794,5.077,3.798,7.868,2.243
		c2.791-1.556,3.794-5.083,2.24-7.877c-0.154-0.277-0.331-0.542-0.528-0.79l-10.483-15.743l13.736,1.538
		c1.913,0.221,3.81-0.525,5.061-1.99l10.031-12.034l10.031,12.034c1.25,1.465,3.149,2.211,5.061,1.99l13.736-1.538l-10.483,15.743
		c-1.989,2.503-1.577,6.146,0.922,8.138c2.5,1.992,6.139,1.578,8.128-0.925c0.198-0.248,0.375-0.512,0.529-0.789l17.352-26.058
		c1.764-2.667,1.033-6.26-1.63-8.026c-1.118-0.742-2.459-1.071-3.793-0.932l-22.955,2.534l-12.471-14.929
		C162.716,1031.367,160.775,1030.582,158.816,1030.813L158.816,1030.813z M37.537,1042.395c-3.194,0.15-5.663,2.864-5.513,6.062
		s2.86,5.668,6.055,5.519h23.315l33.799,40.534H38.079c-0.181-0.008-0.362-0.008-0.542,0c-3.194,0.15-5.663,2.864-5.513,6.062
		c0.15,3.198,2.861,5.669,6.056,5.52l0,0h104.108v52.115h-29.552c-2.709-13.161-14.372-23.162-28.287-23.162
		s-25.578,10.001-28.287,23.162H38.079c-0.181-0.009-0.362-0.009-0.542,0c-3.194,0.149-5.663,2.864-5.513,6.062
		c0.15,3.197,2.861,5.669,6.056,5.52h17.983c2.709,13.159,14.372,23.161,28.287,23.161s25.578-10.002,28.287-23.161h35.335
		c3.194-0.003,5.784-2.594,5.784-5.791v-63.697c0-3.198-2.59-5.791-5.784-5.791h-37.775l-41.662-50.035
		c-1.096-1.315-2.717-2.077-4.428-2.081H38.079C37.898,1042.386,37.717,1042.386,37.537,1042.395L37.537,1042.395z
		 M254.429,1042.395c-1.518,0.153-2.916,0.901-3.886,2.081l-41.662,50.034h-37.774c-0.182-0.008-0.363-0.008-0.543,0
		c-2.98,0.281-5.254,2.793-5.242,5.791v63.697c0,3.197,2.59,5.788,5.785,5.791h35.335c2.708,13.159,14.37,23.161,28.285,23.161
		s25.577-10.002,28.287-23.161h17.983c3.195,0.04,5.818-2.519,5.858-5.717c0.041-3.197-2.515-5.825-5.709-5.865
		c-0.05,0-0.1,0-0.149,0h-17.983c-2.71-13.159-14.372-23.162-28.287-23.162s-25.577,10.003-28.285,23.162H176.89v-52.115h104.108
		c3.195,0.041,5.818-2.518,5.858-5.716c0.041-3.198-2.516-5.824-5.709-5.866c-0.05,0-0.1,0-0.149,0h-57.114l33.798-40.534h23.316
		c3.195,0.044,5.82-2.511,5.865-5.709c0.045-3.199-2.509-5.828-5.703-5.873c-0.054,0-0.107,0-0.162,0h-26.026
		C254.791,1042.387,254.61,1042.387,254.429,1042.395L254.429,1042.395z M84.349,1146.625c9.651,0,17.352,7.708,17.352,17.373
		c0,9.662-7.7,17.37-17.352,17.37s-17.352-7.708-17.352-17.37C66.998,1154.333,74.698,1146.625,84.349,1146.625z M234.728,1146.625
		c9.651,0,17.352,7.708,17.352,17.373c0,9.662-7.7,17.37-17.352,17.37s-17.352-7.708-17.352-17.37
		C217.376,1154.333,225.076,1146.625,234.728,1146.625z"/>
</g>
</svg>
