<?xml version="1.0" encoding="utf-8"?>
<!-- Generator: Adobe Illustrator 15.1.0, SVG Export Plug-In . SVG Version: 6.00 Build 0)  -->
<!DOCTYPE svg PUBLIC "-//W3C//DTD SVG 1.1//EN" "http://www.w3.org/Graphics/SVG/1.1/DTD/svg11.dtd">
<svg version="1.1" id="Calque_1" xmlns="http://www.w3.org/2000/svg" xmlns:xlink="http://www.w3.org/1999/xlink" x="0px" y="0px"
	 width="319px" height="319px" viewBox="0 0 319 319" enable-background="new 0 0 319 319" xml:space="preserve">
<circle fill="#FFFFFF" cx="159.5" cy="159.5" r="159.5"/>
<path d="M275.152,195.654c-1.092-3.873-6.688-23.204-10.343-27.354c-0.907-1.617-2.23-3.042-4.038-4.165
	c-0.079-0.05-0.164-0.093-0.248-0.135c-0.441-0.212-4.555-2.075-12.653-2.075c-6.841,0-14.446,1.326-22.624,3.94
	c-2.615-0.5-12.945-2.604-23.93-6.517l1.412-3.418c0.559-1.352-0.082-2.897-1.434-3.458c-1.348-0.553-2.897,0.082-3.455,1.434
	l-1.469,3.551c-1.928-0.778-3.841-1.601-5.703-2.493l1.877-5.763c0.451-1.389-0.308-2.881-1.699-3.334
	c-1.389-0.46-2.885,0.307-3.336,1.696l-1.6,4.9c-1.984-1.13-3.865-2.329-5.58-3.612l4.114-5.049
	c0.924-1.132,0.752-2.799-0.381-3.723c-1.136-0.923-2.804-0.749-3.724,0.381l-3.055,3.75c-0.621-2.376-1.574-5.723-2.854-9.502
	l3.133-3.527c0.969-1.093,0.87-2.765-0.223-3.736c-1.094-0.971-2.762-0.871-3.735,0.22l-1.238,1.395
	c-2.155-5.467-4.924-11.201-8.301-15.847c-0.028-0.05-0.031-0.108-0.062-0.159c-0.056-0.082-0.138-0.129-0.198-0.204
	c-2.89-3.895-6.22-6.978-9.999-8.398c-0.852-0.487-2.935-1.402-6.539-1.402c-1.011,0-2.22,0.103-3.562,0.296
	c-0.868-3.474-3.635-10.309-12.325-14.333c-11.076-5.13-35.258,22.631-43.696,32.908c-0.974-0.098-1.283-0.307-1.289-0.325
	c-0.307-0.402-7.639-9.83-17.276-9.83c-4.278,0-8.263,1.826-11.838,5.43c-0.164,0.167-0.307,0.352-0.421,0.553
	c-0.293,0.513-7.046,12.597-2.516,24.962c0.59,7.605,1.058,27.323-3.443,33.064c-0.082,0.106-0.135,0.228-0.198,0.341
	c-0.024,0.045-0.066,0.068-0.09,0.117c-0.363,0.732-8.88,18.076-6.425,28.207c0.032,0.137,0.077,0.273,0.132,0.402
	c0.354,0.842,9.171,20.637,52.764,20.637c0.098,0,0.196-0.006,0.291-0.018c0.352-0.039,35.438-3.91,45.935-1.803
	c1.35,0.273,3.038,0.676,5.043,1.156c6.152,1.471,15.141,3.584,26.127,4.809c0.033,0.006,0.061,0.029,0.095,0.031
	c0.093,0.008,0.183,0.016,0.274,0.016c0.004,0,0.009-0.006,0.012-0.006c5.133,0.564,10.658,0.945,16.602,0.945
	c8.009,0,16.697-0.68,25.854-2.375c0.005-0.004,0.01,0,0.016-0.004c0,0,0,0,0.002,0c4.049-0.752,8.183-1.682,12.402-2.875
	c4.176-1.309,40.939-13.201,45.405-28.23C275.287,196.648,275.291,196.137,275.152,195.654z M258.133,168.73
	c1.541,0.994,2.405,2.186,2.645,3.644c0.537,3.318-2.15,7.493-3.342,8.964c-17.064,16.162-38.912,24.357-64.946,24.357
	c-6.382,0-12.333-0.523-17.625-1.264c29.429-6.883,48.608-29.195,52.11-33.543c7.604-2.418,14.635-3.672,20.893-3.672
	C254.106,167.217,257.525,168.484,258.133,168.73z M160.025,146.948c0.503,0.447,1.133,0.667,1.757,0.667
	c0.729,0,1.456-0.302,1.981-0.889l6.613-7.446c1.209,3.837,2.098,7.255,2.627,9.666c0.028,0.124,0.092,0.235,0.138,0.354l-4.397,5.4
	c-0.924,1.132-0.752,2.799,0.381,3.723c0.492,0.399,1.082,0.595,1.67,0.595c0.771,0,1.531-0.333,2.053-0.974l4.137-5.075
	c2.223,1.675,4.673,3.223,7.259,4.646l-2.303,7.067c-0.452,1.389,0.308,2.884,1.698,3.335c0.268,0.086,0.543,0.127,0.814,0.127
	c1.117,0,2.151-0.711,2.518-1.825l2.046-6.279c1.751,0.828,3.53,1.606,5.323,2.334l-2.674,6.458
	c-0.559,1.35,0.082,2.896,1.436,3.456c0.33,0.138,0.672,0.201,1.011,0.201c1.039,0,2.022-0.614,2.444-1.636l2.726-6.59
	c8.431,3.032,16.418,4.993,21.197,6.03c-7.711,8.479-30.582,30.326-61.797,30.863c-3.966-1.072-6.271-1.916-6.284-1.918
	c-11.179-4.906-29.783-5.938-43.421-5.938c-3.81,0-7.097,0.078-9.647,0.17c-0.984-4.875-3.003-9.271-5.636-13.203l8.136-6.284
	l74.472,8.396c0.101,0.01,0.199,0.016,0.299,0.016c1.076,0,2.062-0.658,2.464-1.686c0.437-1.115,0.065-2.387-0.901-3.096
	l-41.588-30.463l28.379-21.914c1.274,2.707,2.437,5.517,3.455,8.282l-8.603,9.69C158.834,144.307,158.932,145.98,160.025,146.948z
	 M162.48,120.465l-71.974,55.579c-10.084-11.904-25.253-18.718-30.498-20.821c0.101-6.539-0.31-12.058-0.413-13.312
	c-0.021-0.251-0.077-0.498-0.167-0.733c-0.667-1.733-1.045-3.479-1.217-5.184c5.2,1.376,15.67,3.572,29.553,3.572
	c19.514,0,45.715-4.39,73.266-21.504C161.528,118.832,162.01,119.639,162.48,120.465z M132.215,150.52l34.791,25.49l-59.161-6.67
	L132.215,150.52z M59.781,160.888c8.409,3.683,29.932,14.741,34.17,32.84l-1.027,0.008c-24.84-0.002-34.398-12.225-36.851-16.207
	C58.347,173.498,59.368,167.141,59.781,160.888z M129.162,93.814c6.697,3.101,8.774,8.25,9.401,10.703
	c-4.569,1.357-10.335,3.842-17.54,8.34c-1.868,0.744-15.635,6.163-25.735,8.271C108.746,105.525,124.357,91.597,129.162,93.814z
	 M69.125,117.056c6.991,0,12.989,7.647,12.997,7.647c1.186,1.722,3.35,2.561,6.618,2.561c10.682,0,33.512-9.195,34.48-9.586
	c0.143-0.058,0.28-0.127,0.413-0.211c12.021-7.544,19.49-9.126,23.639-9.126c2.625,0,3.821,0.653,3.837,0.653l0,0
	c0.207,0.148,0.429,0.265,0.667,0.349c2.149,0.76,4.176,2.347,6.065,4.467c-46.585,28.704-89.991,19.311-99.527,16.701
	c0.622-4.911,2.453-8.792,2.998-9.856C63.806,118.237,66.367,117.056,69.125,117.056z M250.598,211.297l-2.086-4.143
	c-0.658-1.309-2.248-1.834-3.553-1.176c-1.306,0.656-1.83,2.25-1.175,3.555l2.021,4.02c-3.883,1.734-7.685,3.254-11.008,4.479
	l-1.983-6.781c-0.41-1.396-1.879-2.209-3.284-1.797c-1.402,0.41-2.206,1.881-1.796,3.283l2.062,7.043
	c-0.543,0.182-1.088,0.361-1.563,0.51c-3.339,0.941-6.612,1.688-9.847,2.338l-1.902-6.203c-0.428-1.396-1.907-2.191-3.305-1.756
	c-1.396,0.43-2.184,1.908-1.754,3.305l1.717,5.607c-5.04,0.807-9.93,1.307-14.621,1.543v-5.264c0-1.463-1.184-2.646-2.646-2.646
	c-1.462,0-2.646,1.184-2.646,2.646v5.428c-5.483,0.062-10.655-0.186-15.474-0.639l0.465-4.516c0.147-1.455-0.91-2.756-2.362-2.906
	c-1.474-0.139-2.755,0.908-2.905,2.361l-0.461,4.482c-9.547-1.223-17.392-3.084-22.903-4.4c-2.083-0.496-3.837-0.918-5.236-1.193
	c-7.544-1.516-25.542-0.312-37.121,0.709v-7.277c0-1.463-1.185-2.646-2.646-2.646c-1.46,0-2.646,1.184-2.646,2.646v7.77
	c-2.604,0.254-4.421,0.449-4.996,0.514c-2.104-0.004-4.106-0.059-6.035-0.154l1.73-9.83c0.254-1.438-0.709-2.811-2.149-3.062
	c-1.434-0.266-2.812,0.707-3.064,2.145l-1.826,10.361c-4.027-0.391-7.631-0.98-10.851-1.711l2.365-7.381
	c0.445-1.391-0.32-2.883-1.712-3.328c-1.397-0.449-2.881,0.32-3.326,1.709l-2.447,7.641c-3.165-0.98-5.858-2.1-8.16-3.258
	l3.204-7.295c0.587-1.34-0.021-2.9-1.36-3.488c-1.331-0.582-2.9,0.021-3.485,1.361l-2.958,6.732
	c-5.229-3.572-7.202-6.945-7.591-7.684c-1.13-5.312,1.752-14.172,4.152-20.031c4.736,6.039,16.114,16.115,39.491,16.117l1.257-0.014
	c0.061-0.004,6.303-0.418,14.794-0.418c13.129,0,30.953,0.953,41.428,5.549c0.747,0.279,18.522,6.844,42.087,6.844
	c27.494,0,50.613-8.723,68.709-25.926c0.071-0.066,0.141-0.141,0.203-0.215c0.307-0.367,1.871-2.332,3.125-5.025
	c1.727,4.693,3.668,10.752,5.309,16.48C267.733,201.576,259.496,206.91,250.598,211.297z"/>
</svg>
