<?xml version="1.0" encoding="utf-8"?>
<!-- Generator: Adobe Illustrator 15.1.0, SVG Export Plug-In . SVG Version: 6.00 Build 0)  -->
<!DOCTYPE svg PUBLIC "-//W3C//DTD SVG 1.1//EN" "http://www.w3.org/Graphics/SVG/1.1/DTD/svg11.dtd">
<svg version="1.1" id="Calque_1" xmlns="http://www.w3.org/2000/svg" xmlns:xlink="http://www.w3.org/1999/xlink" x="0px" y="0px"
	 width="319px" height="319px" viewBox="0 0 319 319" enable-background="new 0 0 319 319" xml:space="preserve">
<circle fill="#FFFFFF" cx="159.5" cy="159.5" r="159.5"/>
<g>
	<path d="M159.728,199.504c1.372,0,2.287-0.459,3.201-1.371l40.23-40.233c0.915-0.914,1.372-1.828,1.372-3.199
		c0-1.373-0.458-2.287-1.372-3.202l-36.573-36.573c-1.829-1.829-4.573-1.829-6.401,0l-40.231,40.23c-1.829,1.83-1.829,4.572,0,6.4
		l36.574,36.575C157.442,199.045,158.814,199.504,159.728,199.504z M163.844,124.983l30.172,29.718l-33.829,33.831l-29.716-30.174
		L163.844,124.983z"/>
	<path d="M111.726,176.645l-4.571,4.57c-1.829,1.83-1.829,4.574,0,6.402c0.914,0.914,2.286,1.369,3.2,1.369
		c1.372,0,2.285-0.455,3.2-1.369l4.572-4.572c1.828-1.83,1.828-4.572,0-6.4C116.298,174.814,113.554,174.814,111.726,176.645z"/>
	<path d="M143.727,202.246c-1.829-1.83-4.571-1.83-6.4,0l-4.572,4.57c-1.829,1.83-1.829,4.572,0,6.402
		c0.915,0.914,2.286,1.371,3.201,1.371c1.372,0,2.286-0.457,3.2-1.371l4.571-4.572C145.556,206.816,145.556,204.074,143.727,202.246
		z"/>
	<path d="M110.811,201.332l-4.571,4.57c-1.829,1.83-1.829,4.572,0,6.402c0.915,0.914,2.285,1.369,3.199,1.369
		c1.372,0,2.286-0.455,3.2-1.369l4.572-4.572c1.829-1.83,1.829-4.572,0-6.4C115.383,199.504,112.639,199.504,110.811,201.332z"/>
	<path d="M84.752,203.617l-4.572,4.57c-1.828,1.83-1.828,4.574,0,6.402c0.915,0.914,2.286,1.371,3.201,1.371
		c1.372,0,2.286-0.457,3.2-1.371l4.572-4.572c1.829-1.83,1.829-4.572,0-6.4C89.781,201.789,86.581,201.789,84.752,203.617z"/>
	<path d="M110.811,229.219l-4.571,4.572c-1.829,1.828-1.829,4.572,0,6.4c0.915,0.914,2.285,1.371,3.199,1.371
		c1.372,0,2.286-0.457,3.2-1.371l4.572-4.572c1.829-1.828,1.829-4.572,0-6.4C115.383,227.389,112.183,227.389,110.811,229.219z"/>
	<path d="M210.475,89.324c1.37,0,2.285-0.457,3.199-1.372l4.572-4.572c1.829-1.829,1.829-4.572,0-6.399
		c-1.829-1.829-4.572-1.829-6.401,0l-4.571,4.571c-1.828,1.829-1.828,4.572,0,6.401C208.188,88.867,209.103,89.324,210.475,89.324z"
		/>
	<path d="M236.075,114.926c1.372,0,2.287-0.458,3.201-1.372l4.57-4.571c1.829-1.829,1.829-4.572,0-6.401
		c-1.828-1.828-4.57-1.828-6.399,0l-4.571,4.572c-1.829,1.829-1.829,4.572,0,6.4C233.79,114.468,234.705,114.926,236.075,114.926z"
		/>
	<path d="M209.561,113.554c1.37,0,2.286-0.457,3.199-1.371l4.572-4.572c1.829-1.829,1.829-4.572,0-6.401
		c-1.828-1.829-4.572-1.829-6.401,0l-4.57,4.572c-1.829,1.829-1.829,4.572,0,6.401C206.817,113.554,208.188,113.554,209.561,113.554
		z"/>
	<path d="M183.501,115.839c1.372,0,2.286-0.457,3.201-1.372l4.571-4.571c1.828-1.829,1.828-4.572,0-6.401
		c-1.829-1.829-4.571-1.829-6.4,0l-4.572,4.572c-1.829,1.829-1.829,4.571,0,6.4C181.216,115.382,182.129,115.839,183.501,115.839z"
		/>
	<path d="M209.103,141.441c1.372,0,2.285-0.457,3.2-1.372l4.571-4.572c1.829-1.829,1.829-4.571,0-6.4s-4.571-1.829-6.399,0
		l-4.573,4.572c-1.828,1.829-1.828,4.571,0,6.4C206.817,140.984,208.188,141.441,209.103,141.441z"/>
	<path d="M254.819,186.701l-27.43-27.43l27.43-27.43c18.744-18.745,18.744-49.375,0-68.119
		c-9.144-9.143-21.029-14.172-34.288-14.172c-12.343,0-24.688,5.029-33.829,14.172l-27.431,27.431l-27.431-27.431
		c-9.144-9.143-21.03-14.172-33.831-14.172c-13.258,0-25.144,5.029-34.287,14.172C54.58,72.866,49.55,84.751,49.55,97.552
		c0,13.258,5.028,25.145,14.171,34.289l27.43,27.43l-27.43,27.43c-9.142,9.145-14.171,21.031-14.171,34.289
		c0,12.801,5.028,25.143,14.171,34.287c9.144,9.145,21.03,14.174,33.831,14.174c12.801,0,25.145-5.029,34.288-14.174l27.432-27.432
		l27.431,27.432c9.142,9.143,21.028,14.172,34.288,14.172c12.8,0,25.143-5.027,34.288-14.172
		c9.142-9.145,14.171-21.029,14.171-33.83C268.993,208.188,263.963,195.846,254.819,186.701z M70.123,125.44
		c-7.314-7.315-11.429-17.372-11.429-27.888c0-10.515,4.114-20.115,11.429-27.43c7.315-7.315,17.372-11.429,27.43-11.429
		c10.515,0,20.116,4.114,27.43,11.429l27.431,27.43l-10.514,10.516l-0.457,0.915c0-0.915-0.457-1.829-1.372-2.743l-4.572-4.572
		c-1.829-1.829-4.571-1.829-6.4,0c-1.829,1.829-1.829,4.572,0,6.401l4.571,4.571c0.915,0.915,1.829,0.915,2.744,1.372
		l-20.573,20.573c0-0.914-0.457-1.829-1.372-2.743l-4.572-4.572c-1.829-1.829-4.571-1.829-6.4,0c-1.829,1.829-1.829,4.572,0,6.401
		l4.572,4.571c0.914,0.915,1.829,1.372,2.743,1.372L97.554,152.87L70.123,125.44z M125.441,248.42
		c-7.314,7.314-17.373,11.43-27.43,11.43c-10.515,0-20.116-4.115-27.43-11.43c-7.315-7.314-11.429-17.373-11.429-27.43
		c0-10.516,4.114-20.115,11.429-27.43L193.102,70.123c7.314-7.315,17.373-11.429,27.889-11.429c10.514,0,20.114,4.114,27.43,11.429
		c15.087,15.086,15.087,39.774,0,55.317L125.441,248.42z M248.42,248.42c-7.315,7.314-17.373,11.43-27.43,11.43
		c-10.516,0-20.116-4.115-27.432-11.43l-27.429-27.43l12.343-12.344l3.201,3.199c0.914,0.916,2.285,1.373,3.201,1.373
		c1.371,0,2.286-0.459,3.199-1.373c1.829-1.828,1.829-4.57,0-6.4l-3.199-3.199l2.286-2.287l16.915-16.914l3.199,3.199
		c0.915,0.914,2.287,1.373,3.201,1.373c1.37,0,2.285-0.459,3.199-1.373c1.828-1.828,1.828-4.572,0-6.398l-3.199-3.201l10.516-10.516
		l27.43,27.432c7.314,7.314,11.429,17.371,11.429,27.43C259.849,231.047,255.734,241.105,248.42,248.42z"/>
	<path d="M209.103,213.674c1.372,0,2.285-0.455,3.2-1.371c1.829-1.828,1.829-4.57,0-6.4l-4.572-4.57
		c-1.829-1.828-4.571-1.828-6.399,0c-1.829,1.828-1.829,4.57,0,6.4l4.57,4.57C206.817,213.219,208.188,213.674,209.103,213.674z"/>
	<path d="M210.018,226.934c-1.829-1.83-4.572-1.83-6.401,0c-1.829,1.828-1.829,4.572,0,6.4l4.572,4.572
		c0.914,0.914,2.286,1.371,3.199,1.371c1.372,0,2.286-0.459,3.201-1.371c1.827-1.828,1.827-4.572,0-6.4L210.018,226.934z"/>
	<path d="M235.618,201.332c-1.828-1.828-4.571-1.828-6.399,0c-1.829,1.828-1.829,4.57,0,6.4l4.571,4.572
		c0.915,0.914,2.285,1.369,3.2,1.369c1.372,0,2.286-0.455,3.199-1.369c1.829-1.83,1.829-4.572,0-6.402L235.618,201.332z"/>
	<path d="M82.923,100.296c-1.829-1.829-4.572-1.829-6.4,0c-1.829,1.829-1.829,4.572,0,6.4l4.572,4.572
		c0.915,0.915,2.286,1.371,3.201,1.371c1.371,0,2.286-0.457,3.199-1.371c1.829-1.829,1.829-4.572,0-6.4L82.923,100.296z"/>
	<path d="M107.154,85.667c0.914,0.915,2.286,1.372,3.2,1.372c1.372,0,2.285-0.458,3.2-1.372c1.829-1.829,1.829-4.572,0-6.401
		l-4.572-4.571c-1.829-1.828-4.571-1.828-6.4,0c-1.829,1.829-1.829,4.571,0,6.4L107.154,85.667z"/>
	<path d="M108.982,113.554c1.372,0,2.286-0.457,3.201-1.371c1.828-1.829,1.828-4.572,0-6.401l-4.571-4.572
		c-1.829-1.829-4.572-1.829-6.401,0s-1.829,4.572,0,6.401l4.572,4.572C106.696,113.554,108.068,113.554,108.982,113.554z"/>
</g>
</svg>
