<?xml version="1.0" encoding="utf-8"?>
<!-- Generator: Adobe Illustrator 15.1.0, SVG Export Plug-In . SVG Version: 6.00 Build 0)  -->
<!DOCTYPE svg PUBLIC "-//W3C//DTD SVG 1.1//EN" "http://www.w3.org/Graphics/SVG/1.1/DTD/svg11.dtd">
<svg version="1.1" id="Calque_1" xmlns="http://www.w3.org/2000/svg" xmlns:xlink="http://www.w3.org/1999/xlink" x="0px" y="0px"
	 width="319px" height="319px" viewBox="0 0 319 319" enable-background="new 0 0 319 319" xml:space="preserve">
<circle fill="#FFFFFF" cx="159.5" cy="159.5" r="159.5"/>
<g>
	<path d="M189.621,192.578v-5.779c20.117-10.803,32.539-31.414,32.539-54.386s-12.422-43.585-32.539-54.386V60.783
		c0-16.119-13.117-29.232-29.237-29.232c-16.116,0-29.229,13.113-29.229,29.232v17.25c-20.114,10.805-32.533,31.414-32.533,54.383
		c0,22.971,12.421,43.58,32.533,54.383v5.79c-14.27,9.716-22.728,25.6-22.728,42.899c0,28.65,23.308,51.96,51.957,51.96
		c28.653,0,51.961-23.31,51.961-51.96C212.348,218.182,203.893,202.296,189.621,192.578z M214.836,132.413
		c0,18.894-9.539,35.973-25.215,45.916V86.496C205.299,96.439,214.836,113.52,214.836,132.413z M105.946,132.413
		c0-18.89,9.536-35.97,25.209-45.91v91.821C115.482,168.384,105.946,151.304,105.946,132.413z M160.388,280.117
		c-24.612,0-44.633-20.022-44.633-44.635c0-15.443,7.854-29.577,21.009-37.81l1.719-1.075V60.78
		c0-12.082,9.826-21.908,21.905-21.908c12.082,0,21.91,9.826,21.91,21.908v135.809l1.72,1.075
		c13.154,8.237,21.007,22.373,21.007,37.814C205.023,260.095,185,280.117,160.388,280.117z"/>
	<path d="M179.858,204.296l-5.393-3.376V60.78c0-7.761-6.316-14.077-14.081-14.077c-7.76,0-14.074,6.316-14.074,14.077V200.93
		l-5.394,3.377c-10.854,6.795-17.334,18.448-17.334,31.176c0,20.297,16.511,36.805,36.805,36.805
		c20.293,0,36.806-16.511,36.806-36.805C197.193,222.753,190.713,211.096,179.858,204.296z M153.635,201.63h13.507v3.351
		l6.646,4.157h-26.78l6.629-4.149v-3.358H153.635z M167.142,91.764h-13.507v-7.324h13.507V91.764z M167.142,99.088v7.325h-13.507
		v-7.325H167.142z M167.142,113.736v7.324h-13.507v-7.324H167.142z M167.142,128.385v7.324h-13.507v-7.324H167.142z
		 M167.142,143.033v7.324h-13.507v-7.324H167.142z M167.142,157.682v7.324h-13.507v-7.324H167.142z M167.142,172.332v7.324h-13.507
		v-7.324H167.142z M167.142,186.98v7.325h-13.507v-7.325H167.142z M160.384,54.027c3.724,0,6.757,3.029,6.757,6.753v16.336h-13.507
		V60.78C153.635,57.057,156.664,54.027,160.384,54.027z M137.976,216.46h44.833c1.892,2.215,3.449,4.673,4.6,7.324H133.37
		C134.525,221.133,136.08,218.675,137.976,216.46z M189.869,235.482c0,0.996-0.053,1.979-0.148,2.953h-58.662
		c-0.097-0.974-0.149-1.957-0.149-2.953c0-1.482,0.141-2.936,0.357-4.372h58.249C189.729,232.547,189.869,234,189.869,235.482z
		 M144.714,260.404h31.348c-4.548,2.868-9.911,4.559-15.674,4.559C154.625,264.963,149.261,263.276,144.714,260.404z
		 M183.983,253.08h-47.188c-1.661-2.223-3.015-4.682-4.002-7.325h55.189C186.996,248.402,185.644,250.859,183.983,253.08z"/>
	<path d="M72.99,130.219c2.789,0,4.148,1.538,6.501,4.482c2.441,3.053,5.78,7.236,12.22,7.236v-7.324
		c-2.789,0-4.146-1.535-6.498-4.482c-2.44-3.053-5.78-7.236-12.223-7.236c-6.442,0-9.782,4.184-12.222,7.236
		c-2.353,2.944-3.712,4.482-6.501,4.482c-2.786,0-4.142-1.535-6.492-4.482c-2.438-3.053-5.777-7.236-12.217-7.236v7.324
		c2.786,0,4.143,1.535,6.493,4.482c2.437,3.053,5.776,7.236,12.216,7.236c6.442,0,9.783-4.184,12.223-7.236
		C68.845,131.757,70.201,130.219,72.99,130.219z"/>
	<path d="M276.951,130.134c-2.439-3.053-5.779-7.236-12.219-7.236c-6.441,0-9.781,4.184-12.223,7.236
		c-2.354,2.944-3.709,4.482-6.5,4.482c-2.789,0-4.145-1.538-6.5-4.482c-2.441-3.053-5.779-7.236-12.223-7.236v7.324
		c2.789,0,4.146,1.538,6.502,4.482c2.439,3.053,5.779,7.236,12.221,7.236c6.443,0,9.783-4.184,12.223-7.236
		c2.355-2.944,3.713-4.482,6.5-4.482s4.145,1.535,6.496,4.482c2.438,3.053,5.777,7.236,12.213,7.236v-7.324
		C280.656,134.613,279.301,133.078,276.951,130.134z"/>
	<path d="M74.839,50.986c-0.434,3.882-1.031,9.202,3.522,13.755c4.555,4.559,9.878,3.964,13.757,3.527
		c3.747-0.419,5.794-0.548,7.766,1.427c1.972,1.972,1.846,4.02,1.427,7.767c-0.434,3.885-1.028,9.202,3.528,13.757l5.18-5.18
		c-1.972-1.971-1.846-4.02-1.427-7.766c0.434-3.885,1.028-9.202-3.528-13.758c-4.552-4.556-9.873-3.961-13.757-3.527
		c-3.747,0.416-5.795,0.547-7.767-1.427c-1.969-1.969-1.839-4.017-1.42-7.761c0.433-3.882,1.031-9.202-3.522-13.755l-5.18,5.18
		C75.387,45.197,75.258,47.242,74.839,50.986z"/>
	<path d="M244.164,213.853c0.434-3.884,1.035-9.206-3.521-13.754c-4.561-4.563-9.881-3.964-13.758-3.528
		c-3.74,0.424-5.793,0.551-7.766-1.426c-1.971-1.973-1.846-4.02-1.424-7.763c0.432-3.888,1.031-9.206-3.527-13.761l-5.18,5.182
		c1.973,1.971,1.846,4.018,1.422,7.763c-0.43,3.884-1.029,9.206,3.529,13.759c4.553,4.556,9.875,3.957,13.756,3.526
		c3.742-0.422,5.797-0.547,7.768,1.427c1.969,1.969,1.844,4.017,1.422,7.758c-0.434,3.886-1.033,9.206,3.52,13.756l5.18-5.18
		C243.619,219.642,243.746,217.594,244.164,213.853z"/>
	<path d="M213.646,81.504c3.885,0.438,9.205,1.028,13.758-3.526c4.559-4.556,3.959-9.877,3.527-13.758
		c-0.422-3.744-0.549-5.792,1.424-7.764c1.971-1.972,4.018-1.843,7.758-1.421c3.883,0.439,9.205,1.031,13.754-3.521l-5.18-5.18
		c-1.971,1.969-4.02,1.843-7.756,1.421c-3.883-0.434-9.205-1.034-13.758,3.521c-4.557,4.556-3.959,9.876-3.525,13.758
		c0.422,3.744,0.547,5.792-1.424,7.764c-1.975,1.975-4.023,1.843-7.764,1.427c-3.891-0.439-9.209-1.028-13.758,3.526l5.18,5.181
		C207.857,80.959,209.904,81.089,213.646,81.504z"/>
	<path d="M118.304,187.081l-5.18-5.18c-1.972,1.975-4.019,1.845-7.766,1.423c-3.879-0.426-9.202-1.024-13.758,3.529
		c-4.556,4.554-3.96,9.876-3.527,13.758c0.419,3.745,0.548,5.793-1.426,7.766c-1.969,1.972-4.017,1.842-7.758,1.421
		c-3.888-0.433-9.205-1.034-13.755,3.522l5.18,5.18c1.969-1.973,4.013-1.844,7.76-1.422c3.888,0.434,9.205,1.035,13.755-3.522
		c4.556-4.554,3.961-9.876,3.527-13.758c-0.419-3.745-0.548-5.793,1.427-7.765c1.971-1.975,4.02-1.848,7.766-1.424
		C108.43,191.044,113.748,191.639,118.304,187.081z"/>
</g>
</svg>
