<?xml version="1.0" encoding="utf-8"?>
<!-- Generator: Adobe Illustrator 15.1.0, SVG Export Plug-In . SVG Version: 6.00 Build 0)  -->
<!DOCTYPE svg PUBLIC "-//W3C//DTD SVG 1.1//EN" "http://www.w3.org/Graphics/SVG/1.1/DTD/svg11.dtd">
<svg version="1.1" id="Calque_1" xmlns="http://www.w3.org/2000/svg" xmlns:xlink="http://www.w3.org/1999/xlink" x="0px" y="0px"
	 width="319px" height="319px" viewBox="0 0 319 319" enable-background="new 0 0 319 319" xml:space="preserve">
<circle fill="#FFFFFF" cx="159.5" cy="159.5" r="159.5"/>
<g>
	<path d="M198.764,122.899v-22.775h-12.225V84.482h-23.827V18.149h-7.03v66.333h-23.828v15.642H119.63v22.772
		c-22.171,13.433-37.022,37.79-37.022,65.549c0,42.232,34.357,76.591,76.59,76.591c42.228,0,76.585-34.356,76.585-76.591
		C235.787,160.686,220.936,136.332,198.764,122.899z M184.788,253.105c-6.89,2.735-14.31,4.418-22.07,4.811v-7.743h22.07V253.105z
		 M133.614,250.173h22.07v7.743c-7.759-0.393-15.18-2.07-22.07-4.811V250.173L133.614,250.173z M97.791,221.064h28.788v7.518
		h-24.135C100.745,226.18,99.184,223.677,97.791,221.064z M133.614,123.791c6.893-2.738,14.311-4.42,22.07-4.808v7.742h-22.07
		V123.791L133.614,123.791z M184.788,126.725h-22.07v-7.742c7.761,0.388,15.179,2.07,22.07,4.808V126.725z M220.607,155.83h-28.785
		v-7.517h24.128C217.65,150.713,219.214,153.22,220.607,155.83z M155.684,177.416v7.516h-22.069v-7.516H155.684z M133.614,170.383
		v-7.523h22.07v7.523H133.614z M155.684,191.963v7.518h-22.069v-7.518H155.684z M155.684,206.514v7.521h-22.069v-7.521H155.684z
		 M162.718,206.514h22.07v7.521h-22.07V206.514L162.718,206.514z M162.718,199.479v-7.517h22.07v7.517H162.718z M162.718,184.932
		v-7.516h22.07v7.516H162.718z M162.718,170.383v-7.523h22.07v7.523H162.718z M191.822,162.861h32.037
		c0.97,2.447,1.811,4.955,2.502,7.523h-34.539V162.861z M184.788,155.83h-22.07v-7.517h22.07V155.83z M162.718,141.28v-7.52h22.07
		v7.52H162.718z M155.684,133.758v7.519h-22.069v-7.519H155.684z M155.684,148.313v7.517h-22.069v-7.517H155.684z M126.581,155.83
		H97.79c1.393-2.61,2.952-5.115,4.656-7.517h24.135V155.83z M126.581,162.861v7.523H92.038c0.692-2.568,1.533-5.076,2.503-7.523
		H126.581z M126.581,177.416v7.516H89.733c0.126-2.545,0.4-5.052,0.796-7.516H126.581z M126.581,191.963v7.518H90.53
		c-0.396-2.467-0.666-4.974-0.796-7.518H126.581z M126.581,206.514v7.521h-32.04c-0.971-2.442-1.812-4.952-2.503-7.521H126.581z
		 M133.614,221.064h22.07v7.518h-22.07V221.064L133.614,221.064z M155.684,235.616v7.522h-22.069v-7.522H155.684z M162.718,243.141
		v-7.523h22.07v7.523H162.718z M162.718,228.582v-7.518h22.07v7.518H162.718z M191.822,221.064h28.785
		c-1.395,2.611-2.957,5.115-4.653,7.518h-24.132V221.064L191.822,221.064z M191.822,214.033v-7.521h34.537
		c-0.691,2.568-1.532,5.078-2.504,7.521H191.822z M191.822,199.479v-7.517h36.845c-0.131,2.544-0.401,5.05-0.797,7.517H191.822z
		 M191.822,184.932v-7.516h36.044c0.397,2.464,0.669,4.971,0.797,7.516H191.822z M210.257,141.28h-18.438v-7.52h10.277
		C205.012,136.05,207.745,138.56,210.257,141.28z M138.889,91.515h40.619v8.608h-40.619V91.515z M126.666,107.156h65.066v11.979
		c-9.885-4.656-20.908-7.272-32.532-7.272c-11.626,0-22.651,2.616-32.534,7.272V107.156z M116.301,133.758h10.28v7.519h-18.438
		C110.655,138.56,113.387,136.05,116.301,133.758z M108.14,235.616h18.441v7.522h-10.273
		C113.39,240.848,110.655,238.336,108.14,235.616z M202.092,243.141h-10.27v-7.523h18.438
		C207.742,238.336,205.009,240.848,202.092,243.141z"/>
	<rect x="38.362" y="184.928" width="29.831" height="7.032"/>
	<rect x="250.809" y="184.928" width="29.83" height="7.032"/>
	<rect x="54.083" y="129.311" transform="matrix(0.852 0.5236 -0.5236 0.852 79.759 -16.4645)" width="29.831" height="7.034"/>
	
		<rect x="235.082" y="240.577" transform="matrix(-0.852 -0.5235 0.5235 -0.852 335.2236 582.9444)" width="29.835" height="7.037"/>
	
		<rect x="63.259" y="225.357" transform="matrix(-0.488 -0.8729 0.8729 -0.488 -110.3653 415.7971)" width="7.031" height="29.825"/>
	
		<rect x="237.304" y="133.112" transform="matrix(-0.8729 0.4879 -0.4879 -0.8729 539.0449 132.8344)" width="29.833" height="7.033"/>
	<rect x="82.61" y="53.072" width="7.033" height="11.993"/>
	<rect x="82.61" y="75.578" width="7.033" height="11.992"/>
	<rect x="91.385" y="66.806" width="11.993" height="7.033"/>
	<rect x="68.879" y="66.806" width="11.993" height="7.033"/>
	<rect x="225.532" y="86.392" width="7.032" height="11.993"/>
	<rect x="225.532" y="108.897" width="7.032" height="11.993"/>
	<rect x="234.305" y="100.124" width="11.99" height="7.032"/>
	<rect x="211.798" y="100.124" width="11.992" height="7.032"/>
</g>
</svg>
