<?xml version="1.0" encoding="utf-8"?>
<!-- Generator: Adobe Illustrator 15.1.0, SVG Export Plug-In . SVG Version: 6.00 Build 0)  -->
<!DOCTYPE svg PUBLIC "-//W3C//DTD SVG 1.1//EN" "http://www.w3.org/Graphics/SVG/1.1/DTD/svg11.dtd">
<svg version="1.1" id="Calque_1" xmlns="http://www.w3.org/2000/svg" xmlns:xlink="http://www.w3.org/1999/xlink" x="0px" y="0px"
	 width="319px" height="319px" viewBox="25.5 5.875 319 319" enable-background="new 25.5 5.875 319 319" xml:space="preserve">
<circle fill="#FFFFFF" cx="185" cy="165.375" r="159.5"/>
<g>
	<rect x="182.86" y="267.665" width="7.667" height="5.111"/>
	<path d="M233.471,272.776h-2.047v-5.111h2.047c4.085,0,7.92-0.257,11.499-0.771l0.77,5.112
		C241.904,272.52,237.812,272.776,233.471,272.776z"/>
	<rect x="213.53" y="267.665" width="12.782" height="5.111"/>
	<rect x="195.642" y="267.665" width="12.775" height="5.111"/>
	<path d="M251.103,270.986l-1.021-5.111c4.347-1.02,8.178-2.303,12.013-3.835l2.047,4.604
		C260.048,268.685,255.706,269.966,251.103,270.986z"/>
	<path d="M268.996,264.343l-2.554-4.349c3.576-2.041,6.901-4.6,9.969-7.408l3.578,3.578
		C276.666,259.23,273.088,262.04,268.996,264.343z"/>
	<path d="M283.567,252.073l-4.091-3.322c2.557-3.323,4.855-6.646,6.388-10.481l4.604,2.047
		C288.935,244.402,286.635,248.493,283.567,252.073z"/>
	<path d="M292.51,234.947l-4.856-1.276c1.026-3.835,1.79-7.927,1.79-12.013l5.112-0.256
		C294.299,226.257,293.792,230.599,292.51,234.947z"/>
	<path d="M288.935,216.546c-0.511-4.092-1.537-8.183-3.326-11.763l4.604-2.04c1.79,4.343,3.066,8.69,3.579,13.29L288.935,216.546z"
		/>
	<path d="M283.567,200.185c-2.045-3.579-4.604-6.901-7.669-9.711l3.578-3.578c3.322,3.321,6.132,6.901,8.434,10.735L283.567,200.185
		z"/>
	<path d="M272.318,187.151c-3.322-2.56-6.901-4.604-10.737-6.396l2.047-4.599c4.349,1.79,8.177,4.093,11.757,6.901L272.318,187.151z
		"/>
	<path d="M256.727,179.224c-3.836-1.276-7.922-2.302-12.271-2.81l0.771-5.112c4.598,0.508,8.945,1.533,13.288,3.066L256.727,179.224
		z"/>
	<path d="M239.602,175.9c-1.789-0.257-3.836-0.257-5.625-0.257h-7.664v-5.111h7.664c2.046,0,4.093,0,5.882,0.257L239.602,175.9z"/>
	<rect x="208.417" y="170.532" width="12.783" height="5.111"/>
	<path d="M203.307,175.644h-10.224c-1.022,0-2.046,0-3.066,0l0.254-5.111c1.023,0,1.79,0,2.812,0h10.224V175.644L203.307,175.644z"
		/>
	<path d="M184.392,175.138c-4.854-0.77-9.2-2.046-13.291-4.092l2.302-4.603c3.58,1.79,7.411,2.813,11.756,3.579L184.392,175.138z"/>
	<path d="M166.501,167.977c-4.088-2.809-7.158-6.388-9.457-10.479l4.599-2.558c1.79,3.326,4.602,6.392,7.924,8.691L166.501,167.977z
		"/>
	<path d="M154.742,152.384c-0.767-2.809-1.277-5.621-1.277-8.69c0-1.787,0.257-3.833,0.51-5.622l5.112,1.023
		c-0.253,1.533-0.51,3.065-0.51,4.599c0,2.302,0.257,4.858,1.023,7.157L154.742,152.384z"/>
	<path d="M160.367,134.493l-4.602-2.046c1.789-4.343,4.602-8.178,8.434-11.5l3.326,3.833
		C164.199,127.849,161.899,130.914,160.367,134.493z"/>
	<path d="M171.357,122.224l-2.556-4.345c3.836-2.3,8.182-4.09,13.036-5.112l1.023,5.112
		C178.516,118.645,174.679,120.181,171.357,122.224z"/>
	<path d="M187.461,117.112L186.948,112c2.046-0.256,4.089-0.256,6.135-0.256h7.67v5.115h-7.67
		C191.294,116.858,189.249,116.858,187.461,117.112z"/>
	<rect x="205.865" y="111.744" width="7.665" height="5.115"/>
	<path d="M176.469,270.986c-0.51,0-1.023-0.255-1.533-0.513l-36.552-23.77c-9.457,6.389-20.957,9.967-32.716,9.967
		c-30.671,0-55.466-23-55.466-51.631c0-28.626,24.795-51.633,55.466-51.633c30.674,0,55.467,23.007,55.467,51.633
		c0,7.672-1.79,15.079-5.369,21.982l23.006,39.622c0.767,1.021,0.51,2.554-0.513,3.321
		C177.748,270.73,177.234,270.986,176.469,270.986z M138.383,240.572c0.513,0,1.023,0.255,1.537,0.507l28.115,18.407l-17.891-30.676
		c-0.514-0.765-0.514-1.788,0-2.81c3.579-6.389,5.368-13.289,5.368-20.704c0-25.304-22.494-46.011-49.845-46.011
		c-27.349,0-49.842,20.708-49.842,46.011c0,25.302,22.494,46.006,49.842,46.006c11.503,0,22.238-3.323,30.927-9.967
		C137.107,240.827,137.874,240.572,138.383,240.572z"/>
	<path d="M219.154,114.046c-0.77,0-1.275-0.257-2.046-0.766c-1.02-1.023-1.02-2.303-0.514-3.323l12.783-21.983
		c-1.789-3.835-2.809-8.18-2.809-12.525c0-16.869,14.821-30.672,32.972-30.672c18.146,0,32.969,13.803,32.969,30.672
		c0,16.871-14.823,30.673-32.969,30.673c-6.9,0-13.295-1.79-18.663-5.369l-20.19,13.036
		C220.174,113.789,219.667,114.046,219.154,114.046z M259.541,50.145c-15.085,0-27.354,11.247-27.354,25.049
		c0,3.833,1.026,7.668,2.816,11.247c0.506,0.767,0.506,1.789,0,2.811l-7.672,13.291l11.756-7.668c1.026-0.767,2.303-0.51,3.072,0
		c4.855,3.579,10.73,5.369,17.126,5.369c15.079,0,27.349-11.247,27.349-25.05C286.635,61.392,274.62,50.145,259.541,50.145z"/>
</g>
</svg>
