<?xml version="1.0" encoding="utf-8"?>
<!-- Generator: Adobe Illustrator 15.1.0, SVG Export Plug-In . SVG Version: 6.00 Build 0)  -->
<!DOCTYPE svg PUBLIC "-//W3C//DTD SVG 1.1//EN" "http://www.w3.org/Graphics/SVG/1.1/DTD/svg11.dtd">
<svg version="1.1" id="Calque_1" xmlns="http://www.w3.org/2000/svg" xmlns:xlink="http://www.w3.org/1999/xlink" x="0px" y="0px"
	 width="319px" height="319px" viewBox="25.5 5.875 319 319" enable-background="new 25.5 5.875 319 319" xml:space="preserve">
<circle fill="#FFFFFF" cx="185" cy="165.375" r="159.5"/>
<g>
	<g>
		<path d="M296.846,160.323l-14.985-22.601c5.895-10.809,9.089-22.848,9.089-35.131c0-40.042-32.427-72.471-72.225-72.471
			c-39.798,0-72.472,32.428-72.472,72.471c0,3.686,0.246,7.37,0.737,11.055c-36.113,3.685-64.364,34.639-64.364,71.734
			c0,12.529,3.194,24.566,9.089,35.13l-14.985,22.602c-2.457,3.685-2.211,8.352,0.246,11.792c1.966,2.702,4.913,4.176,8.107,4.176
			c0.983,0,1.965-0.245,2.948-0.491l32.428-9.581c10.564,5.65,22.355,8.845,34.639,8.845c39.799,0,72.472-32.428,72.472-72.472
			c0-3.686-0.246-7.37-0.737-11.056c9.336-0.981,18.425-3.684,26.776-8.352l32.429,9.581c0.983,0.245,1.966,0.491,2.949,0.491
			c3.193,0,6.141-1.474,8.105-4.177C299.303,168.43,299.303,163.762,296.846,160.323z M154.851,247.534
			c-12.283,0-23.584-3.439-33.165-9.582l-36.604,11.056l18.671-28.251c-6.879-10.072-11.055-22.354-11.055-35.376
			c0-32.428,25.058-59.205,56.749-61.908c1.719-0.246,3.685-0.246,5.405-0.246s3.439,0,5.159,0.246
			c24.567,1.965,45.204,18.425,53.31,40.78c1.229,3.44,2.211,6.878,2.702,10.319c0.492,3.438,0.982,7.123,0.982,10.809
			C217.004,219.774,189.244,247.534,154.851,247.534z M251.889,155.164c-8.107,5.159-17.688,8.354-27.761,9.335
			c-3.931-12.774-11.3-24.075-21.127-32.919c0.491-0.245,0.982-0.245,1.475-0.737l1.72-1.474l3.438,8.353
			c0.492,1.474,1.966,2.457,3.44,2.457c0.491,0,0.983,0,1.474-0.246c1.966-0.737,2.948-2.947,2.211-4.913l-4.176-10.563
			l11.545-9.582l3.44,8.353c0.491,1.474,1.966,2.457,3.438,2.457c0.492,0,0.983,0,1.475-0.246c1.965-0.737,2.948-2.948,2.212-4.914
			l-4.424-10.563l4.913-3.93c1.721-1.229,1.967-3.685,0.492-5.405c-1.229-1.719-3.685-1.965-5.405-0.491l-2.947,2.457l-5.65-13.757
			l3.685-2.948c1.721-1.228,1.966-3.685,0.492-5.404c-1.229-1.72-3.686-1.965-5.405-0.492l-1.719,1.474l-3.44-8.353
			c-0.736-1.965-2.947-2.948-4.913-2.211c-1.964,0.737-2.948,2.948-2.212,4.913l4.178,10.564l-11.547,9.581l-3.438-8.353
			c-0.737-1.965-2.948-2.948-4.913-2.211c-1.966,0.737-2.949,2.948-2.211,4.913l4.421,10.564l-6.142,5.159
			c-1.72,1.229-1.965,3.685-0.491,5.405c0.737,0.982,1.965,1.473,2.948,1.473c0.737,0,1.72-0.245,2.457-0.982l4.421-3.685
			l5.65,13.757l-3.93,2.948c-0.737,0.737-1.229,1.72-1.474,2.702c-11.547-8.598-25.55-14.003-40.781-14.494
			c-0.492-3.439-0.983-7.124-0.983-10.809c0.246-34.147,28.006-62.153,62.4-62.153c34.393,0,62.153,27.76,62.153,62.153
			c0,13.266-4.177,25.303-11.056,35.376l18.671,28.005L251.889,155.164z M209.39,116.84l-5.65-13.757l11.545-9.581l5.65,13.758
			L209.39,116.84z"/>
		<path d="M147.481,175.8c-2.211-6.388-7.37-10.809-13.512-11.301c-4.913-0.246-9.335,2.212-11.546,6.633
			c-0.983,1.966-0.246,4.177,1.719,5.16c1.966,0.982,4.177,0.245,5.159-1.72c1.229-2.211,2.948-2.457,4.177-2.457
			c2.457,0.246,5.404,2.21,6.878,6.142c1.965,6.142-1.229,11.792-7.861,14.248c-2.703,0.983-5.896,0.737-8.844-0.736
			c-2.948-1.475-5.159-3.932-6.142-6.633l-0.492-1.475c-4.176-12.037,3.193-21.619,12.774-24.812
			c10.073-3.439,21.128,1.965,24.566,12.038c0.737,1.966,2.949,2.949,4.914,2.457c1.965-0.738,2.948-2.949,2.457-4.914
			c-4.913-14.002-20.145-21.618-34.147-16.705c-14.985,5.159-22.355,19.899-17.442,34.393l0.491,1.475
			c1.474,4.667,5.159,8.598,9.827,11.054c2.948,1.475,5.896,2.212,9.089,2.212c1.965,0,3.931-0.246,5.65-0.983
			C145.516,195.945,150.921,186.118,147.481,175.8z"/>
		<path d="M194.896,191.521c-0.738-1.964-2.949-2.946-4.915-2.456l-10.809,3.687l4.913-10.318c0.983-1.966,0.246-4.177-1.719-5.159
			c-1.966-0.982-4.177-0.246-5.16,1.719l-4.914,10.318l-3.685-10.81c-0.736-1.965-2.947-2.947-4.913-2.456
			c-1.965,0.736-2.948,2.947-2.457,4.913l3.685,10.81l-10.318-4.914c-1.965-0.982-4.176-0.245-5.159,1.721
			c-0.982,1.965-0.246,4.177,1.719,5.158l10.318,4.913l-10.809,3.686c-1.966,0.738-2.948,2.947-2.457,4.914
			c0.491,1.474,1.965,2.701,3.685,2.701c0.491,0,0.737,0,1.229-0.245l10.809-3.686l-4.913,10.317
			c-0.982,1.966-0.246,4.177,1.72,5.159c0.491,0.246,1.228,0.491,1.72,0.491c1.474,0,2.702-0.736,3.439-2.21l4.914-10.318
			l3.685,10.81c0.491,1.474,1.965,2.702,3.685,2.702c0.491,0,0.737,0,1.228-0.245c1.965-0.738,2.949-2.948,2.457-4.914l-3.685-10.81
			l10.317,4.914c0.491,0.245,1.229,0.491,1.721,0.491c1.474,0,2.702-0.738,3.438-2.211c0.983-1.965,0.247-4.177-1.719-5.159
			l-10.318-4.913l10.81-3.686C194.648,195.699,195.632,193.488,194.896,191.521z"/>
		<path d="M252.381,91.537l-15.969-33.411c-0.982-1.965-3.193-2.702-5.159-1.719s-2.702,3.193-1.719,5.159l15.967,33.41
			c0.737,1.475,1.967,2.212,3.439,2.212c0.491,0,1.229,0,1.721-0.491C252.381,95.713,253.117,93.502,252.381,91.537z"/>
		<circle cx="254.346" cy="104.803" r="4.668"/>
	</g>
</g>
</svg>
