<?xml version="1.0" encoding="utf-8"?>
<!-- Generator: Adobe Illustrator 15.1.0, SVG Export Plug-In . SVG Version: 6.00 Build 0)  -->
<!DOCTYPE svg PUBLIC "-//W3C//DTD SVG 1.1//EN" "http://www.w3.org/Graphics/SVG/1.1/DTD/svg11.dtd">
<svg version="1.1" id="Calque_1" xmlns="http://www.w3.org/2000/svg" xmlns:xlink="http://www.w3.org/1999/xlink" x="0px" y="0px"
	 width="319px" height="319px" viewBox="25.5 5.875 319 319" enable-background="new 25.5 5.875 319 319" xml:space="preserve">
<circle fill="#FFFFFF" cx="185" cy="165.375" r="159.5"/>
<g>
	<path d="M272.177,76.642c-21.854-19.562-50.05-30.336-79.375-30.336c-65.658,0-119.07,53.417-119.07,119.07
		c0,65.653,53.412,119.07,119.07,119.07c27.156,0,52.748-8.931,74.008-25.825c2.287-1.814,3.018-4.975,1.752-7.609
		c-1.265-2.636-4.184-4.046-7.027-3.411c-6.041,1.362-12.188,2.048-18.266,2.048c-40.031,0-74.286-28.537-81.44-67.851
		c-0.619-3.406-3.884-5.658-7.287-5.044c-3.411,0.624-5.668,3.888-5.046,7.292c7.914,43.448,44.55,75.464,88.228,77.976
		c-13.926,6.512-29.127,9.888-44.919,9.888c-58.743,0-106.535-47.792-106.535-106.536s47.79-106.533,106.533-106.533
		c17.76,0,35.054,4.416,50.44,12.698c-27.198,0.008-53.163,11.674-71.249,32.019c-2.294,2.588-2.061,6.549,0.527,8.848
		c2.583,2.305,6.543,2.064,8.845-0.521c15.709-17.675,38.272-27.815,61.901-27.815c7.744,0,15.484,1.098,22.993,3.265
		c2.812,0.812,5.806-0.429,7.221-2.99C274.896,81.785,274.356,78.592,272.177,76.642z"/>
	<path d="M176.99,189.438c0.969,2.342,3.249,3.869,5.783,3.869h35.097c3.463,0,6.268-2.805,6.268-6.266s-2.807-6.264-6.268-6.264
		h-19.965l21.885-21.89c1.797-1.794,2.332-4.49,1.363-6.832s-3.254-3.866-5.789-3.866h-32.593c-3.459,0-6.264,2.808-6.264,6.266
		c0,3.458,2.809,6.266,6.264,6.266h17.458l-21.888,21.888C176.548,184.402,176.013,187.096,176.99,189.438z"/>
	<path d="M265.495,199.929h-14.947l17.233-17.229c1.792-1.795,2.325-4.49,1.357-6.832s-3.255-3.866-5.79-3.866h-27.934
		c-3.463,0-6.268,2.808-6.268,6.266s2.807,6.266,6.268,6.266h12.802l-17.233,17.236c-1.794,1.789-2.328,4.484-1.36,6.826
		c0.969,2.342,3.255,3.871,5.79,3.871h30.079c3.464,0,6.269-2.807,6.269-6.268S268.958,199.929,265.495,199.929z"/>
	<path d="M114.313,166.878c0.969,2.342,3.255,3.868,5.79,3.868h47.628c3.466,0,6.271-2.807,6.271-6.265
		c0-3.464-2.807-6.269-6.271-6.269h-32.493l33.527-33.527c1.792-1.792,2.326-4.488,1.357-6.83c-0.968-2.341-3.254-3.868-5.79-3.868
		h-44.228c-3.458,0-6.263,2.807-6.263,6.266c0,3.464,2.807,6.269,6.263,6.269h29.093l-33.52,33.527
		C113.88,161.84,113.345,164.534,114.313,166.878z"/>
</g>
</svg>
