<?xml version="1.0" encoding="utf-8"?>
<!-- Generator: Adobe Illustrator 15.1.0, SVG Export Plug-In . SVG Version: 6.00 Build 0)  -->
<!DOCTYPE svg PUBLIC "-//W3C//DTD SVG 1.1//EN" "http://www.w3.org/Graphics/SVG/1.1/DTD/svg11.dtd">
<svg version="1.1" id="Calque_1" xmlns="http://www.w3.org/2000/svg" xmlns:xlink="http://www.w3.org/1999/xlink" x="0px" y="0px"
	 width="319px" height="319px" viewBox="0 0 319 319" enable-background="new 0 0 319 319" xml:space="preserve">
<circle fill="#FFFFFF" cx="159.5" cy="159.5" r="159.5"/>
<g>
	<path d="M246.938,230.625l-63.342-105.168H182v-23.435c0.731,0.084,1.474,0.13,2.223,0.13c2.386,0,4.755-0.448,6.966-1.307
		c3.141,3.203,7.478,5.059,12.016,5.059c7.792,0,14.499-5.435,16.322-12.792c10.379-0.897,18.552-9.633,18.552-20.241
		c0-11.203-9.114-20.317-20.315-20.317c-10.002,0-18.338,7.263-20.013,16.792c-1.569-1.558-3.402-2.844-5.414-3.786
		c-0.62-12.878-11.292-23.163-24.321-23.163c-5.346,0-10.418,1.7-14.671,4.917c-2.962,2.241-5.386,5.162-7.06,8.458
		c-3.247-2.094-7.03-3.218-10.985-3.218c-4.637,0-9.172,1.604-12.77,4.518c-2.448,1.981-4.398,4.512-5.7,7.346
		c-2.855-1.5-6.056-2.302-9.316-2.302c-11.038,0-20.018,8.98-20.018,20.018c0,11.038,8.98,20.019,20.018,20.019
		c7.891,0,14.842-4.538,18.091-11.43c2.994,1.626,6.38,2.489,9.82,2.466c0.338,1.169,0.791,2.286,1.342,3.342v28.926h-1.952
		L70.875,230.625H41.482v5.975h236.035v-5.975H246.938z M135.298,87.213c-3.397,0-6.694-1.213-9.283-3.415l-3.718-3.163l-1.126,4.75
		c-1.505,6.354-7.123,10.792-13.66,10.792c-7.743,0-14.042-6.3-14.042-14.043c0-7.743,6.299-14.042,14.042-14.042
		c3.274,0,6.462,1.152,8.977,3.245l3.75,3.123l1.075-4.76c1.462-6.471,7.343-11.168,13.984-11.168c3.83,0,7.431,1.492,10.139,4.199
		l3.54,3.539l1.435-4.795c2.308-7.713,9.546-13.1,17.603-13.1c10.131,0,18.375,8.243,18.375,18.375c0,0.242-0.01,0.481-0.02,0.721
		l-0.084,2.239l2.124,0.709c3.382,1.128,6.205,3.621,7.745,6.84l1.137,2.374l2.498-0.828c0.457-0.151,0.925-0.273,1.395-0.361
		l2.836-0.534l-0.435-2.853c-0.11-0.716-0.165-1.45-0.165-2.182c0-7.907,6.433-14.341,14.342-14.341
		c7.906,0,14.339,6.434,14.339,14.341c0,7.908-6.433,14.341-14.339,14.341c-0.219,0-0.433-0.007-0.646-0.017l-2.885-0.127
		l-0.225,2.879c-0.439,5.596-5.183,9.98-10.803,9.98c-3.464,0-6.75-1.682-8.786-4.498l-1.545-2.135l-2.312,1.266
		c-1.931,1.057-4.123,1.616-6.337,1.616c-5.698,0-10.737-3.63-12.541-9.034l-0.71-2.125l-2.24,0.086
		c-0.195,0.007-0.391,0.014-0.59,0.015l-2.968,0.023v2.969c0,6.754-5.496,12.25-12.25,12.25c-6.163,0-11.386-4.605-12.149-10.712
		l-0.378-3.025l-3.016,0.438C136.685,87.162,135.984,87.213,135.298,87.213z M142.741,103.211c2.924,1.976,6.437,3.124,10.185,3.124
		c7.449,0,13.87-4.493,16.694-10.913c1.764,2.07,3.951,3.736,6.404,4.895v25.14h-33.283V103.211z M138.174,131.432h42.045
		l27.501,45.662c-4.785,1.393-7.544,0.883-14.792-6c-11.128-10.568-15.168-12.009-30.838-14.666
		c-15.673-2.658-18.827-2.175-30.679,4.686c-3.05,1.766-5.741,2.352-7.998,1.736c-1.424-0.387-2.479-1.209-3.173-1.922
		L138.174,131.432z M117.074,166.137c1.178,0.969,2.713,1.896,4.642,2.443c3.886,1.102,8.155,0.33,12.689-2.295
		c10.602-6.138,12.348-6.398,26.687-3.966c14.816,2.512,17.61,3.506,27.722,13.107c6.567,6.238,10.906,8.273,15.183,8.273
		c2.214,0,4.413-0.549,6.896-1.342l29.069,48.268H77.868L117.074,166.137z"/>
	<rect x="92.232" y="196.865" transform="matrix(-0.464 0.8858 -0.8858 -0.464 343.1722 192.059)" width="42.498" height="5.976"/>
	<rect x="155.466" y="173.26" width="5.976" height="26.59"/>
	
		<rect x="206.701" y="193.105" transform="matrix(-0.8904 0.4551 -0.4551 -0.8904 491.1572 298.1658)" width="5.974" height="30.198"/>
	
		<rect x="172.289" y="191.637" transform="matrix(0.3317 0.9434 -0.9434 0.3317 308.3771 -46.0621)" width="28.821" height="5.976"/>
	<rect x="125.45" y="189.397" transform="matrix(0.8944 0.4472 -0.4472 0.8944 103.3307 -36.2438)" width="5.975" height="22.714"/>
</g>
</svg>
