<?xml version="1.0" encoding="utf-8"?>
<!-- Generator: Adobe Illustrator 15.1.0, SVG Export Plug-In . SVG Version: 6.00 Build 0)  -->
<!DOCTYPE svg PUBLIC "-//W3C//DTD SVG 1.1//EN" "http://www.w3.org/Graphics/SVG/1.1/DTD/svg11.dtd">
<svg version="1.1" id="Calque_1" xmlns="http://www.w3.org/2000/svg" xmlns:xlink="http://www.w3.org/1999/xlink" x="0px" y="0px"
	 width="319px" height="319px" viewBox="0 0 319 319" enable-background="new 0 0 319 319" xml:space="preserve">
<circle fill="#FFFFFF" cx="159.5" cy="159.5" r="159.5"/>
<g>
	<path d="M155.966,105.378c0-9.285,7.555-16.836,16.838-16.836v-6.615c-12.933,0-23.454,10.521-23.454,23.451H155.966z"/>
	<path d="M273.594,152.17c-2.502-9.476-8.545-17.408-17.016-22.335c-5.604-3.263-11.973-4.985-18.424-4.985
		c-11.207,0-21.766,5.181-28.666,13.788v-33.26c0-20.226-16.455-36.682-36.681-36.682c-4.287,0-8.384,0.778-12.213,2.136
		c-4.454-8.933-11.767-16.019-20.983-20.205c-10.616-4.815-22.475-5.212-33.395-1.117c-22.277,8.367-33.687,33.102-25.772,55.439
		c-20.559,3.527-36.269,21.436-36.269,42.984c0,24.073,19.586,43.658,43.659,43.658s43.659-19.585,43.659-43.658
		c0-5.104-0.926-9.986-2.542-14.542c2.432-0.42,4.829-1.042,7.173-1.873v54.214c-2.588-0.482-5.237-0.752-7.938-0.752
		c-24.074,0-43.659,19.584-43.659,43.658c0,24.072,19.585,43.658,43.659,43.658c14.357,0,27.51-6.924,35.628-18.416
		c3.144,5.289,7.578,9.734,13.047,12.916c5.604,3.262,11.973,4.988,18.424,4.988c13.025,0,25.188-6.988,31.73-18.236l42.814-73.557
		C274.758,171.522,276.096,161.645,273.594,152.17z M202.873,105.378v39.248h-60.137v-39.248c0-16.58,13.489-30.066,30.068-30.066
		C189.385,75.312,202.873,88.798,202.873,105.378z M136.877,56.649c7.75,3.517,13.905,9.459,17.694,16.945
		c-11.005,6.34-18.448,18.197-18.448,31.784v14.36l-24.428-65.046C120.057,52.36,128.878,53.019,136.877,56.649z M50.787,147.931
		c0-19.311,14.857-35.195,33.736-36.877v73.755C65.645,183.131,50.787,167.244,50.787,147.931z M91.139,184.811v-73.754
		c18.879,1.68,33.736,17.567,33.736,36.877S110.021,183.131,91.139,184.811z M87.831,104.272c-0.19,0-0.375,0.026-0.566,0.029
		c-0.122-0.302-0.265-0.59-0.381-0.897c-6.787-18.078,1.535-38.171,18.617-46.382l25.931,69.05c-1.72,0.479-3.466,0.831-5.229,1.053
		C118.803,113.525,104.376,104.272,87.831,104.272z M142.736,151.238h58.934l-34.102,58.59
		c-5.017-10.494-14.016-18.498-24.833-22.332V151.238z M91.139,228.637c0-19.311,14.857-35.197,33.736-36.879v73.752
		C105.996,263.832,91.139,247.947,91.139,228.637z M131.49,265.516v-73.77c14.675,1.314,27.27,11.293,31.874,25.354
		c-4.715,8.367-5.98,18.057-3.525,27.359c0.196,0.744,0.453,1.463,0.693,2.188C154.523,257.445,143.699,264.439,131.49,265.516z
		 M221.297,250.217c-5.365,9.219-15.336,14.947-26.016,14.947c-5.281,0-10.501-1.414-15.095-4.088
		c-6.942-4.041-11.896-10.541-13.946-18.309c-2.051-7.766-0.956-15.861,3.083-22.805l19.743-33.92l51.979,30.254L221.297,250.217z
		 M264.111,176.661l-19.744,33.919l-51.975-30.252l19.744-33.918c5.367-9.219,15.336-14.947,26.018-14.947
		c5.281,0,10.502,1.413,15.096,4.088c6.943,4.041,11.895,10.542,13.947,18.308C269.248,161.624,268.152,169.721,264.111,176.661z"/>
	<path d="M217.855,149.738l5.715,3.329c3.008-5.165,8.594-8.375,14.584-8.375c2.945,0,5.867,0.791,8.439,2.292l3.328-5.715
		c-3.582-2.088-7.654-3.191-11.768-3.191C229.82,138.077,222.041,142.546,217.855,149.738z"/>
</g>
</svg>
