<?xml version="1.0" encoding="utf-8"?>
<!-- Generator: Adobe Illustrator 15.1.0, SVG Export Plug-In . SVG Version: 6.00 Build 0)  -->
<!DOCTYPE svg PUBLIC "-//W3C//DTD SVG 1.1//EN" "http://www.w3.org/Graphics/SVG/1.1/DTD/svg11.dtd">
<svg version="1.1" id="Calque_1" xmlns="http://www.w3.org/2000/svg" xmlns:xlink="http://www.w3.org/1999/xlink" x="0px" y="0px"
	 width="319px" height="319px" viewBox="0 0 319 319" enable-background="new 0 0 319 319" xml:space="preserve">
<circle fill="#FFFFFF" cx="159.5" cy="159.5" r="159.5"/>
<g>
	<path d="M232.484,108.465c-2.529,0-5.062,0.236-7.568,0.701C221.455,76.02,193.577,50.6,159.796,50.6
		c-30.474,0-56.765,20.978-63.705,50.327c-1.902-0.243-3.784-0.368-5.625-0.368c-25.237,0-45.771,20.533-45.771,45.768
		c0,25.24,20.533,45.771,45.771,45.771h45.517v-6.615H90.465c-21.591,0-39.155-17.566-39.155-39.155s17.564-39.153,39.155-39.153
		c2.448,0,4.993,0.259,7.565,0.77l3.287,0.651l0.608-3.294c5.162-27.862,29.498-48.086,57.871-48.086
		c31.569,0,57.397,24.688,58.805,56.204l0.188,4.188l4.027-1.156c3.172-0.91,6.426-1.374,9.665-1.374
		c19.411,0,35.205,15.794,35.205,35.205c0,19.409-15.794,35.2-35.205,35.2h-33.987v6.615h33.99c23.06,0,41.82-18.758,41.82-41.815
		C274.302,127.226,255.541,108.465,232.484,108.465z"/>
	<path d="M207.715,150.486h-38.57V86.882l-57.271,85.648h38.571v63.604L207.715,150.486z M124.255,165.916l38.274-57.239v48.427
		h32.803L157.06,214.34v-48.424H124.255z"/>
	<rect x="48.002" y="216.803" width="67.457" height="6.615"/>
	<rect x="71.139" y="235.986" width="57.439" height="6.615"/>
	<rect x="183.806" y="216.803" width="75.199" height="6.615"/>
	<rect x="177.667" y="235.986" width="49.586" height="6.615"/>
	<rect x="132.381" y="261.785" width="43.387" height="6.615"/>
</g>
</svg>
