<?xml version="1.0" encoding="utf-8"?>
<!-- Generator: Adobe Illustrator 15.1.0, SVG Export Plug-In . SVG Version: 6.00 Build 0)  -->
<!DOCTYPE svg PUBLIC "-//W3C//DTD SVG 1.1//EN" "http://www.w3.org/Graphics/SVG/1.1/DTD/svg11.dtd">
<svg version="1.1" id="Calque_1" xmlns="http://www.w3.org/2000/svg" xmlns:xlink="http://www.w3.org/1999/xlink" x="0px" y="0px"
	 width="319px" height="319px" viewBox="25.5 5.875 319 319" enable-background="new 25.5 5.875 319 319" xml:space="preserve">
<circle fill="#FFFFFF" cx="185" cy="165.375" r="159.5"/>
<path d="M241.625,47.099c-33.869,0-61.652,27.518-61.652,61.652v21.168l-28.048-24.873c-1.852-1.852-5.027-1.587-6.879,0.529
	c-1.852,1.852-1.587,5.027,0.529,6.879l35.985,31.752l0,0c0.265,0.265,0.529,0.265,0.529,0.529h0.265c0,0,0.265,0,0.265,0.265
	c0,0,0,0,0.265,0h0.265c0.265,0,0.265,0,0.529,0.265h0.265c0.265,0,0.529,0,0.794,0l0,0l0,0c0.265,0,0.529,0,0.794,0h0.265
	c0.265,0,0.529,0,0.794-0.265c0,0,0,0,0.264,0c0.266,0,0.529-0.265,0.795-0.529c0,0,0,0,0.264-0.265c0,0,0.266,0,0.266-0.265
	l36.25-31.752c2.116-1.852,2.116-4.763,0.529-6.879c-1.853-2.117-4.764-2.117-6.88-0.529l-28.048,24.873v-21.168
	c0-28.577,23.285-51.862,51.861-51.862c28.577,0,51.861,23.285,51.861,51.862c0,28.577-23.284,51.861-51.861,51.861H128.375
	c-33.869,0-61.652,27.519-61.652,61.651c0,34.134,27.519,61.652,61.652,61.652s61.652-27.519,61.652-61.652v-21.697l28.048,25.402
	c0.794,0.794,2.116,1.322,3.175,1.322c1.323,0,2.646-0.528,3.439-1.587c1.853-1.853,1.588-5.027-0.264-6.88l-36.25-32.546l0,0
	c-0.266-0.264-0.529-0.264-0.795-0.529h-0.264c0,0-0.266,0-0.266-0.264h-0.264h-0.265c-0.265,0-0.529,0-0.794-0.266l0,0
	c-0.265,0-0.529,0-0.794,0c0,0,0,0-0.265,0s-0.529,0-0.793,0h-0.265c-0.265,0-0.529,0.266-0.794,0.266l0,0
	c-0.265,0-0.529,0.264-0.794,0.529c0,0,0,0-0.265,0.264c0,0-0.264,0-0.264,0.265l-35.457,32.281
	c-1.853,1.853-2.117,4.764-0.265,6.88c1.058,1.059,2.381,1.587,3.44,1.587c1.058,0,2.381-0.528,3.175-1.322l27.783-25.402v21.697
	c0,28.577-23.285,51.862-51.862,51.862c-28.577,0-51.861-23.021-51.861-51.862c0-28.841,23.285-51.86,51.861-51.86h113.514
	c33.868,0,61.651-27.519,61.651-61.652S275.758,47.099,241.625,47.099z"/>
</svg>
