<?xml version="1.0" encoding="utf-8"?>
<!-- Generator: Adobe Illustrator 15.1.0, SVG Export Plug-In . SVG Version: 6.00 Build 0)  -->
<!DOCTYPE svg PUBLIC "-//W3C//DTD SVG 1.1//EN" "http://www.w3.org/Graphics/SVG/1.1/DTD/svg11.dtd">
<svg version="1.1" id="Calque_1" xmlns="http://www.w3.org/2000/svg" xmlns:xlink="http://www.w3.org/1999/xlink" x="0px" y="0px"
	 width="319px" height="324.875px" viewBox="25.5 5.875 319 324.875" enable-background="new 25.5 5.875 319 324.875"
	 xml:space="preserve">
<circle fill="#FFFFFF" cx="185" cy="165.375" r="159.5"/>
<g>
	<path d="M176.52,199.777c-0.45-0.079-0.9-0.158-1.323-0.264c-1.852-0.397-2.857-1.218-2.963-1.509
		c0.08-0.503,1.376-1.456,3.863-2.831c1.164-0.635,5.054-3.069,6.165-7.013c0.556-1.932,0.317-3.836-0.635-5.529l-1.64-2.938
		l-3.149,1.191c-5.107,1.957-11.828,4.074-18.363,3.201c-5.001-0.662-10.849-3.73-12.674-9.076
		c-0.794-2.381-0.423-5.345,0.979-7.699c0.662-1.085,2.09-2.964,4.472-3.361c1.773-0.291,3.89,0.106,6.139,0.529
		c3.757,0.688,7.991,1.482,12.146-0.661c4.498-2.354,7.17-7.753,6.641-13.415c-0.476-5.081-3.228-9.34-5.239-12.119
		c-3.546-4.842-7.753-9.049-11.854-13.124c-2.064-2.038-4.181-4.154-6.166-6.298c-6.747-7.303-10.398-13.971-11.166-20.374
		c-0.582-4.684,0.317-9.525,1.27-14.659c0.926-5.081,1.905-10.319,1.482-15.744c-0.662-8.388-5.107-16.485-12.225-22.227
		s-15.982-8.361-24.317-7.224l1.059,7.726c6.218-0.847,12.913,1.165,18.363,5.557c5.451,4.393,8.864,10.505,9.34,16.75
		c0.344,4.418-0.503,8.943-1.376,13.732c-1.005,5.478-2.064,11.14-1.35,17.014c0.979,8.097,5.292,16.193,13.177,24.74
		c2.09,2.276,4.287,4.445,6.403,6.562c4.048,4.022,7.858,7.833,11.034,12.172c2.355,3.228,3.546,5.848,3.784,8.255
		c0.238,2.487-0.793,4.895-2.46,5.769c-1.747,0.898-4.234,0.449-7.118-0.08c-2.699-0.503-5.742-1.059-8.864-0.529
		c-4.048,0.688-7.567,3.201-9.896,7.064c-2.593,4.34-3.228,9.632-1.667,14.209c2.54,7.488,10.002,13.124,19.025,14.342
		c3.439,0.45,6.8,0.291,10.001-0.212c-1.772,1.668-3.175,3.863-3.042,6.773c0.211,4.208,3.678,7.542,9.076,8.732
		c0.502,0.105,1.005,0.212,1.508,0.317c1.826,0.345,3.519,0.688,4.26,1.481c0.371,0.397,0.371,1.032,0.291,1.482
		c-0.159,1.111-0.926,2.275-1.826,2.831c-2.514,1.481-6.059,0.873-8.6,0.106c-1.375-0.424-2.725-0.927-4.154-1.482
		c-2.435-0.926-4.948-1.905-7.7-2.434c-6.033-1.165-11.589,0.396-14.871,4.153c-3.069,3.52-3.969,8.6-2.725,15.136
		c0.159,0.846,0.344,1.666,0.529,2.486c0.661,2.99,1.27,5.795,0.767,8.256c-0.899,4.393-5.318,8.07-13.124,10.902
		c-21.009,7.619-45.062,7.487-65.991-0.345l-2.752,7.304c11.51,4.312,23.867,6.482,36.224,6.482c11.986,0,23.973-2.037,35.166-6.086
		c10.558-3.837,16.643-9.446,18.125-16.696c0.82-4.075-0.026-7.991-0.794-11.483c-0.185-0.795-0.344-1.562-0.476-2.303
		c-0.529-2.777-0.82-6.535,0.953-8.547c1.693-1.932,5.08-2.09,7.488-1.613c2.09,0.396,4.181,1.19,6.376,2.037
		c1.508,0.582,3.069,1.164,4.684,1.667c5.795,1.772,10.955,1.456,14.871-0.873c2.911-1.747,5.028-4.948,5.557-8.388
		c0.449-3.017-0.371-5.795-2.25-7.885C182.579,200.941,179.218,200.307,176.52,199.777z"/>
	<path d="M109.073,110.607c2.699-0.953,6.112-2.355,8.864-5.001c3.202-3.096,4.736-7.276,4.075-11.166
		c-0.741-4.445-4.392-7.806-8.494-8.229v-0.053l-0.688,0.027c-0.344,0-0.714,0-1.058,0.053l0.556,7.779l0.45-0.026
		c0.582,0.079,1.402,0.873,1.561,1.746c0.212,1.323-0.476,2.99-1.799,4.26c-1.667,1.614-4.101,2.593-6.033,3.254
		c-10.002,3.493-21.089,3.705-31.223,0.556l-2.302,7.462c5.53,1.72,11.272,2.566,17.04,2.566
		C96.504,113.809,102.96,112.75,109.073,110.607z"/>
	<path d="M307.655,248.781c-9.446,4.419-19.21,8.996-29.424,10.981c-10.954,2.116-21.115,0.741-28.604-3.89
		c-8.387-5.16-13.098-14.95-11.245-23.312c0.265-1.164,0.636-2.382,1.005-3.678c1.43-4.79,3.229-10.77-0.449-15.902
		c-3.069-4.286-8.811-5.979-15.77-4.684c-1.244,0.238-2.461,0.529-3.625,0.794c-2.805,0.661-5.478,1.322-7.832,0.926
		c-1.377-0.211-2.858-1.217-3.52-2.408c-0.424-0.768-0.266-1.137-0.212-1.27c0.397-0.953,2.223-1.614,4.233-1.561
		c1.085,0.025,2.249,0.185,3.492,0.369c1.906,0.266,4.049,0.582,6.299,0.397c6.376-0.503,10.027-4.921,10.346-8.996
		c0.211-2.858-0.979-5.557-3.361-7.621c-1.852-1.588-4.365-2.699-6.854-3.016c-2.195-0.266-4.232-0.106-6.191,0.025
		c-1.534,0.133-2.989,0.238-4.286,0.106c-1.984-0.185-3.731-1.376-3.731-2.249c-0.025-0.794,1.562-1.932,3.176-2.037
		c1.853-0.106,3.943,0.502,6.139,1.164c0.794,0.238,1.641,0.477,2.487,0.715c7.382,1.904,17.649,1.561,24.37-5.213
		c3.625-3.652,5.424-9.234,4.709-14.606c-0.635-4.604-3.096-8.467-6.773-10.558c-4.895-2.805-10.346-2.143-15.161-1.561
		c-0.45,0.053-0.899,0.106-1.35,0.159c-3.44,0.397-7.964,0.371-9.843-2.011c-1.746-2.223-0.848-6.112,0.74-8.758
		c1.111-1.852,2.566-3.572,4.128-5.398c1.481-1.746,3.017-3.545,4.339-5.583c4.42-6.8,6.219-15.796,5.372-26.725
		c-0.345-4.26-1.005-8.467-1.641-12.542c-0.688-4.26-1.323-8.309-1.614-12.41c-0.661-9.129,0.82-16.458,4.419-21.724
		c3.546-5.239,10.954-9.261,17.252-6.933l2.699-7.33c-4.604-1.693-9.923-1.481-14.924,0.583c-4.577,1.905-8.652,5.212-11.431,9.314
		c-4.578,6.773-6.51,15.744-5.742,26.671c0.318,4.445,1.006,8.838,1.693,13.071c0.662,4.101,1.271,7.991,1.562,11.934
		c0.715,9.155-0.688,16.511-4.153,21.856c-1.059,1.641-2.355,3.175-3.758,4.789c-1.693,1.984-3.439,4.048-4.869,6.456
		c-4.472,7.488-2.884,14.156-0.186,17.623c3.281,4.18,8.971,5.82,16.855,4.921c0.45-0.053,0.926-0.105,1.376-0.159
		c3.97-0.476,7.7-0.926,10.346,0.583c2.117,1.217,2.726,3.546,2.911,4.842c0.396,2.964-0.582,6.112-2.514,8.044
		c-2.885,2.885-8.812,5.239-16.855,3.148c-0.715-0.186-1.455-0.396-2.223-0.635c-2.619-0.768-5.583-1.667-8.811-1.455
		c-5.16,0.317-10.637,4.207-10.531,9.975c0.105,5.77,5.662,9.368,10.822,9.844c1.984,0.185,3.836,0.026,5.609-0.106
		c1.641-0.132,3.201-0.237,4.604-0.078c1.826,0.237,3.467,1.48,3.414,2.275c-0.053,0.714-1.535,1.693-3.202,1.825
		c-1.402,0.106-2.937-0.106-4.604-0.344c-1.402-0.186-2.83-0.397-4.393-0.45c-0.158,0-0.316,0-0.476,0
		c-6.245,0-9.87,3.255-11.166,6.351c-1.085,2.593-0.873,5.478,0.582,8.097c1.8,3.255,5.397,5.715,9.129,6.324
		c3.89,0.608,7.594-0.265,10.875-1.059c1.138-0.265,2.196-0.529,3.228-0.715c2.938-0.555,6.562-0.423,7.991,1.562
		c1.35,1.879,0.608,4.815-0.688,9.129c-0.396,1.376-0.846,2.778-1.137,4.207c-1.323,5.927-0.45,12.198,2.486,18.151
		c2.727,5.504,7.092,10.293,12.305,13.494c6.43,3.97,14.341,6.007,22.94,6.007c3.651,0,7.409-0.37,11.245-1.111
		c11.166-2.144,21.381-6.933,31.25-11.563L307.655,248.781z"/>
	<path d="M299.505,116.058c2.145-0.793,4.578-1.932,6.299-4.207c2.381-3.122,2.354-7.435-0.106-10.081l-5.742,5.292
		c-0.159-0.159-0.212-0.344-0.212-0.397c0,0.079-0.053,0.291-0.158,0.423c-0.529,0.714-1.799,1.244-2.857,1.641
		c-12.172,4.577-26.99,1.984-36.886-6.43l-5.054,5.954c8.123,6.906,18.628,10.558,29.186,10.558
		C289.266,118.863,294.531,117.937,299.505,116.058z"/>
</g>
</svg>
