<?xml version="1.0" encoding="utf-8"?>
<!-- Generator: Adobe Illustrator 15.1.0, SVG Export Plug-In . SVG Version: 6.00 Build 0)  -->
<!DOCTYPE svg PUBLIC "-//W3C//DTD SVG 1.1//EN" "http://www.w3.org/Graphics/SVG/1.1/DTD/svg11.dtd">
<svg version="1.1" id="Calque_1" xmlns="http://www.w3.org/2000/svg" xmlns:xlink="http://www.w3.org/1999/xlink" x="0px" y="0px"
	 width="319px" height="319px" viewBox="0 0 319 319" enable-background="new 0 0 319 319" xml:space="preserve">
<circle fill="#FFFFFF" cx="159.5" cy="159.5" r="159.5"/>
<g>
	<path d="M200.139,96.449c0-6.857-5.578-12.436-12.436-12.436c-6.857,0-12.435,5.579-12.435,12.436s5.578,12.436,12.435,12.436
		C194.561,108.885,200.139,103.306,200.139,96.449z M180.559,96.449c0-3.939,3.205-7.144,7.144-7.144
		c3.939,0,7.145,3.205,7.145,7.144s-3.205,7.144-7.145,7.144C183.764,103.593,180.559,100.388,180.559,96.449z"/>
	<path d="M205.42,140.447c0-6.857-5.58-12.436-12.436-12.436c-6.857,0-12.437,5.579-12.437,12.436s5.58,12.437,12.437,12.437
		C199.84,152.883,205.42,147.304,205.42,140.447z M192.984,147.591c-3.939,0-7.145-3.205-7.145-7.144s3.205-7.145,7.145-7.145
		s7.143,3.205,7.143,7.145S196.924,147.591,192.984,147.591z"/>
	<path d="M175.772,210.985c-6.857,0-12.436,5.58-12.436,12.437c0,6.857,5.578,12.437,12.436,12.437s12.437-5.579,12.437-12.437
		C188.209,216.565,182.629,210.985,175.772,210.985z M175.772,230.566c-3.939,0-7.145-3.204-7.145-7.145
		c0-3.938,3.205-7.144,7.145-7.144s7.145,3.205,7.145,7.144C182.917,227.362,179.711,230.566,175.772,230.566z"/>
	<path d="M214.807,203.216c2.1,1.371,4.713,3.076,9.555,3.076s7.455-1.705,9.555-3.076c1.896-1.238,3.395-2.215,6.662-2.215
		s4.766,0.977,6.664,2.215c2.1,1.371,4.713,3.076,9.555,3.076c4.84,0,7.455-1.705,9.555-3.076c1.896-1.238,3.395-2.215,6.662-2.215
		v-5.293c-4.842,0-7.455,1.706-9.555,3.076c-1.896,1.238-3.395,2.217-6.662,2.217s-4.766-0.979-6.664-2.217
		c-2.1-1.37-4.713-3.076-9.555-3.076s-7.455,1.706-9.555,3.076c-1.896,1.238-3.395,2.217-6.662,2.217s-4.766-0.979-6.662-2.217
		c-0.605-0.395-1.258-0.818-1.992-1.22c1.475-9.021,2.51-17.968,3.096-26.822c1.707-25.827-0.361-50.925-6.148-74.597
		c-5.156-21.09-12.373-37.127-17.52-46.867c-5.613-10.622-9.978-16.192-10.161-16.424l-2.306-2.922l-2.002,3.139
		c-8.732,13.694-15.796,28.25-21.159,43.539c-4.246-12.729-8.916-22.757-12.552-29.639c-5.613-10.622-9.977-16.191-10.16-16.423
		l-2.306-2.922l-2.001,3.139c-16.135,25.303-26.598,53.538-31.097,83.921c-3.594,24.269-3.41,49.948,0.546,76.323
		c0.34,2.269,0.704,4.501,1.086,6.701c-0.628,0.358-1.196,0.728-1.729,1.076c-1.897,1.237-3.395,2.216-6.662,2.216
		s-4.765-0.979-6.661-2.216c-2.1-1.371-4.713-3.076-9.554-3.076s-7.454,1.705-9.554,3.076c-1.896,1.237-3.395,2.216-6.661,2.216
		s-4.765-0.979-6.661-2.216c-2.1-1.371-4.713-3.076-9.554-3.076v5.292c3.267,0,4.765,0.978,6.662,2.215
		c2.1,1.371,4.713,3.077,9.554,3.077s7.454-1.706,9.554-3.077c1.896-1.237,3.395-2.215,6.661-2.215c3.267,0,4.765,0.978,6.662,2.215
		c2.1,1.371,4.713,3.077,9.554,3.077c4.738,0,7.341-1.634,9.417-2.988c0.677,3.495,1.398,6.886,2.151,10.169
		c-2.104,0.619-3.607,1.593-4.908,2.441c-1.896,1.238-3.395,2.216-6.661,2.216c-3.267,0-4.765-0.978-6.662-2.216
		c-2.1-1.371-4.713-3.076-9.554-3.076s-7.454,1.705-9.553,3.076c-1.896,1.238-3.395,2.216-6.661,2.216
		c-3.267,0-4.765-0.978-6.662-2.216c-2.1-1.371-4.713-3.076-9.554-3.076v5.292c3.267,0,4.765,0.978,6.661,2.216
		c2.1,1.37,4.713,3.076,9.554,3.076s7.454-1.706,9.553-3.076c1.896-1.238,3.395-2.216,6.661-2.216s4.765,0.978,6.661,2.216
		c2.1,1.37,4.713,3.076,9.554,3.076c4.841,0,7.454-1.706,9.554-3.076c1.076-0.702,2.027-1.318,3.242-1.722
		c1.039,4.196,2.119,8.187,3.208,11.946c-4.703,0.05-7.275,1.722-9.343,3.071c-1.896,1.238-3.395,2.216-6.661,2.216
		c-3.267,0-4.765-0.978-6.662-2.216c-2.1-1.37-4.713-3.076-9.554-3.076s-7.454,1.706-9.554,3.076
		c-1.896,1.238-3.395,2.216-6.661,2.216c-3.267,0-4.765-0.978-6.662-2.216c-2.1-1.37-4.713-3.076-9.554-3.076v5.292
		c3.267,0,4.765,0.979,6.661,2.216c2.1,1.37,4.713,3.076,9.554,3.076s7.454-1.706,9.553-3.076c1.896-1.237,3.395-2.216,6.661-2.216
		s4.765,0.979,6.661,2.216c2.1,1.37,4.713,3.076,9.554,3.076s7.454-1.706,9.554-3.076c1.897-1.237,3.395-2.216,6.662-2.216
		c0.505,0,0.966,0.025,1.396,0.068c1.667,5.384,3.319,10.202,4.845,14.368c-1.599-0.69-3.583-1.206-6.241-1.206
		c-4.841,0-7.454,1.705-9.554,3.076c-1.896,1.238-3.395,2.215-6.661,2.215s-4.765-0.977-6.661-2.215
		c-2.1-1.371-4.713-3.076-9.554-3.076s-7.454,1.705-9.554,3.076c-1.896,1.238-3.395,2.215-6.661,2.215s-4.765-0.977-6.661-2.215
		c-2.1-1.371-4.713-3.076-9.554-3.076v5.291c3.267,0,4.765,0.979,6.662,2.217c2.1,1.37,4.713,3.076,9.554,3.076
		s7.454-1.706,9.553-3.076c1.897-1.238,3.395-2.217,6.661-2.217s4.765,0.979,6.662,2.217c2.1,1.37,4.713,3.076,9.553,3.076
		c4.841,0,7.454-1.706,9.554-3.076c1.896-1.238,3.395-2.217,6.661-2.217c3.267,0,4.765,0.979,6.662,2.217
		c0.765,0.499,1.6,1.043,2.585,1.532c2.534,6.294,4.261,9.826,4.313,9.931l1.488,3.008l8.968-7.475l10.584,7.352l1.246-3.061
		c1.454-3.57,2.839-7.137,4.166-10.698c1.958,1.226,4.473,2.487,8.636,2.487c3.538,0,5.883-0.912,7.71-1.938
		c3.105,7.977,5.322,12.513,5.381,12.631l1.488,3.008l8.967-7.473l10.583,7.35l1.246-3.061c1.699-4.17,3.309-8.334,4.832-12.492
		c0.648-0.367,1.232-0.745,1.779-1.102c1.896-1.238,3.395-2.217,6.662-2.217s4.766,0.979,6.662,2.217
		c2.1,1.37,4.713,3.076,9.555,3.076c4.84,0,7.455-1.706,9.555-3.076c1.896-1.238,3.395-2.217,6.662-2.217s4.766,0.979,6.662,2.217
		c2.1,1.37,4.713,3.076,9.555,3.076s7.455-1.706,9.555-3.076c1.898-1.238,3.396-2.217,6.664-2.217v-5.291
		c-4.842,0-7.455,1.705-9.555,3.076c-1.898,1.238-3.396,2.215-6.664,2.215s-4.766-0.977-6.662-2.215
		c-2.1-1.371-4.713-3.076-9.555-3.076s-7.455,1.705-9.555,3.076c-1.896,1.238-3.395,2.215-6.662,2.215s-4.766-0.977-6.662-2.215
		c-2.102-1.371-4.715-3.076-9.555-3.076c-2.395,0-4.24,0.418-5.752,1.005c1.617-4.737,3.123-9.465,4.512-14.181
		c0.385-0.035,0.795-0.055,1.24-0.055c3.268,0,4.766,0.978,6.662,2.216c2.1,1.37,4.713,3.076,9.555,3.076
		c4.84,0,7.455-1.706,9.555-3.076c1.896-1.238,3.395-2.216,6.662-2.216s4.766,0.978,6.662,2.216c2.1,1.37,4.713,3.076,9.555,3.076
		s7.455-1.706,9.555-3.076c1.898-1.238,3.396-2.216,6.664-2.216v-5.292c-4.842,0-7.455,1.706-9.555,3.076
		c-1.898,1.237-3.396,2.216-6.664,2.216s-4.766-0.979-6.662-2.216c-2.1-1.37-4.713-3.076-9.555-3.076s-7.455,1.706-9.555,3.076
		c-1.896,1.237-3.395,2.216-6.662,2.216s-4.766-0.979-6.662-2.216c-2.059-1.343-4.615-3.004-9.273-3.07
		c1.107-4,2.131-7.991,3.07-11.97c1.248,0.402,2.215,1.028,3.311,1.743c2.1,1.37,4.713,3.076,9.555,3.076
		c4.84,0,7.455-1.706,9.555-3.076c1.896-1.237,3.395-2.216,6.662-2.216s4.766,0.979,6.662,2.216c2.1,1.37,4.713,3.076,9.555,3.076
		s7.455-1.706,9.555-3.075c1.898-1.238,3.396-2.217,6.664-2.217v-5.292c-4.842,0-7.455,1.706-9.555,3.076
		c-1.898,1.238-3.396,2.216-6.664,2.216s-4.766-0.978-6.662-2.216c-2.1-1.37-4.713-3.076-9.555-3.076s-7.455,1.706-9.555,3.076
		c-1.896,1.238-3.395,2.216-6.662,2.216s-4.766-0.978-6.662-2.216c-1.326-0.864-2.859-1.859-5.025-2.478
		c0.75-3.432,1.436-6.854,2.061-10.268C214.76,203.186,214.783,203.2,214.807,203.216z M132.072,259.031l-4.333,3.61
		c-3.956-8.909-15.192-36.432-20.594-72.588c-5.767-38.604-5.811-94.892,24.927-148.388V259.031z M171.575,60.86
		c2.199,1.219,3.693,3.562,3.693,6.25c0,3.939-3.205,7.144-7.145,7.144c-0.689,0-1.353-0.103-1.983-0.286
		C167.775,69.602,169.583,65.229,171.575,60.86z M143.027,262.819l-5.663-3.932V40.86c5.783,9.404,15.6,28.016,22.042,54.527
		C168.12,131.244,172.243,189.221,143.027,262.819z M158.879,233.086c0.272,0.938,0.545,1.861,0.818,2.77
		c-0.067,0.001-0.132,0.003-0.202,0.003c-0.517,0-0.984-0.027-1.421-0.072C158.347,234.886,158.616,233.985,158.879,233.086z
		 M159.496,254.38c-3.267,0-4.765-0.977-6.662-2.215c-0.038-0.025-0.078-0.051-0.116-0.076c1.329-3.736,2.582-7.465,3.769-11.189
		c0.899,0.158,1.893,0.251,3.009,0.251c0.646,0,1.249-0.033,1.818-0.09c1.377,4.3,2.729,8.2,3.995,11.649
		C163.762,253.678,162.264,254.38,159.496,254.38z M191.205,265.127l-8.455-5.872l-6.834,5.695
		c-2.732-6.148-8.936-21.174-14.293-41.811c3.786-14.596,6.459-29.055,8.001-43.299c2.201,1.974,5.106,3.178,8.288,3.178
		c6.857,0,12.437-5.58,12.437-12.438c0-6.856-5.58-12.435-12.437-12.435c-2.541,0-4.904,0.767-6.875,2.08
		c0.809-22.937-1.39-45.232-6.562-66.388c-0.71-2.906-1.461-5.712-2.239-8.423c0.664-2.151,1.363-4.306,2.109-6.463
		c1.191,0.382,2.459,0.595,3.777,0.595c6.857,0,12.436-5.579,12.436-12.436c0-4.799-2.733-8.968-6.724-11.041
		c2.744-5.624,5.799-11.234,9.202-16.807c4.951,7.37,17.039,27.537,24.546,58.431c5.578,22.95,9.273,54.962,3.553,94.331
		c-1.215-0.397-2.508-0.619-3.854-0.619c-6.857,0-12.436,5.579-12.436,12.437c0,6.618,5.197,12.044,11.725,12.415
		C203.02,231.642,198.021,247.959,191.205,265.127z M170.769,170.581c0-3.938,3.204-7.143,7.145-7.143
		c3.938,0,7.144,3.206,7.144,7.143c0,3.94-3.205,7.145-7.144,7.145C173.973,177.726,170.769,174.521,170.769,170.581z
		 M207.283,210.985c-3.939,0-7.145-3.204-7.145-7.144s3.205-7.145,7.145-7.145c1.08,0,2.104,0.243,3.023,0.675
		c-0.732,4.443-1.584,8.977-2.564,13.597C207.59,210.978,207.438,210.985,207.283,210.985z"/>
</g>
</svg>
