<?xml version="1.0" encoding="utf-8"?>
<!-- Generator: Adobe Illustrator 15.1.0, SVG Export Plug-In . SVG Version: 6.00 Build 0)  -->
<!DOCTYPE svg PUBLIC "-//W3C//DTD SVG 1.1//EN" "http://www.w3.org/Graphics/SVG/1.1/DTD/svg11.dtd">
<svg version="1.1" id="Calque_1" xmlns="http://www.w3.org/2000/svg" xmlns:xlink="http://www.w3.org/1999/xlink" x="0px" y="0px"
	 width="319px" height="319px" viewBox="0 0 319 319" enable-background="new 0 0 319 319" xml:space="preserve">
<circle fill="#FFFFFF" cx="159.5" cy="159.5" r="159.5"/>
<g>
	<path d="M68.96,186.014c0-12.562,9.778-22.883,22.122-23.754v-5.303c-15.265,0.88-27.414,13.575-27.414,29.057
		c0,15.48,12.149,28.176,27.414,29.057v-5.303C78.738,208.896,68.96,198.576,68.96,186.014z"/>
	<path d="M250.316,186.014c0,13.131-10.684,23.814-23.814,23.814v5.291c16.049,0,29.105-13.057,29.105-29.105
		c0-16.05-13.057-29.107-29.105-29.107v5.292C239.633,162.198,250.316,172.883,250.316,186.014z"/>
	<path d="M242.408,227.238c16.529-6.4,28.281-22.465,28.281-41.225c0-24.366-19.822-44.189-44.188-44.189
		c-3.721,0-7.332,0.464-10.785,1.334l-8.461-26.735h22.053c2.48,0,4.498,2.018,4.498,4.498c0,2.391-1.877,4.347-4.232,4.485v5.298
		c5.275-0.141,9.525-4.474,9.525-9.784c0-5.398-4.393-9.79-9.791-9.79h-29.279l4.689,14.818h-68.287l-8.809-19.512
		c12.01-0.887,13.615-2.781,14.33-3.624c0.856-1.011,1.057-2.303,0.539-3.457c-0.763-1.697-2.756-2.612-7.354-3.374
		c-2.685-0.445-6.299-0.836-10.743-1.161c-7.495-0.548-14.919-0.728-14.993-0.729l-2.708-0.064v12.83c0,0,12.391-0.005,15.262-0.113
		l9.569,21.197l-15.045,20.795c-6.854-4.374-14.988-6.911-23.704-6.911c-24.365,0-44.188,19.823-44.188,44.189
		c0,18.76,11.752,34.824,28.281,41.225H51.233v5.291h219.929v-5.291H242.408L242.408,227.238z M111.985,101.621v-2.155
		c2.547,0.09,6.584,0.26,10.771,0.545c3.599,0.244,6.371,0.51,8.501,0.769c-1.228,0.14-2.673,0.274-4.374,0.392
		c-5.631,0.391-11.74,0.449-14.881,0.449C111.998,101.621,111.992,101.621,111.985,101.621z M226.502,147.117
		c21.447,0,38.896,17.449,38.896,38.897c0,21.447-17.449,38.896-38.896,38.896s-38.896-17.449-38.896-38.896
		c0-16.428,10.236-30.509,24.666-36.201l8.396,26.533c-3.27,1.98-5.461,5.574-5.461,9.668c0,6.227,5.066,11.295,11.295,11.295
		s11.295-5.066,11.295-11.295s-5.066-11.295-11.295-11.295c-0.266,0-0.527,0.012-0.789,0.031l-8.396-26.535
		C220.262,147.5,223.338,147.117,226.502,147.117z M223.979,186.812l5.047-1.598l-1.627-5.137c2.887,0.434,5.105,2.93,5.105,5.936
		c0,3.311-2.693,6.002-6.002,6.002c-3.311,0-6.004-2.691-6.004-6.002c0-1.703,0.715-3.24,1.857-4.334L223.979,186.812z
		 M201.295,131.241l-33.887,42.14c-2.016-1.084-4.318-1.699-6.763-1.699c-1.166,0-2.298,0.143-3.383,0.406l-18.44-40.847H201.295z
		 M169.685,186.014c0,4.984-4.055,9.039-9.04,9.039c-4.064,0-7.51-2.695-8.644-6.393h8.644c0.801,0,1.56-0.363,2.062-0.988
		l5.416-6.734C169.108,182.387,169.685,184.133,169.685,186.014z M154.679,179.23l1.868,4.137h-4.546
		C152.498,181.748,153.438,180.322,154.679,179.23z M161.284,180.996l-1.783-3.947c0.375-0.049,0.756-0.076,1.144-0.076
		c1.185,0,2.316,0.232,3.354,0.648L161.284,180.996z M134.035,133.5l18.406,40.771c-3.011,2.111-5.176,5.348-5.879,9.096h-9.68
		c-0.752-12.68-6.874-23.937-16.119-31.523L134.035,133.5z M103.754,183.367c-0.425-1.76-1.262-3.359-2.404-4.691l16.305-22.537
		c7.925,6.611,13.188,16.308,13.925,27.228H103.754L103.754,183.367z M90.418,187.217c0.452,0.885,1.363,1.443,2.357,1.443h5.386
		c-0.979,1.986-3.025,3.355-5.386,3.355c-3.31,0-6.003-2.693-6.003-6.002c0-3.311,2.693-6.004,6.003-6.004
		c0.345,0,0.684,0.031,1.014,0.088l-3.158,4.365C90.049,185.268,89.967,186.332,90.418,187.217z M97.956,183.367l0.121-0.166
		c0.029,0.055,0.058,0.109,0.085,0.166H97.956z M53.879,186.014c0-21.448,17.449-38.897,38.896-38.897
		c7.558,0,14.619,2.169,20.595,5.915l-16.304,22.537c-1.324-0.547-2.773-0.85-4.291-0.85c-6.228,0-11.295,5.066-11.295,11.295
		s5.066,11.295,11.295,11.295c5.316,0,9.784-3.693,10.979-8.648h27.826c-1.365,20.217-18.246,36.25-38.804,36.25
		C71.328,224.91,53.879,207.461,53.879,186.014z M136.882,188.66h9.68c1.246,6.643,7.084,11.686,14.083,11.686
		c7.903,0,14.332-6.43,14.332-14.332c0-3.553-1.302-6.805-3.45-9.311l35.344-43.953l3.801,12.008
		c-16.568,6.38-28.359,22.465-28.359,41.255c0,18.76,11.753,34.824,28.281,41.225H108.683
		C124.428,221.141,135.836,206.273,136.882,188.66z"/>
	<rect x="73.24" y="246.818" width="107.427" height="5.291"/>
	<rect x="170.083" y="237.293" width="79.911" height="5.291"/>
	<rect x="105.521" y="66.89" width="112.332" height="5.292"/>
	<rect x="184.959" y="85.941" width="67.679" height="5.292"/>
	<rect x="47.839" y="118.272" width="44.937" height="5.292"/>
	<rect x="63.668" y="97.856" width="27.414" height="5.292"/>
</g>
</svg>
