<?xml version="1.0" encoding="utf-8"?>
<!-- Generator: Adobe Illustrator 15.1.0, SVG Export Plug-In . SVG Version: 6.00 Build 0)  -->
<!DOCTYPE svg PUBLIC "-//W3C//DTD SVG 1.1//EN" "http://www.w3.org/Graphics/SVG/1.1/DTD/svg11.dtd">
<svg version="1.1"
	 id="Calque_1" xmlns:inkscape="http://www.inkscape.org/namespaces/inkscape" xmlns:sodipodi="http://sodipodi.sourceforge.net/DTD/sodipodi-0.dtd" xmlns:rdf="http://www.w3.org/1999/02/22-rdf-syntax-ns#" xmlns:svg="http://www.w3.org/2000/svg" xmlns:cc="http://creativecommons.org/ns#" xmlns:dc="http://purl.org/dc/elements/1.1/"
	 xmlns="http://www.w3.org/2000/svg" xmlns:xlink="http://www.w3.org/1999/xlink" x="0px" y="0px" width="319px" height="319px"
	 viewBox="24.5 5.875 319 319" enable-background="new 24.5 5.875 319 319" xml:space="preserve">
<circle fill="#FFFFFF" cx="184" cy="165.375" r="159.5"/>
<title>take a tour</title>
<g transform="translate(0,-284.29998)">
	<path d="M255.883,333.912l-13.928,17.998c-18.055-10.381-38.271-15.439-58.423-15.183c-25.161,0.321-50.21,8.908-70.813,25.709
		c-41.207,33.603-53.815,91.252-30.397,138.989s76.724,73.065,128.519,61.046c51.794-12.02,88.523-58.244,88.523-111.415h-10.842
		c0,48.188-33.178,89.966-80.119,100.859s-95.125-12.005-116.349-55.269c-21.224-43.264-9.828-95.36,27.518-125.814
		c33.234-27.102,79.123-30.599,115.681-10.26l-12.53,16.188l53.685,7.296L255.883,333.912z M184.999,411.026
		c-44.371,0-80.344,38.647-80.344,38.647s35.973,38.647,80.344,38.647c44.372,0,80.345-38.647,80.345-38.647
		S229.371,411.026,184.999,411.026z M184.999,425.496c13.353,0,24.177,10.825,24.177,24.177s-10.824,24.177-24.177,24.177
		c-13.352,0-24.176-10.825-24.177-24.177C160.823,436.321,171.647,425.497,184.999,425.496z M184.999,437.766
		c-6.576,0-11.908,5.332-11.908,11.908c0,6.576,5.332,11.908,11.908,11.908c6.577,0,11.907-5.332,11.907-11.908
		C196.906,443.097,191.576,437.766,184.999,437.766z"/>
</g>
</svg>
